<svg width="156" height="11" viewBox="0 0 156 11" fill="none" xmlns="http://www.w3.org/2000/svg">
<path d="M5.3142 10.2085L2.9105 6.08164H1.31769V10.2085H0V0.115841H3.25802C4.02064 0.115841 4.66259 0.246162 5.18388 0.506804C5.71481 0.767446 6.1106 1.1198 6.37124 1.56385C6.63189 2.00791 6.76221 2.51471 6.76221 3.08426C6.76221 3.77931 6.55949 4.3923 6.15404 4.92324C5.75825 5.45417 5.15974 5.80652 4.35851 5.98028L6.89253 10.2085H5.3142ZM1.31769 5.0246H3.25802C3.97237 5.0246 4.50814 4.85083 4.86531 4.50331C5.22249 4.14614 5.40108 3.67312 5.40108 3.08426C5.40108 2.48575 5.22249 2.02239 4.86531 1.69417C4.51779 1.36596 3.98203 1.20185 3.25802 1.20185H1.31769V5.0246Z" fill="black"/>
<path d="M14.1818 0.115841V10.2085H12.8641V0.115841H14.1818Z" fill="black"/>
<path d="M23.6242 0.115841C24.7247 0.115841 25.6755 0.323389 26.4768 0.738485C27.2876 1.14393 27.9055 1.72796 28.3302 2.49058C28.7646 3.2532 28.9818 4.15096 28.9818 5.18388C28.9818 6.21679 28.7646 7.11456 28.3302 7.87718C27.9055 8.63014 27.2876 9.20935 26.4768 9.61479C25.6755 10.0106 24.7247 10.2085 23.6242 10.2085H20.482V0.115841H23.6242ZM23.6242 9.12247C24.9274 9.12247 25.9217 8.77977 26.6071 8.09438C27.2925 7.39933 27.6352 6.42917 27.6352 5.18388C27.6352 3.92893 27.2876 2.94911 26.5926 2.24442C25.9072 1.53972 24.9177 1.18737 23.6242 1.18737H21.7997V9.12247H23.6242Z" fill="black"/>
<path d="M36.092 1.18737V4.56123H39.7699V5.64724H36.092V9.12247H40.2043V10.2085H34.7743V0.101361H40.2043V1.18737H36.092Z" fill="black"/>
<path d="M61.2338 0.115841L57.9468 6.40021V10.2085H56.6291V6.40021L53.3276 0.115841H54.7901L57.2807 5.22732L59.7713 0.115841H61.2338Z" fill="black"/>
<path d="M71.2538 10.3098C70.3174 10.3098 69.4631 10.0926 68.6908 9.65823C67.9185 9.21417 67.3055 8.60118 66.8518 7.81926C66.4077 7.02768 66.1857 6.13956 66.1857 5.15492C66.1857 4.17027 66.4077 3.28698 66.8518 2.50506C67.3055 1.71348 67.9185 1.10049 68.6908 0.666085C69.4631 0.222028 70.3174 0 71.2538 0C72.1998 0 73.0589 0.222028 73.8312 0.666085C74.6035 1.10049 75.2116 1.70865 75.6557 2.49058C76.0998 3.2725 76.3218 4.16062 76.3218 5.15492C76.3218 6.14922 76.0998 7.03733 75.6557 7.81926C75.2116 8.60118 74.6035 9.21417 73.8312 9.65823C73.0589 10.0926 72.1998 10.3098 71.2538 10.3098ZM71.2538 9.1659C71.9585 9.1659 72.5907 9.0018 73.1506 8.67358C73.7202 8.34537 74.1643 7.87718 74.4828 7.26901C74.811 6.66085 74.9751 5.95615 74.9751 5.15492C74.9751 4.34403 74.811 3.63933 74.4828 3.04082C74.1643 2.43266 73.725 1.96447 73.1651 1.63625C72.6052 1.30804 71.9681 1.14393 71.2538 1.14393C70.5394 1.14393 69.9023 1.30804 69.3424 1.63625C68.7825 1.96447 68.3384 2.43266 68.0102 3.04082C67.6917 3.63933 67.5324 4.34403 67.5324 5.15492C67.5324 5.95615 67.6917 6.66085 68.0102 7.26901C68.3384 7.87718 68.7825 8.34537 69.3424 8.67358C69.9119 9.0018 70.5491 9.1659 71.2538 9.1659Z" fill="black"/>
<path d="M83.4045 0.115841V6.50157C83.4045 7.39933 83.6217 8.06542 84.0561 8.49982C84.5001 8.93422 85.1131 9.15143 85.8951 9.15143C86.6673 9.15143 87.2707 8.93422 87.7051 8.49982C88.1491 8.06542 88.3712 7.39933 88.3712 6.50157V0.115841H89.6889V6.48709C89.6889 7.32693 89.5199 8.03646 89.182 8.61566C88.8442 9.18521 88.3856 9.60996 87.8064 9.88991C87.2369 10.1699 86.5949 10.3098 85.8806 10.3098C85.1662 10.3098 84.5195 10.1699 83.9402 9.88991C83.3707 9.60996 82.917 9.18521 82.5791 8.61566C82.2509 8.03646 82.0868 7.32693 82.0868 6.48709V0.115841H83.4045Z" fill="black"/>
<path d="M101.256 10.2085L98.8519 6.08164H97.2591V10.2085H95.9414V0.115841H99.1994C99.9621 0.115841 100.604 0.246162 101.125 0.506804C101.656 0.767446 102.052 1.1198 102.313 1.56385C102.573 2.00791 102.704 2.51471 102.704 3.08426C102.704 3.77931 102.501 4.3923 102.095 4.92324C101.7 5.45417 101.101 5.80652 100.3 5.98028L102.834 10.2085H101.256ZM97.2591 5.0246H99.1994C99.9138 5.0246 100.45 4.85083 100.807 4.50331C101.164 4.14614 101.342 3.67312 101.342 3.08426C101.342 2.48575 101.164 2.02239 100.807 1.69417C100.459 1.36596 99.9235 1.20185 99.1994 1.20185H97.2591V5.0246Z" fill="black"/>
<path d="M129.405 0.115841L126.48 10.2085H125.003L122.657 2.08513L120.225 10.2085L118.762 10.223L115.938 0.115841H117.343L119.544 8.67358L121.977 0.115841H123.454L125.77 8.64462L127.986 0.115841H129.405Z" fill="black"/>
<path d="M140.867 7.96406H136.465L135.654 10.2085H134.264L137.913 0.173762H139.434L143.068 10.2085H141.678L140.867 7.96406ZM140.491 6.89253L138.666 1.79553L136.842 6.89253H140.491Z" fill="black"/>
<path d="M155.779 0.115841L152.492 6.40021V10.2085H151.175V6.40021L147.873 0.115841H149.336L151.826 5.22732L154.317 0.115841H155.779Z" fill="black"/>
</svg>
