<svg width="320" height="22" viewBox="0 0 320 22" fill="none" xmlns="http://www.w3.org/2000/svg">
<path d="M10.9146 20.9667L5.97774 12.4908H2.70634V20.9667H2.1642e-06V0.237894H6.6915C8.25781 0.237894 9.57628 0.505554 10.6469 1.04087C11.7374 1.57619 12.5503 2.29987 13.0856 3.21189C13.6209 4.12392 13.8886 5.16482 13.8886 6.33459C13.8886 7.76211 13.4722 9.02111 12.6395 10.1116C11.8266 11.202 10.5974 11.9257 8.95174 12.2826L14.1562 20.9667H10.9146ZM2.70634 10.3198H6.6915C8.15868 10.3198 9.25906 9.96287 9.99264 9.24911C10.7262 8.51553 11.093 7.54402 11.093 6.33459C11.093 5.10534 10.7262 4.15366 9.99264 3.47955C9.27888 2.80545 8.1785 2.46839 6.6915 2.46839H2.70634V10.3198ZM29.1273 0.237894V20.9667H26.421V0.237894H29.1273ZM48.5206 0.237894C50.7808 0.237894 52.7337 0.664167 54.3794 1.51671C56.0448 2.34943 57.3137 3.54895 58.1861 5.11525C59.0783 6.68156 59.5244 8.52544 59.5244 10.6469C59.5244 12.7683 59.0783 14.6122 58.1861 16.1785C57.3137 17.725 56.0448 18.9146 54.3794 19.7473C52.7337 20.5602 50.7808 20.9667 48.5206 20.9667H42.067V0.237894H48.5206ZM48.5206 18.7362C51.1972 18.7362 53.2393 18.0323 54.647 16.6246C56.0547 15.1971 56.7586 13.2045 56.7586 10.6469C56.7586 8.06943 56.0448 6.05702 54.6173 4.60967C53.2096 3.16233 51.1774 2.43865 48.5206 2.43865H44.7733V18.7362H48.5206ZM74.1276 2.43865V9.36807H81.6816V11.5986H74.1276V18.7362H82.5738V20.9667H71.4213V0.208155H82.5738V2.43865H74.1276ZM125.765 0.237894L119.014 13.1451V20.9667H116.308V13.1451L109.527 0.237894H112.531L117.646 10.7361L122.761 0.237894H125.765ZM146.345 21.1749C144.422 21.1749 142.667 20.7288 141.081 19.8366C139.495 18.9245 138.236 17.6655 137.304 16.0596C136.392 14.4338 135.936 12.6097 135.936 10.5874C135.936 8.56509 136.392 6.75095 137.304 5.14499C138.236 3.51921 139.495 2.26021 141.081 1.36801C142.667 0.455987 144.422 -2.63103e-05 146.345 -2.63103e-05C148.288 -2.63103e-05 150.052 0.455987 151.638 1.36801C153.225 2.26021 154.474 3.50929 155.386 5.11525C156.298 6.72121 156.754 8.54527 156.754 10.5874C156.754 12.6296 156.298 14.4536 155.386 16.0596C154.474 17.6655 153.225 18.9245 151.638 19.8366C150.052 20.7288 148.288 21.1749 146.345 21.1749ZM146.345 18.8254C147.792 18.8254 149.091 18.4883 150.241 17.8142C151.41 17.1401 152.322 16.1785 152.977 14.9295C153.651 13.6804 153.988 12.233 153.988 10.5874C153.988 8.92197 153.651 7.47463 152.977 6.24537C152.322 4.99629 151.42 4.0347 150.27 3.36059C149.12 2.68649 147.812 2.34943 146.345 2.34943C144.878 2.34943 143.569 2.68649 142.419 3.36059C141.269 4.0347 140.357 4.99629 139.683 6.24537C139.029 7.47463 138.702 8.92197 138.702 10.5874C138.702 12.233 139.029 13.6804 139.683 14.9295C140.357 16.1785 141.269 17.1401 142.419 17.8142C143.589 18.4883 144.897 18.8254 146.345 18.8254ZM171.301 0.237894V13.3532C171.301 15.1971 171.747 16.5652 172.639 17.4574C173.551 18.3496 174.81 18.7957 176.416 18.7957C178.002 18.7957 179.241 18.3496 180.133 17.4574C181.045 16.5652 181.501 15.1971 181.501 13.3532V0.237894H184.208V13.3235C184.208 15.0484 183.861 16.5057 183.167 17.6953C182.473 18.865 181.531 19.7374 180.342 20.3124C179.172 20.8874 177.853 21.1749 176.386 21.1749C174.919 21.1749 173.591 20.8874 172.401 20.3124C171.231 19.7374 170.299 18.865 169.605 17.6953C168.931 16.5057 168.594 15.0484 168.594 13.3235V0.237894H171.301ZM207.964 20.9667L203.027 12.4908H199.756V20.9667H197.05V0.237894H203.741C205.307 0.237894 206.626 0.505554 207.696 1.04087C208.787 1.57619 209.6 2.29987 210.135 3.21189C210.67 4.12392 210.938 5.16482 210.938 6.33459C210.938 7.76211 210.522 9.02111 209.689 10.1116C208.876 11.202 207.647 11.9257 206.001 12.2826L211.206 20.9667H207.964ZM199.756 10.3198H203.741C205.208 10.3198 206.309 9.96287 207.042 9.24911C207.776 8.51553 208.143 7.54402 208.143 6.33459C208.143 5.10534 207.776 4.15366 207.042 3.47955C206.328 2.80545 205.228 2.46839 203.741 2.46839H199.756V10.3198ZM265.779 0.237894L259.771 20.9667H256.738L251.92 4.28253L246.924 20.9667L243.92 20.9964L238.121 0.237894H241.005L245.526 17.8142L250.522 0.237894H253.556L258.314 17.7548L262.864 0.237894H265.779ZM289.32 16.357H280.28L278.614 20.9667H275.759L283.254 0.356854H286.376L293.841 20.9667H290.986L289.32 16.357ZM288.547 14.1562L284.8 3.68773L281.053 14.1562H288.547ZM319.948 0.237894L313.197 13.1451V20.9667H310.49V13.1451L303.71 0.237894H306.713L311.829 10.7361L316.944 0.237894H319.948Z" fill="white"/>
</svg>
