<svg width="202" height="33" viewBox="0 0 202 33" fill="none" xmlns="http://www.w3.org/2000/svg">
<path d="M4.3336 9.62679C4.89078 8.80134 5.65432 8.13067 6.62422 7.61476C7.61476 7.09886 8.73943 6.8409 9.99824 6.8409C11.4634 6.8409 12.7841 7.20204 13.9604 7.9243C15.1573 8.64657 16.0962 9.67838 16.7772 11.0197C17.4789 12.3405 17.8297 13.8778 17.8297 15.6319C17.8297 17.386 17.4789 18.944 16.7772 20.306C16.0962 21.6474 15.1573 22.6895 13.9604 23.4324C12.7841 24.1753 11.4634 24.5468 9.99824 24.5468C8.7188 24.5468 7.59412 24.2991 6.62422 23.8039C5.67496 23.288 4.91142 22.6276 4.3336 21.8228V24.2682H0V1.36199H4.3336V9.62679ZM13.4032 15.6319C13.4032 14.6001 13.1865 13.7128 12.7532 12.9699C12.3405 12.2063 11.7833 11.6285 11.0816 11.2364C10.4006 10.8443 9.65775 10.6483 8.85293 10.6483C8.06876 10.6483 7.32585 10.8546 6.62422 11.2674C5.94323 11.6595 5.38605 12.2373 4.95269 13.0008C4.53997 13.7644 4.3336 14.662 4.3336 15.6938C4.3336 16.7256 4.53997 17.6233 4.95269 18.3869C5.38605 19.1504 5.94323 19.7385 6.62422 20.1513C7.32585 20.5433 8.06876 20.7394 8.85293 20.7394C9.65775 20.7394 10.4006 20.533 11.0816 20.1203C11.7833 19.7076 12.3405 19.1194 12.7532 18.3559C13.1865 17.5924 13.4032 16.6844 13.4032 15.6319Z" fill="black"/>
<path d="M28.5936 24.5468C26.9427 24.5468 25.4569 24.1856 24.1361 23.4634C22.8154 22.7205 21.7733 21.6783 21.0098 20.337C20.2668 18.9956 19.8954 17.4479 19.8954 15.6938C19.8954 13.9398 20.2772 12.392 21.0407 11.0507C21.8249 9.70934 22.8876 8.67753 24.229 7.95526C25.5704 7.21235 27.0665 6.8409 28.7174 6.8409C30.3683 6.8409 31.8644 7.21235 33.2058 7.95526C34.5471 8.67753 35.5996 9.70934 36.3631 11.0507C37.1473 12.392 37.5394 13.9398 37.5394 15.6938C37.5394 17.4479 37.1369 18.9956 36.3321 20.337C35.548 21.6783 34.4749 22.7205 33.1129 23.4634C31.7715 24.1856 30.2651 24.5468 28.5936 24.5468ZM28.5936 20.7703C29.3777 20.7703 30.1103 20.5846 30.7913 20.2132C31.4929 19.8211 32.0501 19.2433 32.4628 18.4797C32.8756 17.7162 33.0819 16.7876 33.0819 15.6938C33.0819 14.0636 32.6486 12.8151 31.7819 11.9484C30.9358 11.061 29.8936 10.6173 28.6555 10.6173C27.4173 10.6173 26.3752 11.061 25.5291 11.9484C24.7036 12.8151 24.2909 14.0636 24.2909 15.6938C24.2909 17.3241 24.6933 18.5829 25.4981 19.4703C26.3236 20.337 27.3554 20.7703 28.5936 20.7703Z" fill="black"/>
<path d="M48.333 24.5468C46.6821 24.5468 45.1963 24.1856 43.8756 23.4634C42.5548 22.7205 41.5127 21.6783 40.7492 20.337C40.0063 18.9956 39.6348 17.4479 39.6348 15.6938C39.6348 13.9398 40.0166 12.392 40.7801 11.0507C41.5643 9.70934 42.6271 8.67753 43.9684 7.95526C45.3098 7.21235 46.8059 6.8409 48.4568 6.8409C50.1077 6.8409 51.6038 7.21235 52.9452 7.95526C54.2865 8.67753 55.339 9.70934 56.1025 11.0507C56.8867 12.392 57.2788 13.9398 57.2788 15.6938C57.2788 17.4479 56.8764 18.9956 56.0716 20.337C55.2874 21.6783 54.2143 22.7205 52.8523 23.4634C51.511 24.1856 50.0045 24.5468 48.333 24.5468ZM48.333 20.7703C49.1172 20.7703 49.8497 20.5846 50.5307 20.2132C51.2324 19.8211 51.7895 19.2433 52.2023 18.4797C52.615 17.7162 52.8214 16.7876 52.8214 15.6938C52.8214 14.0636 52.388 12.8151 51.5213 11.9484C50.6752 11.061 49.6331 10.6173 48.3949 10.6173C47.1567 10.6173 46.1146 11.061 45.2685 11.9484C44.4431 12.8151 44.0303 14.0636 44.0303 15.6938C44.0303 17.3241 44.4327 18.5829 45.2375 19.4703C46.063 20.337 47.0948 20.7703 48.333 20.7703Z" fill="black"/>
<path d="M70.6106 24.2682L64.7912 16.963V24.2682H60.4576V1.36199H64.7912V14.3938L70.5487 7.11949H76.1824L68.6296 15.7248L76.2443 24.2682H70.6106Z" fill="black"/>
<path d="M99.831 6.87186C101.936 6.87186 103.628 7.5219 104.908 8.82198C106.208 10.1014 106.858 11.8968 106.858 14.208V24.2682H102.524V14.7962C102.524 13.4548 102.184 12.4333 101.503 11.7317C100.822 11.0094 99.8929 10.6483 98.7167 10.6483C97.5404 10.6483 96.6015 11.0094 95.8998 11.7317C95.2188 12.4333 94.8783 13.4548 94.8783 14.7962V24.2682H90.5447V14.7962C90.5447 13.4548 90.2042 12.4333 89.5232 11.7317C88.8423 11.0094 87.9136 10.6483 86.7374 10.6483C85.5405 10.6483 84.5912 11.0094 83.8896 11.7317C83.2086 12.4333 82.8681 13.4548 82.8681 14.7962V24.2682H78.5345V7.11949H82.8681V9.19343C83.4253 8.47116 84.1372 7.90367 85.0039 7.49094C85.8913 7.07822 86.8612 6.87186 87.9136 6.87186C89.255 6.87186 90.4519 7.16076 91.5043 7.73858C92.5568 8.29576 93.3719 9.10057 93.9497 10.153C94.5069 9.16248 95.3117 8.36798 96.3642 7.76953C97.4372 7.17108 98.5929 6.87186 99.831 6.87186Z" fill="black"/>
<path d="M127.376 7.11949L116.758 32.3782H112.146L115.861 23.8348L108.989 7.11949H113.849L118.275 19.0988L122.764 7.11949H127.376Z" fill="black"/>
<path d="M131.631 24.4849C130.847 24.4849 130.197 24.2475 129.681 23.7729C129.186 23.2776 128.938 22.6689 128.938 21.9466C128.938 21.2243 129.186 20.6259 129.681 20.1513C130.197 19.656 130.847 19.4084 131.631 19.4084C132.395 19.4084 133.024 19.656 133.519 20.1513C134.015 20.6259 134.262 21.2243 134.262 21.9466C134.262 22.6689 134.015 23.2776 133.519 23.7729C133.024 24.2475 132.395 24.4849 131.631 24.4849Z" fill="black"/>
<path d="M142.086 9.62679C142.643 8.80134 143.407 8.13067 144.377 7.61476C145.367 7.09886 146.492 6.8409 147.751 6.8409C149.216 6.8409 150.537 7.20204 151.713 7.9243C152.91 8.64657 153.849 9.67838 154.53 11.0197C155.232 12.3405 155.582 13.8778 155.582 15.6319C155.582 17.386 155.232 18.944 154.53 20.306C153.849 21.6474 152.91 22.6895 151.713 23.4324C150.537 24.1753 149.216 24.5468 147.751 24.5468C146.472 24.5468 145.347 24.2991 144.377 23.8039C143.428 23.288 142.664 22.6276 142.086 21.8228V24.2682H137.753V1.36199H142.086V9.62679ZM151.156 15.6319C151.156 14.6001 150.939 13.7128 150.506 12.9699C150.093 12.2063 149.536 11.6285 148.834 11.2364C148.153 10.8443 147.41 10.6483 146.606 10.6483C145.821 10.6483 145.079 10.8546 144.377 11.2674C143.696 11.6595 143.139 12.2373 142.705 13.0008C142.293 13.7644 142.086 14.662 142.086 15.6938C142.086 16.7256 142.293 17.6233 142.705 18.3869C143.139 19.1504 143.696 19.7385 144.377 20.1513C145.079 20.5433 145.821 20.7394 146.606 20.7394C147.41 20.7394 148.153 20.533 148.834 20.1203C149.536 19.7076 150.093 19.1194 150.506 18.3559C150.939 17.5924 151.156 16.6844 151.156 15.6319Z" fill="#EF1D26"/>
<path d="M160.929 5.07651C160.166 5.07651 159.526 4.83919 159.01 4.36456C158.515 3.86929 158.267 3.26052 158.267 2.53825C158.267 1.81599 158.515 1.21754 159.01 0.742903C159.526 0.247634 160.166 0 160.929 0C161.693 0 162.322 0.247634 162.817 0.742903C163.333 1.21754 163.591 1.81599 163.591 2.53825C163.591 3.26052 163.333 3.86929 162.817 4.36456C162.322 4.83919 161.693 5.07651 160.929 5.07651ZM163.065 7.11949V24.2682H158.732V7.11949H163.065Z" fill="#EF1D26"/>
<path d="M177.5 24.2682L171.68 16.963V24.2682H167.347V1.36199H171.68V14.3938L177.438 7.11949H183.072L175.519 15.7248L183.133 24.2682H177.5Z" fill="#EF1D26"/>
<path d="M201.365 15.3224C201.365 15.9415 201.324 16.4986 201.241 16.9939H188.705C188.808 18.2321 189.241 19.202 190.005 19.9036C190.768 20.6053 191.707 20.9561 192.822 20.9561C194.431 20.9561 195.577 20.2648 196.258 18.8821H200.932C200.436 20.533 199.487 21.895 198.084 22.9681C196.681 24.0205 194.957 24.5468 192.915 24.5468C191.264 24.5468 189.778 24.1856 188.457 23.4634C187.157 22.7205 186.136 21.6783 185.393 20.337C184.67 18.9956 184.309 17.4479 184.309 15.6938C184.309 13.9191 184.67 12.3611 185.393 11.0197C186.115 9.67838 187.126 8.64657 188.426 7.9243C189.726 7.20204 191.222 6.8409 192.915 6.8409C194.545 6.8409 196 7.19172 197.279 7.89335C198.579 8.59498 199.58 9.59584 200.282 10.8959C201.004 12.1754 201.365 13.6509 201.365 15.3224ZM196.877 14.0842C196.856 12.9699 196.454 12.0825 195.669 11.4221C194.885 10.7411 193.926 10.4006 192.791 10.4006C191.718 10.4006 190.81 10.7308 190.067 11.3912C189.344 12.0309 188.901 12.9286 188.736 14.0842H196.877Z" fill="#EF1D26"/>
</svg>
