<svg width="414" height="67" viewBox="0 0 414 67" fill="none" xmlns="http://www.w3.org/2000/svg">
<path d="M8.90058 19.772C10.0449 18.0767 11.6131 16.6992 13.6052 15.6396C15.6396 14.58 17.9495 14.0502 20.5349 14.0502C23.5442 14.0502 26.2567 14.7919 28.6726 16.2753C31.1309 17.7588 33.0593 19.878 34.458 22.6329C35.899 25.3455 36.6195 28.5031 36.6195 32.1057C36.6195 35.7083 35.899 38.9083 34.458 41.7056C33.0593 44.4605 31.1309 46.6009 28.6726 48.1267C26.2567 49.6525 23.5442 50.4154 20.5349 50.4154C17.9071 50.4154 15.5972 49.9068 13.6052 48.8896C11.6555 47.83 10.0873 46.4738 8.90058 44.8208V49.8433H-2.00896e-06V2.79732H8.90058V19.772ZM27.5282 32.1057C27.5282 29.9865 27.0832 28.164 26.1931 26.6382C25.3455 25.07 24.2011 23.8832 22.7601 23.0779C21.3614 22.2726 19.8356 21.87 18.1826 21.87C16.572 21.87 15.0462 22.2938 13.6052 23.1415C12.2065 23.9468 11.0622 25.1335 10.1721 26.7017C9.32442 28.2699 8.90058 30.1136 8.90058 32.2328C8.90058 34.352 9.32442 36.1957 10.1721 37.7639C11.0622 39.3321 12.2065 40.54 13.6052 41.3877C15.0462 42.193 16.572 42.5956 18.1826 42.5956C19.8356 42.5956 21.3614 42.1718 22.7601 41.3241C24.2011 40.4765 25.3455 39.2685 26.1931 37.7003C27.0832 36.1321 27.5282 34.2672 27.5282 32.1057ZM58.727 50.4154C55.3363 50.4154 52.2846 49.6737 49.5721 48.1903C46.8595 46.6645 44.7191 44.5241 43.1509 41.7692C41.6251 39.0142 40.8622 35.8354 40.8622 32.2328C40.8622 28.6302 41.6463 25.4514 43.2145 22.6965C44.8251 19.9415 47.0079 17.8224 49.7628 16.3389C52.5177 14.8131 55.5906 14.0502 58.9813 14.0502C62.372 14.0502 65.4448 14.8131 68.1997 16.3389C70.9547 17.8224 73.1162 19.9415 74.6844 22.6965C76.295 25.4514 77.1003 28.6302 77.1003 32.2328C77.1003 35.8354 76.2738 39.0142 74.6209 41.7692C73.0103 44.5241 70.8063 46.6645 68.009 48.1903C65.2541 49.6737 62.16 50.4154 58.727 50.4154ZM58.727 42.6592C60.3375 42.6592 61.8422 42.2778 63.2408 41.5149C64.6819 40.7096 65.8262 39.5228 66.6739 37.9546C67.5216 36.3864 67.9454 34.4792 67.9454 32.2328C67.9454 28.8845 67.0554 26.3203 65.2753 24.5402C63.5375 22.7177 61.3971 21.8064 58.8541 21.8064C56.3111 21.8064 54.1707 22.7177 52.433 24.5402C50.7376 26.3203 49.89 28.8845 49.89 32.2328C49.89 35.5811 50.7164 38.1665 52.3694 39.989C54.0648 41.7692 56.1839 42.6592 58.727 42.6592ZM99.2688 50.4154C95.8781 50.4154 92.8265 49.6737 90.1139 48.1903C87.4014 46.6645 85.261 44.5241 83.6928 41.7692C82.167 39.0142 81.4041 35.8354 81.4041 32.2328C81.4041 28.6302 82.1882 25.4514 83.7564 22.6965C85.367 19.9415 87.5497 17.8224 90.3047 16.3389C93.0596 14.8131 96.1324 14.0502 99.5231 14.0502C102.914 14.0502 105.987 14.8131 108.742 16.3389C111.497 17.8224 113.658 19.9415 115.226 22.6965C116.837 25.4514 117.642 28.6302 117.642 32.2328C117.642 35.8354 116.816 39.0142 115.163 41.7692C113.552 44.5241 111.348 46.6645 108.551 48.1903C105.796 49.6737 102.702 50.4154 99.2688 50.4154ZM99.2688 42.6592C100.879 42.6592 102.384 42.2778 103.783 41.5149C105.224 40.7096 106.368 39.5228 107.216 37.9546C108.063 36.3864 108.487 34.4792 108.487 32.2328C108.487 28.8845 107.597 26.3203 105.817 24.5402C104.079 22.7177 101.939 21.8064 99.396 21.8064C96.8529 21.8064 94.7126 22.7177 92.9748 24.5402C91.2795 26.3203 90.4318 28.8845 90.4318 32.2328C90.4318 35.5811 91.2583 38.1665 92.9113 39.989C94.6066 41.7692 96.7258 42.6592 99.2688 42.6592ZM145.024 49.8433L133.072 34.8394V49.8433H124.171V2.79732H133.072V29.5626L144.897 14.6224H156.468L140.955 32.2964L156.595 49.8433H145.024ZM205.038 14.1138C209.361 14.1138 212.837 15.4489 215.465 18.119C218.135 20.7468 219.47 24.4342 219.47 29.1812V49.8433H210.569V30.3891C210.569 27.6342 209.87 25.5362 208.471 24.0951C207.073 22.6117 205.165 21.87 202.75 21.87C200.334 21.87 198.405 22.6117 196.964 24.0951C195.565 25.5362 194.866 27.6342 194.866 30.3891V49.8433H185.966V30.3891C185.966 27.6342 185.266 25.5362 183.868 24.0951C182.469 22.6117 180.562 21.87 178.146 21.87C175.688 21.87 173.738 22.6117 172.297 24.0951C170.898 25.5362 170.199 27.6342 170.199 30.3891V49.8433H161.298V14.6224H170.199V18.8819C171.343 17.3985 172.805 16.233 174.586 15.3853C176.408 14.5376 178.4 14.1138 180.562 14.1138C183.317 14.1138 185.775 14.7071 187.936 15.8939C190.098 17.0383 191.772 18.6912 192.959 20.8528C194.103 18.8184 195.756 17.1866 197.918 15.9575C200.122 14.7283 202.495 14.1138 205.038 14.1138ZM261.611 14.6224L239.805 66.5001H230.332L237.961 48.9532L223.847 14.6224H233.829L242.92 39.2261L252.138 14.6224H261.611ZM270.351 50.2883C268.74 50.2883 267.405 49.8009 266.346 48.8261C265.328 47.8088 264.82 46.5585 264.82 45.0751C264.82 43.5917 265.328 42.3625 266.346 41.3877C267.405 40.3705 268.74 39.8619 270.351 39.8619C271.919 39.8619 273.212 40.3705 274.229 41.3877C275.246 42.3625 275.755 43.5917 275.755 45.0751C275.755 46.5585 275.246 47.8088 274.229 48.8261C273.212 49.8009 271.919 50.2883 270.351 50.2883Z" fill="white"/>
<path d="M291.824 19.772C292.969 18.0767 294.537 16.6992 296.529 15.6396C298.563 14.58 300.873 14.0502 303.459 14.0502C306.468 14.0502 309.181 14.7919 311.596 16.2753C314.055 17.7588 315.983 19.878 317.382 22.6329C318.823 25.3455 319.543 28.5031 319.543 32.1057C319.543 35.7083 318.823 38.9083 317.382 41.7056C315.983 44.4605 314.055 46.6009 311.596 48.1267C309.181 49.6525 306.468 50.4154 303.459 50.4154C300.831 50.4154 298.521 49.9068 296.529 48.8896C294.579 47.83 293.011 46.4738 291.824 44.8208V49.8433H282.924V2.79732H291.824V19.772ZM310.452 32.1057C310.452 29.9865 310.007 28.164 309.117 26.6382C308.269 25.07 307.125 23.8832 305.684 23.0779C304.285 22.2726 302.759 21.87 301.106 21.87C299.496 21.87 297.97 22.2938 296.529 23.1415C295.13 23.9468 293.986 25.1335 293.096 26.7017C292.248 28.2699 291.824 30.1136 291.824 32.2328C291.824 34.352 292.248 36.1957 293.096 37.7639C293.986 39.3321 295.13 40.54 296.529 41.3877C297.97 42.193 299.496 42.5956 301.106 42.5956C302.759 42.5956 304.285 42.1718 305.684 41.3241C307.125 40.4765 308.269 39.2685 309.117 37.7003C310.007 36.1321 310.452 34.2672 310.452 32.1057ZM330.525 10.4264C328.957 10.4264 327.643 9.93898 326.583 8.96415C325.566 7.94694 325.058 6.69662 325.058 5.21319C325.058 3.72976 325.566 2.50063 326.583 1.5258C327.643 0.508594 328.957 -1.09087e-05 330.525 -1.09087e-05C332.093 -1.09087e-05 333.386 0.508594 334.403 1.5258C335.463 2.50063 335.993 3.72976 335.993 5.21319C335.993 6.69662 335.463 7.94694 334.403 8.96415C333.386 9.93898 332.093 10.4264 330.525 10.4264ZM334.912 14.6224V49.8433H326.011V14.6224H334.912ZM364.558 49.8433L352.606 34.8394V49.8433H343.706V2.79732H352.606V29.5626L364.431 14.6224H376.002L360.49 32.2964L376.129 49.8433H364.558ZM413.574 31.4699C413.574 32.7414 413.489 33.8858 413.32 34.903H387.572C387.784 37.446 388.674 39.4381 390.242 40.8791C391.81 42.3201 393.739 43.0407 396.027 43.0407C399.333 43.0407 401.686 41.6208 403.084 38.7811H412.684C411.667 42.1718 409.717 44.9691 406.835 47.1731C403.953 49.3347 400.414 50.4154 396.218 50.4154C392.827 50.4154 389.776 49.6737 387.063 48.1903C384.393 46.6645 382.295 44.5241 380.769 41.7692C379.286 39.0142 378.544 35.8354 378.544 32.2328C378.544 28.5878 379.286 25.3878 380.769 22.6329C382.253 19.878 384.329 17.7588 387 16.2753C389.67 14.7919 392.743 14.0502 396.218 14.0502C399.566 14.0502 402.554 14.7707 405.182 16.2118C407.852 17.6528 409.908 19.7084 411.349 22.3786C412.832 25.0064 413.574 28.0368 413.574 31.4699ZM404.356 28.9269C404.313 26.6382 403.487 24.8157 401.876 23.4594C400.266 22.0607 398.295 21.3614 395.964 21.3614C393.76 21.3614 391.895 22.0395 390.369 23.3958C388.886 24.7097 387.974 26.5534 387.635 28.9269H404.356Z" fill="#EF1D26"/>
</svg>
