<svg xmlns="http://www.w3.org/2000/svg" width="314" height="184" viewBox="0 0 314 184">
<g>
<path d="M 188.57 0.00 L 194.00 0.00 L 194.00 5.50 C194.00,8.52 194.40,11.00 194.89,11.00 C195.39,11.00 197.19,12.31 198.89,13.90 L 202.00 16.80 L 202.00 28.29 C202.00,39.66 202.03,39.79 204.70,41.54 C206.44,42.68 207.53,42.92 207.76,42.21 C208.55,39.85 216.43,31.00 217.74,31.00 C219.55,31.00 226.96,37.15 226.98,38.67 C226.99,39.31 224.76,42.29 222.03,45.28 C217.07,50.70 216.71,52.00 220.14,52.00 C221.15,52.00 222.66,53.37 223.56,55.12 L 225.17 58.24 L 228.84 54.75 C235.16,48.74 240.09,46.00 244.58,46.00 C251.53,46.00 252.50,47.99 252.50,62.19 C252.50,74.08 252.48,74.19 249.69,76.59 C246.26,79.54 244.84,79.58 239.26,76.89 C236.86,75.72 234.72,74.95 234.50,75.17 C234.28,75.39 237.08,80.98 240.73,87.59 L 247.35 99.62 L 255.75 99.18 C263.15,98.79 264.97,99.07 271.14,101.49 C280.48,105.15 288.64,112.66 292.60,121.22 C295.22,126.90 295.50,128.50 295.48,138.00 C295.45,147.57 295.19,149.01 292.55,154.27 C284.72,169.87 270.88,177.96 254.20,176.70 C237.53,175.44 222.84,162.68 218.99,146.12 C216.22,134.20 220.36,119.87 229.37,110.24 L 233.88 105.42 L 228.69 95.22 C225.83,89.61 223.24,85.01 222.93,85.01 C222.61,85.00 219.75,92.99 216.56,102.75 C213.38,112.51 208.75,126.44 206.29,133.70 L 201.80 146.90 L 197.25 147.20 C192.77,147.50 192.68,147.57 191.35,152.15 C190.48,155.14 188.74,157.90 186.47,159.90 C181.87,163.93 178.27,163.94 150.16,160.00 L 128.81 157.01 L 127.15 159.07 C125.55,161.04 125.12,161.08 116.98,159.90 L 108.49 158.67 L 102.49 164.63 C89.72,177.33 72.48,180.45 57.05,172.86 C40.39,164.65 31.18,146.27 35.32,129.48 C38.33,117.29 45.86,108.33 57.88,102.64 C63.94,99.77 65.35,99.50 74.50,99.51 C83.23,99.52 85.23,99.87 90.24,102.20 C93.39,103.67 97.55,106.08 99.49,107.56 C107.50,113.67 114.00,126.75 114.00,136.76 L 114.00 141.58 L 120.43 143.29 C123.96,144.24 127.56,145.28 128.42,145.61 C131.34,146.73 123.09,127.06 116.36,116.85 C107.88,103.99 95.01,94.60 82.22,91.94 C71.49,89.72 57.98,92.61 49.11,99.03 C45.77,101.46 44.02,102.00 39.57,102.00 C36.57,102.00 33.85,101.56 33.52,101.03 C31.56,97.87 40.16,89.22 49.70,84.76 C53.17,83.14 56.00,81.63 56.00,81.42 C56.00,81.20 54.42,80.37 52.50,79.56 C50.58,78.76 49.00,77.41 49.00,76.55 C49.00,75.30 51.19,71.75 56.66,64.12 C57.52,62.91 93.81,67.47 103.78,70.05 C125.94,75.77 137.17,75.15 146.33,67.68 C157.41,58.66 169.11,53.51 181.89,52.04 C190.23,51.08 200.56,52.20 205.13,54.56 C210.63,57.41 210.19,55.52 204.34,51.23 L 198.58 47.00 L 187.85 47.00 C177.99,47.00 176.99,46.82 175.60,44.85 C174.52,43.29 174.37,42.17 175.08,40.85 C175.94,39.24 177.37,39.00 186.07,39.00 L 196.07 39.00 L 195.78 28.83 C195.59,21.80 195.11,18.53 194.25,18.25 C193.51,18.00 193.00,18.70 193.00,19.95 C193.00,22.63 190.30,23.73 188.39,21.82 C187.20,20.62 187.08,18.55 187.75,10.18 L 188.57 0.00 ZM 146.63 80.75 L 147.23 83.00 L 176.05 83.00 C201.52,83.00 205.05,82.81 206.51,81.34 C209.04,78.81 210.00,75.43 210.00,69.01 C210.00,63.86 209.68,62.89 207.36,61.07 C201.52,56.48 190.32,54.93 178.43,57.07 C166.43,59.23 145.98,71.34 146.01,76.27 C146.02,77.50 146.30,79.51 146.63,80.75 ZM 85.91 150.15 C104.38,153.27 120.44,155.85 121.58,155.90 C123.11,155.97 123.94,155.11 124.68,152.68 L 125.70 149.36 L 115.10 146.54 C109.27,144.99 93.42,140.63 79.87,136.86 C65.65,132.90 53.28,130.00 50.60,130.00 C46.53,130.00 45.83,130.32 44.98,132.57 C43.29,136.99 43.88,138.64 48.16,141.61 C51.96,144.25 55.24,144.99 85.91,150.15 ZM 100.50 85.94 C115.68,87.51 138.41,85.99 141.18,83.22 C141.69,82.71 141.84,81.21 141.51,79.89 C140.91,77.51 140.83,77.50 127.20,77.50 C115.40,77.49 111.97,77.10 102.50,74.65 C95.53,72.85 85.64,71.29 75.50,70.38 L 59.50 68.96 L 57.25 71.54 C56.01,72.95 55.00,74.45 55.00,74.86 C55.00,77.29 83.18,84.16 100.50,85.94 ZM 178.07 116.68 C178.88,118.82 179.53,119.00 186.35,119.00 C191.07,119.00 194.12,118.55 194.76,117.75 C196.24,115.89 199.98,98.62 199.10,97.71 C198.67,97.28 193.42,97.06 187.41,97.21 L 176.50 97.50 L 176.84 105.93 C177.03,110.57 177.59,115.41 178.07,116.68 ZM 134.58 114.75 C135.88,116.75 136.87,117.00 143.46,117.00 C147.54,117.00 151.14,116.58 151.46,116.06 C151.78,115.55 152.46,111.84 152.98,107.81 C153.76,101.71 153.67,100.31 152.42,99.36 C150.78,98.12 130.15,98.65 128.70,99.97 C127.90,100.70 131.79,110.48 134.58,114.75 ZM 149.00 152.92 C159.18,154.45 170.50,155.77 174.18,155.85 C180.29,155.99 181.03,155.78 182.93,153.37 C184.07,151.92 185.00,149.89 185.00,148.87 C185.00,147.09 183.67,147.00 157.50,147.00 C133.72,147.00 130.00,147.20 130.00,148.50 C130.00,149.32 130.11,150.03 130.25,150.07 C130.39,150.10 138.82,151.39 149.00,152.92 ZM 236.11 68.50 C242.78,73.42 245.38,74.03 246.96,71.07 C248.52,68.16 248.27,54.75 246.61,52.49 C245.27,50.64 245.12,50.64 241.17,52.42 C236.20,54.66 230.00,60.19 230.00,62.39 C230.00,63.28 232.75,66.03 236.11,68.50 ZM 233.00 145.50 L 234.00 148.14 L 240.91 144.41 C246.58,141.35 247.90,140.17 248.24,137.84 C248.50,136.06 248.06,134.49 247.08,133.64 C244.76,131.64 236.50,127.00 235.26,127.00 C232.51,127.00 230.92,140.02 233.00,145.50 ZM 249.50 161.78 C254.70,163.62 254.82,163.49 255.17,155.45 C255.48,148.38 255.34,147.79 253.07,146.31 C250.77,144.80 250.28,144.90 243.86,148.11 C240.14,149.97 237.07,152.02 237.04,152.66 C236.99,154.14 245.52,160.38 249.50,161.78 ZM 245.49 126.89 C251.06,130.46 251.64,130.63 253.74,129.25 C255.62,128.02 256.01,126.83 256.08,122.13 C256.12,119.04 256.30,115.71 256.49,114.75 C256.98,112.16 251.97,112.47 246.22,115.39 C241.20,117.94 236.84,122.04 238.50,122.67 C239.05,122.87 242.20,124.77 245.49,126.89 ZM 230.83 88.75 C237.71,102.39 240.17,105.32 241.61,101.57 C242.33,99.71 220.13,58.00 218.42,58.00 C215.89,58.00 216.16,59.69 219.88,67.06 C221.95,71.15 226.88,80.91 230.83,88.75 ZM 260.21 155.43 C259.99,161.11 260.24,163.00 261.21,162.99 C263.82,162.97 272.58,158.16 275.32,155.24 L 278.15 152.24 L 271.94 148.47 C265.98,144.84 265.64,144.76 263.12,146.28 C260.72,147.74 260.48,148.49 260.21,155.43 ZM 79.25 129.78 C80.49,130.37 81.72,130.77 82.00,130.66 C86.22,128.97 94.00,124.32 94.00,123.48 C94.00,120.49 84.11,114.00 79.55,114.00 C77.05,114.00 77.00,114.14 77.00,121.35 C77.00,127.98 77.22,128.80 79.25,129.78 ZM 263.25 129.26 C265.32,130.64 265.96,130.53 271.18,127.90 C274.30,126.33 277.11,124.64 277.41,124.14 C278.45,122.47 273.70,117.77 268.58,115.38 C261.08,111.89 261.00,111.95 261.00,120.38 C261.00,126.92 261.26,127.93 263.25,129.26 ZM 64.00 127.65 C70.89,129.97 71.46,129.45 71.79,120.63 L 72.09 112.76 L 69.29 113.44 C64.74,114.54 58.49,117.85 56.06,120.43 L 53.80 122.84 L 57.15 124.66 C58.99,125.65 62.08,127.00 64.00,127.65 ZM 273.70 144.16 C277.11,146.21 279.91,147.30 280.48,146.79 C281.85,145.60 282.31,131.83 281.05,130.00 C280.16,128.71 279.22,128.93 274.26,131.57 C269.42,134.15 268.45,135.13 268.20,137.65 C267.93,140.36 268.48,141.01 273.70,144.16 ZM 61.95 159.15 C64.39,160.72 67.43,162.00 68.70,162.00 C70.79,162.00 71.00,161.55 71.00,157.13 L 71.00 152.26 L 65.75 151.57 C62.86,151.20 59.60,150.68 58.50,150.43 C57.40,150.18 55.84,150.41 55.04,150.93 C53.79,151.74 53.87,152.20 55.54,154.09 C56.62,155.31 59.50,157.58 61.95,159.15 ZM 76.00 158.38 C76.00,162.96 76.05,163.03 78.75,162.37 C85.22,160.81 92.06,156.77 90.20,155.62 C89.73,155.33 86.34,154.78 82.67,154.41 L 76.00 153.72 ZM 255.94 142.66 C260.42,144.89 265.23,140.01 263.12,135.37 C262.29,133.55 261.25,133.00 258.64,133.00 C256.77,133.00 254.71,133.65 254.05,134.44 C252.14,136.74 253.18,141.30 255.94,142.66 ZM 93.00 135.86 C94.93,136.38 96.95,136.69 97.50,136.55 C98.60,136.26 98.36,129.96 97.21,128.81 C96.81,128.41 94.25,129.39 91.52,130.99 C86.35,134.01 86.37,134.06 93.00,135.86 Z" fill="rgb(3,3,3)"/>
<path d="M 0.00 92.00 L 0.00 0.00 L 94.28 0.00 L 188.57 0.00 L 187.75 10.18 C187.08,18.55 187.20,20.62 188.39,21.82 C190.30,23.73 193.00,22.63 193.00,19.95 C193.00,18.70 193.51,18.00 194.25,18.25 C195.11,18.53 195.59,21.80 195.78,28.83 L 196.07 39.00 L 186.07 39.00 C177.37,39.00 175.94,39.24 175.08,40.85 C174.37,42.17 174.52,43.29 175.60,44.85 C176.99,46.82 177.99,47.00 187.85,47.00 L 198.58 47.00 L 204.34 51.23 C210.19,55.52 210.63,57.41 205.13,54.56 C200.56,52.20 190.23,51.08 181.89,52.04 C169.11,53.51 157.41,58.66 146.33,67.68 C137.17,75.15 125.94,75.77 103.78,70.05 C93.81,67.47 57.52,62.91 56.66,64.12 C51.19,71.75 49.00,75.30 49.00,76.55 C49.00,77.41 50.58,78.76 52.50,79.56 C54.42,80.37 56.00,81.20 56.00,81.42 C56.00,81.63 53.17,83.14 49.70,84.76 C40.16,89.22 31.56,97.87 33.52,101.03 C33.85,101.56 36.57,102.00 39.57,102.00 C44.02,102.00 45.77,101.46 49.11,99.03 C57.98,92.61 71.49,89.72 82.22,91.94 C95.01,94.60 107.88,103.99 116.36,116.85 C123.09,127.06 131.34,146.73 128.42,145.61 C127.56,145.28 123.96,144.24 120.43,143.29 L 114.00 141.58 L 114.00 136.76 C114.00,126.75 107.50,113.67 99.49,107.56 C97.55,106.08 93.39,103.67 90.24,102.20 C85.23,99.87 83.23,99.52 74.50,99.51 C65.35,99.50 63.94,99.77 57.88,102.64 C45.86,108.33 38.33,117.29 35.32,129.48 C31.18,146.27 40.39,164.65 57.05,172.86 C72.48,180.45 89.72,177.33 102.49,164.63 L 108.49 158.67 L 116.98 159.90 C125.12,161.08 125.55,161.04 127.15,159.07 L 128.81 157.01 L 150.16 160.00 C178.27,163.94 181.87,163.93 186.47,159.90 C188.74,157.90 190.48,155.14 191.35,152.15 C192.68,147.57 192.77,147.50 197.25,147.20 L 201.80 146.90 L 206.29 133.70 C208.75,126.44 213.38,112.51 216.56,102.75 C219.75,92.99 222.61,85.00 222.93,85.01 C223.24,85.01 225.83,89.61 228.69,95.22 L 233.88 105.42 L 229.37 110.24 C220.36,119.87 216.22,134.20 218.99,146.12 C222.84,162.68 237.53,175.44 254.20,176.70 C270.88,177.96 284.72,169.87 292.55,154.27 C295.19,149.01 295.45,147.57 295.48,138.00 C295.50,128.50 295.22,126.90 292.60,121.22 C288.64,112.66 280.48,105.15 271.14,101.49 C264.97,99.07 263.15,98.79 255.75,99.18 L 247.35 99.62 L 240.73 87.59 C237.08,80.98 234.28,75.39 234.50,75.17 C234.72,74.95 236.86,75.72 239.26,76.89 C244.84,79.58 246.26,79.54 249.69,76.59 C252.48,74.19 252.50,74.08 252.50,62.19 C252.50,47.99 251.53,46.00 244.58,46.00 C240.09,46.00 235.16,48.74 228.84,54.75 L 225.17 58.24 L 223.56 55.12 C222.66,53.37 221.15,52.00 220.14,52.00 C216.71,52.00 217.07,50.70 222.03,45.28 C224.76,42.29 226.99,39.31 226.98,38.67 C226.96,37.15 219.55,31.00 217.74,31.00 C216.43,31.00 208.55,39.85 207.76,42.21 C207.53,42.92 206.44,42.68 204.70,41.54 C202.03,39.79 202.00,39.66 202.00,28.29 L 202.00 16.80 L 198.89 13.90 C197.19,12.31 195.39,11.00 194.89,11.00 C194.40,11.00 194.00,8.52 194.00,5.50 L 194.00 0.00 L 254.00 0.00 L 314.00 0.00 L 314.00 92.00 L 314.00 184.00 L 157.00 184.00 L 0.00 184.00 L 0.00 92.00 ZM 76.00 158.38 L 76.00 153.72 L 82.67 154.41 C86.34,154.78 89.73,155.33 90.20,155.62 C92.06,156.77 85.22,160.81 78.75,162.37 C76.05,163.03 76.00,162.96 76.00,158.38 ZM 249.50 161.78 C245.52,160.38 236.99,154.14 237.04,152.66 C237.07,152.02 240.14,149.97 243.86,148.11 C250.28,144.90 250.77,144.80 253.07,146.31 C255.34,147.79 255.48,148.38 255.17,155.45 C254.82,163.49 254.70,163.62 249.50,161.78 ZM 260.21 155.43 C260.48,148.49 260.72,147.74 263.12,146.28 C265.64,144.76 265.98,144.84 271.94,148.47 L 278.15 152.24 L 275.32 155.24 C272.58,158.16 263.82,162.97 261.21,162.99 C260.24,163.00 259.99,161.11 260.21,155.43 ZM 61.95 159.15 C59.50,157.58 56.62,155.31 55.54,154.09 C53.87,152.20 53.79,151.74 55.04,150.93 C55.84,150.41 57.40,150.18 58.50,150.43 C59.60,150.68 62.86,151.20 65.75,151.57 L 71.00 152.26 L 71.00 157.13 C71.00,161.55 70.79,162.00 68.70,162.00 C67.43,162.00 64.39,160.72 61.95,159.15 ZM 85.91 150.15 C55.24,144.99 51.96,144.25 48.16,141.61 C43.88,138.64 43.29,136.99 44.98,132.57 C45.83,130.32 46.53,130.00 50.60,130.00 C53.28,130.00 65.65,132.90 79.87,136.86 C93.42,140.63 109.27,144.99 115.10,146.54 L 125.70 149.36 L 124.68 152.68 C123.94,155.11 123.11,155.97 121.58,155.90 C120.44,155.85 104.38,153.27 85.91,150.15 ZM 149.00 152.92 C138.82,151.39 130.39,150.10 130.25,150.07 C130.11,150.03 130.00,149.32 130.00,148.50 C130.00,147.20 133.72,147.00 157.50,147.00 C183.67,147.00 185.00,147.09 185.00,148.87 C185.00,149.89 184.07,151.92 182.93,153.37 C181.03,155.78 180.29,155.99 174.18,155.85 C170.50,155.77 159.18,154.45 149.00,152.92 ZM 233.00 145.50 C230.92,140.02 232.51,127.00 235.26,127.00 C236.50,127.00 244.76,131.64 247.08,133.64 C248.06,134.49 248.50,136.06 248.24,137.84 C247.90,140.17 246.58,141.35 240.91,144.41 L 234.00 148.14 L 233.00 145.50 ZM 273.70 144.16 C268.48,141.01 267.93,140.36 268.20,137.65 C268.45,135.13 269.42,134.15 274.26,131.57 C279.22,128.93 280.16,128.71 281.05,130.00 C282.31,131.83 281.85,145.60 280.48,146.79 C279.91,147.30 277.11,146.21 273.70,144.16 ZM 255.94 142.66 C253.18,141.30 252.14,136.74 254.05,134.44 C254.71,133.65 256.77,133.00 258.64,133.00 C261.25,133.00 262.29,133.55 263.12,135.37 C265.23,140.01 260.42,144.89 255.94,142.66 ZM 93.00 135.86 C86.37,134.06 86.35,134.01 91.52,130.99 C94.25,129.39 96.81,128.41 97.21,128.81 C98.36,129.96 98.60,136.26 97.50,136.55 C96.95,136.69 94.93,136.38 93.00,135.86 ZM 79.25 129.78 C77.22,128.80 77.00,127.98 77.00,121.35 C77.00,114.14 77.05,114.00 79.55,114.00 C84.11,114.00 94.00,120.49 94.00,123.48 C94.00,124.32 86.22,128.97 82.00,130.66 C81.72,130.77 80.49,130.37 79.25,129.78 ZM 245.49 126.89 C242.20,124.77 239.05,122.87 238.50,122.67 C236.84,122.04 241.20,117.94 246.22,115.39 C251.97,112.47 256.98,112.16 256.49,114.75 C256.30,115.71 256.12,119.04 256.08,122.13 C256.01,126.83 255.62,128.02 253.74,129.25 C251.64,130.63 251.06,130.46 245.49,126.89 ZM 263.25 129.26 C261.26,127.93 261.00,126.92 261.00,120.38 C261.00,111.95 261.08,111.89 268.58,115.38 C273.70,117.77 278.45,122.47 277.41,124.14 C277.11,124.64 274.30,126.33 271.18,127.90 C265.96,130.53 265.32,130.64 263.25,129.26 ZM 64.00 127.65 C62.08,127.00 58.99,125.65 57.15,124.66 L 53.80 122.84 L 56.06 120.43 C58.49,117.85 64.74,114.54 69.29,113.44 L 72.09 112.76 L 71.79 120.63 C71.46,129.45 70.89,129.97 64.00,127.65 ZM 178.07 116.68 C177.59,115.41 177.03,110.57 176.84,105.93 L 176.50 97.50 L 187.41 97.21 C193.42,97.06 198.67,97.28 199.10,97.71 C199.98,98.62 196.24,115.89 194.76,117.75 C194.12,118.55 191.07,119.00 186.35,119.00 C179.53,119.00 178.88,118.82 178.07,116.68 ZM 134.58 114.75 C131.79,110.48 127.90,100.70 128.70,99.97 C130.15,98.65 150.78,98.12 152.42,99.36 C153.67,100.31 153.76,101.71 152.98,107.81 C152.46,111.84 151.78,115.55 151.46,116.06 C151.14,116.58 147.54,117.00 143.46,117.00 C136.87,117.00 135.88,116.75 134.58,114.75 ZM 230.83 88.75 C226.88,80.91 221.95,71.15 219.88,67.06 C216.16,59.69 215.89,58.00 218.42,58.00 C220.13,58.00 242.33,99.71 241.61,101.57 C240.17,105.32 237.71,102.39 230.83,88.75 ZM 100.50 85.94 C83.18,84.16 55.00,77.29 55.00,74.86 C55.00,74.45 56.01,72.95 57.25,71.54 L 59.50 68.96 L 75.50 70.38 C85.64,71.29 95.53,72.85 102.50,74.65 C111.97,77.10 115.40,77.49 127.20,77.50 C140.83,77.50 140.91,77.51 141.51,79.89 C141.84,81.21 141.69,82.71 141.18,83.22 C138.41,85.99 115.68,87.51 100.50,85.94 ZM 146.63 80.75 C146.30,79.51 146.02,77.50 146.01,76.27 C145.98,71.34 166.43,59.23 178.43,57.07 C190.32,54.93 201.52,56.48 207.36,61.07 C209.68,62.89 210.00,63.86 210.00,69.01 C210.00,75.43 209.04,78.81 206.51,81.34 C205.05,82.81 201.52,83.00 176.05,83.00 L 147.23 83.00 L 146.63 80.75 ZM 236.11 68.50 C232.75,66.03 230.00,63.28 230.00,62.39 C230.00,60.19 236.20,54.66 241.17,52.42 C245.12,50.64 245.27,50.64 246.61,52.49 C248.27,54.75 248.52,68.16 246.96,71.07 C245.38,74.03 242.78,73.42 236.11,68.50 Z" fill="rgb(244,244,244)"/>
</g>
</svg>