<?xml version="1.0" encoding="UTF-8"?>
<svg xmlns="http://www.w3.org/2000/svg" xmlns:xlink="http://www.w3.org/1999/xlink" width="5000" height="5000" viewBox="0 0 5000 5000">
<defs>
<clipPath id="clip-0">
<path clip-rule="nonzero" d="M 325 3945 L 1457 3945 L 1457 4059 L 325 4059 Z M 325 3945 "/>
</clipPath>
<clipPath id="clip-1">
<path clip-rule="nonzero" d="M 891.222656 4058.738281 C 578.828125 4058.738281 325.582031 4033.320312 325.582031 4001.960938 C 325.582031 3970.609375 578.828125 3945.191406 891.222656 3945.191406 C 1203.621094 3945.191406 1456.859375 3970.609375 1456.859375 4001.960938 C 1456.859375 4033.320312 1203.621094 4058.738281 891.222656 4058.738281 "/>
</clipPath>
<clipPath id="clip-2">
<path clip-rule="nonzero" d="M 891.222656 4058.738281 C 578.828125 4058.738281 325.582031 4033.320312 325.582031 4001.960938 C 325.582031 3970.609375 578.828125 3945.191406 891.222656 3945.191406 C 1203.621094 3945.191406 1456.859375 3970.609375 1456.859375 4001.960938 C 1456.859375 4033.320312 1203.621094 4058.738281 891.222656 4058.738281 "/>
</clipPath>
<radialGradient id="radial-pattern-0" gradientUnits="userSpaceOnUse" cx="0" cy="0" fx="0" fy="0" r="306.5507" gradientTransform="matrix(1.827013, 0, 0, 0.172987, 891.224, 4001.96)">
<stop offset="0" stop-color="rgb(14.013672%, 12.445068%, 12.837219%)" stop-opacity="1"/>
<stop offset="0.00390625" stop-color="rgb(14.593506%, 13.024902%, 13.417053%)" stop-opacity="1"/>
<stop offset="0.0078125" stop-color="rgb(15.171814%, 13.60321%, 13.995361%)" stop-opacity="1"/>
<stop offset="0.0117188" stop-color="rgb(15.751648%, 14.183044%, 14.575195%)" stop-opacity="1"/>
<stop offset="0.015625" stop-color="rgb(16.329956%, 14.761353%, 15.153503%)" stop-opacity="1"/>
<stop offset="0.0195312" stop-color="rgb(16.90979%, 15.341187%, 15.733337%)" stop-opacity="1"/>
<stop offset="0.0234375" stop-color="rgb(17.488098%, 15.919495%, 16.311646%)" stop-opacity="1"/>
<stop offset="0.0273438" stop-color="rgb(18.066406%, 16.497803%, 16.889954%)" stop-opacity="1"/>
<stop offset="0.03125" stop-color="rgb(18.64624%, 17.077637%, 17.469788%)" stop-opacity="1"/>
<stop offset="0.0351562" stop-color="rgb(19.224548%, 17.655945%, 18.048096%)" stop-opacity="1"/>
<stop offset="0.0390625" stop-color="rgb(19.804382%, 18.235779%, 18.62793%)" stop-opacity="1"/>
<stop offset="0.0429688" stop-color="rgb(20.38269%, 18.814087%, 19.206238%)" stop-opacity="1"/>
<stop offset="0.046875" stop-color="rgb(20.962524%, 19.393921%, 19.786072%)" stop-opacity="1"/>
<stop offset="0.0507812" stop-color="rgb(21.540833%, 19.972229%, 20.36438%)" stop-opacity="1"/>
<stop offset="0.0546875" stop-color="rgb(22.120667%, 20.552063%, 20.944214%)" stop-opacity="1"/>
<stop offset="0.0585938" stop-color="rgb(22.698975%, 21.130371%, 21.522522%)" stop-opacity="1"/>
<stop offset="0.0625" stop-color="rgb(23.242188%, 21.710205%, 22.102356%)" stop-opacity="1"/>
<stop offset="0.0664062" stop-color="rgb(23.738098%, 22.288513%, 22.680664%)" stop-opacity="1"/>
<stop offset="0.0703125" stop-color="rgb(24.220276%, 22.868347%, 23.260498%)" stop-opacity="1"/>
<stop offset="0.0742188" stop-color="rgb(24.702454%, 23.446655%, 23.838806%)" stop-opacity="1"/>
<stop offset="0.078125" stop-color="rgb(25.218201%, 24.026489%, 24.41864%)" stop-opacity="1"/>
<stop offset="0.0820312" stop-color="rgb(25.78125%, 24.604797%, 24.996948%)" stop-opacity="1"/>
<stop offset="0.0859375" stop-color="rgb(26.361084%, 25.184631%, 25.576782%)" stop-opacity="1"/>
<stop offset="0.0898438" stop-color="rgb(26.939392%, 25.762939%, 26.15509%)" stop-opacity="1"/>
<stop offset="0.09375" stop-color="rgb(27.519226%, 26.312256%, 26.704407%)" stop-opacity="1"/>
<stop offset="0.0976562" stop-color="rgb(28.097534%, 26.81427%, 27.206421%)" stop-opacity="1"/>
<stop offset="0.101562" stop-color="rgb(28.677368%, 27.296448%, 27.688599%)" stop-opacity="1"/>
<stop offset="0.105469" stop-color="rgb(29.255676%, 27.778625%, 28.170776%)" stop-opacity="1"/>
<stop offset="0.109375" stop-color="rgb(29.808044%, 28.288269%, 28.68042%)" stop-opacity="1"/>
<stop offset="0.113281" stop-color="rgb(30.311584%, 28.845215%, 29.237366%)" stop-opacity="1"/>
<stop offset="0.117188" stop-color="rgb(30.795288%, 29.425049%, 29.8172%)" stop-opacity="1"/>
<stop offset="0.121094" stop-color="rgb(31.277466%, 30.003357%, 30.395508%)" stop-opacity="1"/>
<stop offset="0.125" stop-color="rgb(31.784058%, 30.583191%, 30.950928%)" stop-opacity="1"/>
<stop offset="0.128906" stop-color="rgb(32.337952%, 31.161499%, 31.45752%)" stop-opacity="1"/>
<stop offset="0.132812" stop-color="rgb(32.917786%, 31.741333%, 31.941223%)" stop-opacity="1"/>
<stop offset="0.136719" stop-color="rgb(33.496094%, 32.319641%, 32.423401%)" stop-opacity="1"/>
<stop offset="0.140625" stop-color="rgb(34.054565%, 32.878113%, 32.925415%)" stop-opacity="1"/>
<stop offset="0.144531" stop-color="rgb(34.564209%, 33.387756%, 33.477783%)" stop-opacity="1"/>
<stop offset="0.148438" stop-color="rgb(35.047913%, 33.87146%, 34.056091%)" stop-opacity="1"/>
<stop offset="0.152344" stop-color="rgb(35.53009%, 34.353638%, 34.635925%)" stop-opacity="1"/>
<stop offset="0.15625" stop-color="rgb(36.012268%, 34.835815%, 35.197449%)" stop-opacity="1"/>
<stop offset="0.160156" stop-color="rgb(36.494446%, 35.317993%, 35.710144%)" stop-opacity="1"/>
<stop offset="0.164062" stop-color="rgb(36.978149%, 35.801697%, 36.193848%)" stop-opacity="1"/>
<stop offset="0.167969" stop-color="rgb(37.460327%, 36.283875%, 36.676025%)" stop-opacity="1"/>
<stop offset="0.171875" stop-color="rgb(37.956238%, 36.779785%, 37.158203%)" stop-opacity="1"/>
<stop offset="0.175781" stop-color="rgb(38.502502%, 37.32605%, 37.640381%)" stop-opacity="1"/>
<stop offset="0.179688" stop-color="rgb(39.080811%, 37.904358%, 38.122559%)" stop-opacity="1"/>
<stop offset="0.183594" stop-color="rgb(39.660645%, 38.484192%, 38.606262%)" stop-opacity="1"/>
<stop offset="0.1875" stop-color="rgb(40.228271%, 39.051819%, 39.099121%)" stop-opacity="1"/>
<stop offset="0.191406" stop-color="rgb(40.74707%, 39.570618%, 39.642334%)" stop-opacity="1"/>
<stop offset="0.195312" stop-color="rgb(41.229248%, 40.052795%, 40.220642%)" stop-opacity="1"/>
<stop offset="0.199219" stop-color="rgb(41.712952%, 40.536499%, 40.800476%)" stop-opacity="1"/>
<stop offset="0.203125" stop-color="rgb(42.195129%, 41.018677%, 41.371155%)" stop-opacity="1"/>
<stop offset="0.207031" stop-color="rgb(42.677307%, 41.500854%, 41.893005%)" stop-opacity="1"/>
<stop offset="0.210938" stop-color="rgb(43.159485%, 41.983032%, 42.375183%)" stop-opacity="1"/>
<stop offset="0.214844" stop-color="rgb(43.643188%, 42.466736%, 42.858887%)" stop-opacity="1"/>
<stop offset="0.21875" stop-color="rgb(44.125366%, 42.948914%, 43.341064%)" stop-opacity="1"/>
<stop offset="0.222656" stop-color="rgb(44.607544%, 43.431091%, 43.823242%)" stop-opacity="1"/>
<stop offset="0.226562" stop-color="rgb(45.089722%, 43.913269%, 44.30542%)" stop-opacity="1"/>
<stop offset="0.230469" stop-color="rgb(45.573425%, 44.396973%, 44.789124%)" stop-opacity="1"/>
<stop offset="0.234375" stop-color="rgb(46.055603%, 44.87915%, 45.271301%)" stop-opacity="1"/>
<stop offset="0.238281" stop-color="rgb(46.537781%, 45.361328%, 45.753479%)" stop-opacity="1"/>
<stop offset="0.242188" stop-color="rgb(47.019958%, 45.843506%, 46.235657%)" stop-opacity="1"/>
<stop offset="0.246094" stop-color="rgb(47.502136%, 46.325684%, 46.717834%)" stop-opacity="1"/>
<stop offset="0.25" stop-color="rgb(47.98584%, 46.809387%, 47.201538%)" stop-opacity="1"/>
<stop offset="0.253906" stop-color="rgb(48.468018%, 47.291565%, 47.683716%)" stop-opacity="1"/>
<stop offset="0.257812" stop-color="rgb(48.950195%, 47.773743%, 48.165894%)" stop-opacity="1"/>
<stop offset="0.261719" stop-color="rgb(49.432373%, 48.25592%, 48.648071%)" stop-opacity="1"/>
<stop offset="0.265625" stop-color="rgb(49.916077%, 48.739624%, 49.131775%)" stop-opacity="1"/>
<stop offset="0.269531" stop-color="rgb(50.354004%, 49.221802%, 49.613953%)" stop-opacity="1"/>
<stop offset="0.273438" stop-color="rgb(50.743103%, 49.703979%, 50.09613%)" stop-opacity="1"/>
<stop offset="0.277344" stop-color="rgb(51.12915%, 50.186157%, 50.578308%)" stop-opacity="1"/>
<stop offset="0.28125" stop-color="rgb(51.515198%, 50.669861%, 51.062012%)" stop-opacity="1"/>
<stop offset="0.285156" stop-color="rgb(51.942444%, 51.152039%, 51.502991%)" stop-opacity="1"/>
<stop offset="0.289062" stop-color="rgb(52.418518%, 51.634216%, 51.895142%)" stop-opacity="1"/>
<stop offset="0.292969" stop-color="rgb(52.900696%, 52.116394%, 52.281189%)" stop-opacity="1"/>
<stop offset="0.296875" stop-color="rgb(53.384399%, 52.600098%, 52.667236%)" stop-opacity="1"/>
<stop offset="0.300781" stop-color="rgb(53.866577%, 53.082275%, 53.091431%)" stop-opacity="1"/>
<stop offset="0.304688" stop-color="rgb(54.348755%, 53.564453%, 53.564453%)" stop-opacity="1"/>
<stop offset="0.308594" stop-color="rgb(54.830933%, 54.046631%, 54.046631%)" stop-opacity="1"/>
<stop offset="0.3125" stop-color="rgb(55.31311%, 54.528809%, 54.528809%)" stop-opacity="1"/>
<stop offset="0.316406" stop-color="rgb(55.761719%, 54.977417%, 55.012512%)" stop-opacity="1"/>
<stop offset="0.320312" stop-color="rgb(56.159973%, 55.375671%, 55.49469%)" stop-opacity="1"/>
<stop offset="0.324219" stop-color="rgb(56.546021%, 55.761719%, 55.976868%)" stop-opacity="1"/>
<stop offset="0.328125" stop-color="rgb(56.932068%, 56.147766%, 56.459045%)" stop-opacity="1"/>
<stop offset="0.332031" stop-color="rgb(57.350159%, 56.565857%, 56.910706%)" stop-opacity="1"/>
<stop offset="0.335938" stop-color="rgb(57.817078%, 57.032776%, 57.312012%)" stop-opacity="1"/>
<stop offset="0.339844" stop-color="rgb(58.299255%, 57.514954%, 57.698059%)" stop-opacity="1"/>
<stop offset="0.34375" stop-color="rgb(58.781433%, 57.997131%, 58.084106%)" stop-opacity="1"/>
<stop offset="0.347656" stop-color="rgb(59.236145%, 58.451843%, 58.499146%)" stop-opacity="1"/>
<stop offset="0.351562" stop-color="rgb(59.640503%, 58.856201%, 58.963013%)" stop-opacity="1"/>
<stop offset="0.355469" stop-color="rgb(60.02655%, 59.242249%, 59.44519%)" stop-opacity="1"/>
<stop offset="0.359375" stop-color="rgb(60.412598%, 59.628296%, 59.927368%)" stop-opacity="1"/>
<stop offset="0.363281" stop-color="rgb(60.798645%, 60.040283%, 60.385132%)" stop-opacity="1"/>
<stop offset="0.367188" stop-color="rgb(61.184692%, 60.501099%, 60.792542%)" stop-opacity="1"/>
<stop offset="0.371094" stop-color="rgb(61.57074%, 60.983276%, 61.178589%)" stop-opacity="1"/>
<stop offset="0.375" stop-color="rgb(61.956787%, 61.465454%, 61.564636%)" stop-opacity="1"/>
<stop offset="0.378906" stop-color="rgb(62.365723%, 61.924744%, 61.950684%)" stop-opacity="1"/>
<stop offset="0.382812" stop-color="rgb(62.823486%, 62.336731%, 62.336731%)" stop-opacity="1"/>
<stop offset="0.386719" stop-color="rgb(63.305664%, 62.722778%, 62.722778%)" stop-opacity="1"/>
<stop offset="0.390625" stop-color="rgb(63.787842%, 63.108826%, 63.108826%)" stop-opacity="1"/>
<stop offset="0.394531" stop-color="rgb(64.250183%, 63.494873%, 63.494873%)" stop-opacity="1"/>
<stop offset="0.398438" stop-color="rgb(64.665222%, 63.88092%, 63.88092%)" stop-opacity="1"/>
<stop offset="0.402344" stop-color="rgb(65.05127%, 64.266968%, 64.266968%)" stop-opacity="1"/>
<stop offset="0.40625" stop-color="rgb(65.437317%, 64.653015%, 64.653015%)" stop-opacity="1"/>
<stop offset="0.410156" stop-color="rgb(65.823364%, 65.039062%, 65.055847%)" stop-opacity="1"/>
<stop offset="0.414062" stop-color="rgb(66.209412%, 65.423584%, 65.507507%)" stop-opacity="1"/>
<stop offset="0.417969" stop-color="rgb(66.593933%, 65.809631%, 65.989685%)" stop-opacity="1"/>
<stop offset="0.421875" stop-color="rgb(66.97998%, 66.195679%, 66.471863%)" stop-opacity="1"/>
<stop offset="0.425781" stop-color="rgb(67.366028%, 66.581726%, 66.940308%)" stop-opacity="1"/>
<stop offset="0.429688" stop-color="rgb(67.752075%, 66.967773%, 67.359924%)" stop-opacity="1"/>
<stop offset="0.433594" stop-color="rgb(68.138123%, 67.353821%, 67.745972%)" stop-opacity="1"/>
<stop offset="0.4375" stop-color="rgb(68.52417%, 67.739868%, 68.132019%)" stop-opacity="1"/>
<stop offset="0.441406" stop-color="rgb(68.910217%, 68.125916%, 68.518066%)" stop-opacity="1"/>
<stop offset="0.445312" stop-color="rgb(69.296265%, 68.511963%, 68.904114%)" stop-opacity="1"/>
<stop offset="0.449219" stop-color="rgb(69.682312%, 68.89801%, 69.290161%)" stop-opacity="1"/>
<stop offset="0.453125" stop-color="rgb(70.068359%, 69.284058%, 69.676208%)" stop-opacity="1"/>
<stop offset="0.457031" stop-color="rgb(70.446777%, 69.670105%, 70.054626%)" stop-opacity="1"/>
<stop offset="0.460938" stop-color="rgb(70.777893%, 70.056152%, 70.385742%)" stop-opacity="1"/>
<stop offset="0.464844" stop-color="rgb(71.06781%, 70.4422%, 70.675659%)" stop-opacity="1"/>
<stop offset="0.46875" stop-color="rgb(71.357727%, 70.828247%, 70.965576%)" stop-opacity="1"/>
<stop offset="0.472656" stop-color="rgb(71.650696%, 71.214294%, 71.258545%)" stop-opacity="1"/>
<stop offset="0.476562" stop-color="rgb(71.992493%, 71.600342%, 71.600342%)" stop-opacity="1"/>
<stop offset="0.480469" stop-color="rgb(72.37854%, 71.986389%, 71.986389%)" stop-opacity="1"/>
<stop offset="0.484375" stop-color="rgb(72.764587%, 72.372437%, 72.372437%)" stop-opacity="1"/>
<stop offset="0.488281" stop-color="rgb(73.150635%, 72.758484%, 72.758484%)" stop-opacity="1"/>
<stop offset="0.492188" stop-color="rgb(73.536682%, 73.144531%, 73.144531%)" stop-opacity="1"/>
<stop offset="0.496094" stop-color="rgb(73.922729%, 73.530579%, 73.530579%)" stop-opacity="1"/>
<stop offset="0.5" stop-color="rgb(74.308777%, 73.916626%, 73.916626%)" stop-opacity="1"/>
<stop offset="0.503906" stop-color="rgb(74.694824%, 74.302673%, 74.302673%)" stop-opacity="1"/>
<stop offset="0.507812" stop-color="rgb(75.035095%, 74.642944%, 74.642944%)" stop-opacity="1"/>
<stop offset="0.511719" stop-color="rgb(75.326538%, 74.934387%, 74.934387%)" stop-opacity="1"/>
<stop offset="0.515625" stop-color="rgb(75.614929%, 75.222778%, 75.222778%)" stop-opacity="1"/>
<stop offset="0.519531" stop-color="rgb(75.904846%, 75.512695%, 75.512695%)" stop-opacity="1"/>
<stop offset="0.523438" stop-color="rgb(76.237488%, 75.845337%, 75.845337%)" stop-opacity="1"/>
<stop offset="0.527344" stop-color="rgb(76.618958%, 76.226807%, 76.226807%)" stop-opacity="1"/>
<stop offset="0.53125" stop-color="rgb(77.005005%, 76.612854%, 76.612854%)" stop-opacity="1"/>
<stop offset="0.535156" stop-color="rgb(77.391052%, 76.998901%, 76.998901%)" stop-opacity="1"/>
<stop offset="0.539062" stop-color="rgb(77.737427%, 77.345276%, 77.345276%)" stop-opacity="1"/>
<stop offset="0.542969" stop-color="rgb(78.034973%, 77.642822%, 77.642822%)" stop-opacity="1"/>
<stop offset="0.546875" stop-color="rgb(78.323364%, 77.931213%, 77.931213%)" stop-opacity="1"/>
<stop offset="0.550781" stop-color="rgb(78.613281%, 78.22113%, 78.22113%)" stop-opacity="1"/>
<stop offset="0.554688" stop-color="rgb(78.903198%, 78.547668%, 78.547668%)" stop-opacity="1"/>
<stop offset="0.558594" stop-color="rgb(79.193115%, 78.923035%, 78.923035%)" stop-opacity="1"/>
<stop offset="0.5625" stop-color="rgb(79.481506%, 79.309082%, 79.309082%)" stop-opacity="1"/>
<stop offset="0.566406" stop-color="rgb(79.771423%, 79.695129%, 79.695129%)" stop-opacity="1"/>
<stop offset="0.570312" stop-color="rgb(80.09491%, 80.047607%, 80.047607%)" stop-opacity="1"/>
<stop offset="0.574219" stop-color="rgb(80.467224%, 80.351257%, 80.351257%)" stop-opacity="1"/>
<stop offset="0.578125" stop-color="rgb(80.853271%, 80.639648%, 80.639648%)" stop-opacity="1"/>
<stop offset="0.582031" stop-color="rgb(81.239319%, 80.929565%, 80.929565%)" stop-opacity="1"/>
<stop offset="0.585938" stop-color="rgb(81.594849%, 81.219482%, 81.219482%)" stop-opacity="1"/>
<stop offset="0.589844" stop-color="rgb(81.90155%, 81.509399%, 81.509399%)" stop-opacity="1"/>
<stop offset="0.59375" stop-color="rgb(82.189941%, 81.797791%, 81.797791%)" stop-opacity="1"/>
<stop offset="0.597656" stop-color="rgb(82.479858%, 82.087708%, 82.087708%)" stop-opacity="1"/>
<stop offset="0.601562" stop-color="rgb(82.769775%, 82.377625%, 82.377625%)" stop-opacity="1"/>
<stop offset="0.605469" stop-color="rgb(83.059692%, 82.667542%, 82.667542%)" stop-opacity="1"/>
<stop offset="0.609375" stop-color="rgb(83.348083%, 82.955933%, 82.955933%)" stop-opacity="1"/>
<stop offset="0.613281" stop-color="rgb(83.638%, 83.24585%, 83.24585%)" stop-opacity="1"/>
<stop offset="0.617188" stop-color="rgb(83.927917%, 83.535767%, 83.535767%)" stop-opacity="1"/>
<stop offset="0.621094" stop-color="rgb(84.216309%, 83.824158%, 83.824158%)" stop-opacity="1"/>
<stop offset="0.625" stop-color="rgb(84.506226%, 84.114075%, 84.114075%)" stop-opacity="1"/>
<stop offset="0.628906" stop-color="rgb(84.796143%, 84.403992%, 84.403992%)" stop-opacity="1"/>
<stop offset="0.632812" stop-color="rgb(85.08606%, 84.693909%, 84.693909%)" stop-opacity="1"/>
<stop offset="0.636719" stop-color="rgb(85.374451%, 84.9823%, 84.9823%)" stop-opacity="1"/>
<stop offset="0.640625" stop-color="rgb(85.664368%, 85.272217%, 85.272217%)" stop-opacity="1"/>
<stop offset="0.644531" stop-color="rgb(85.954285%, 85.562134%, 85.562134%)" stop-opacity="1"/>
<stop offset="0.648438" stop-color="rgb(86.224365%, 85.852051%, 85.852051%)" stop-opacity="1"/>
<stop offset="0.652344" stop-color="rgb(86.447144%, 86.140442%, 86.140442%)" stop-opacity="1"/>
<stop offset="0.65625" stop-color="rgb(86.639404%, 86.430359%, 86.430359%)" stop-opacity="1"/>
<stop offset="0.660156" stop-color="rgb(86.833191%, 86.720276%, 86.720276%)" stop-opacity="1"/>
<stop offset="0.664062" stop-color="rgb(87.042236%, 86.993408%, 87.010193%)" stop-opacity="1"/>
<stop offset="0.667969" stop-color="rgb(87.298584%, 87.219238%, 87.298584%)" stop-opacity="1"/>
<stop offset="0.671875" stop-color="rgb(87.588501%, 87.411499%, 87.588501%)" stop-opacity="1"/>
<stop offset="0.675781" stop-color="rgb(87.878418%, 87.605286%, 87.878418%)" stop-opacity="1"/>
<stop offset="0.679688" stop-color="rgb(88.168335%, 87.811279%, 88.154602%)" stop-opacity="1"/>
<stop offset="0.683594" stop-color="rgb(88.456726%, 88.064575%, 88.383484%)" stop-opacity="1"/>
<stop offset="0.6875" stop-color="rgb(88.746643%, 88.354492%, 88.575745%)" stop-opacity="1"/>
<stop offset="0.691406" stop-color="rgb(89.03656%, 88.644409%, 88.769531%)" stop-opacity="1"/>
<stop offset="0.695312" stop-color="rgb(89.315796%, 88.934326%, 88.972473%)" stop-opacity="1"/>
<stop offset="0.699219" stop-color="rgb(89.546204%, 89.222717%, 89.222717%)" stop-opacity="1"/>
<stop offset="0.703125" stop-color="rgb(89.73999%, 89.512634%, 89.512634%)" stop-opacity="1"/>
<stop offset="0.707031" stop-color="rgb(89.932251%, 89.802551%, 89.802551%)" stop-opacity="1"/>
<stop offset="0.710938" stop-color="rgb(90.126038%, 90.084839%, 90.084839%)" stop-opacity="1"/>
<stop offset="0.714844" stop-color="rgb(90.414429%, 90.414429%, 90.414429%)" stop-opacity="1"/>
<stop offset="0.722656" stop-color="rgb(90.704346%, 90.704346%, 90.704346%)" stop-opacity="1"/>
<stop offset="0.726562" stop-color="rgb(90.901184%, 90.898132%, 90.898132%)" stop-opacity="1"/>
<stop offset="0.730469" stop-color="rgb(91.146851%, 91.090393%, 91.090393%)" stop-opacity="1"/>
<stop offset="0.734375" stop-color="rgb(91.436768%, 91.28418%, 91.28418%)" stop-opacity="1"/>
<stop offset="0.738281" stop-color="rgb(91.726685%, 91.47644%, 91.47644%)" stop-opacity="1"/>
<stop offset="0.742188" stop-color="rgb(92.015076%, 91.670227%, 91.670227%)" stop-opacity="1"/>
<stop offset="0.746094" stop-color="rgb(92.254639%, 91.862488%, 91.912842%)" stop-opacity="1"/>
<stop offset="0.75" stop-color="rgb(92.448425%, 92.056274%, 92.202759%)" stop-opacity="1"/>
<stop offset="0.753906" stop-color="rgb(92.640686%, 92.248535%, 92.492676%)" stop-opacity="1"/>
<stop offset="0.757812" stop-color="rgb(92.834473%, 92.442322%, 92.781067%)" stop-opacity="1"/>
<stop offset="0.761719" stop-color="rgb(93.026733%, 92.680359%, 93.025208%)" stop-opacity="1"/>
<stop offset="0.765625" stop-color="rgb(93.22052%, 92.96875%, 93.22052%)" stop-opacity="1"/>
<stop offset="0.769531" stop-color="rgb(93.412781%, 93.258667%, 93.412781%)" stop-opacity="1"/>
<stop offset="0.773438" stop-color="rgb(93.606567%, 93.547058%, 93.606567%)" stop-opacity="1"/>
<stop offset="0.777344" stop-color="rgb(93.798828%, 93.79425%, 93.798828%)" stop-opacity="1"/>
<stop offset="0.78125" stop-color="rgb(93.992615%, 93.992615%, 93.992615%)" stop-opacity="1"/>
<stop offset="0.785156" stop-color="rgb(94.184875%, 94.184875%, 94.184875%)" stop-opacity="1"/>
<stop offset="0.789062" stop-color="rgb(94.378662%, 94.378662%, 94.378662%)" stop-opacity="1"/>
<stop offset="0.792969" stop-color="rgb(94.570923%, 94.53125%, 94.53125%)" stop-opacity="1"/>
<stop offset="0.796875" stop-color="rgb(94.764709%, 94.636536%, 94.636536%)" stop-opacity="1"/>
<stop offset="0.800781" stop-color="rgb(94.95697%, 94.732666%, 94.732666%)" stop-opacity="1"/>
<stop offset="0.804688" stop-color="rgb(95.150757%, 94.828796%, 94.828796%)" stop-opacity="1"/>
<stop offset="0.808594" stop-color="rgb(95.306396%, 94.963074%, 94.963074%)" stop-opacity="1"/>
<stop offset="0.8125" stop-color="rgb(95.414734%, 95.144653%, 95.144653%)" stop-opacity="1"/>
<stop offset="0.816406" stop-color="rgb(95.559692%, 95.433044%, 95.433044%)" stop-opacity="1"/>
<stop offset="0.824219" stop-color="rgb(95.834351%, 95.819092%, 95.819092%)" stop-opacity="1"/>
<stop offset="0.832031" stop-color="rgb(96.205139%, 96.205139%, 96.205139%)" stop-opacity="1"/>
<stop offset="0.839844" stop-color="rgb(96.513367%, 96.513367%, 96.513367%)" stop-opacity="1"/>
<stop offset="0.847656" stop-color="rgb(96.723938%, 96.723938%, 96.723938%)" stop-opacity="1"/>
<stop offset="0.855469" stop-color="rgb(96.992493%, 96.992493%, 96.992493%)" stop-opacity="1"/>
<stop offset="0.863281" stop-color="rgb(97.357178%, 97.357178%, 97.357178%)" stop-opacity="1"/>
<stop offset="0.871094" stop-color="rgb(97.671509%, 97.671509%, 97.671509%)" stop-opacity="1"/>
<stop offset="0.878906" stop-color="rgb(97.937012%, 97.937012%, 97.937012%)" stop-opacity="1"/>
<stop offset="0.890625" stop-color="rgb(98.225403%, 98.225403%, 98.225403%)" stop-opacity="1"/>
<stop offset="0.902344" stop-color="rgb(98.51532%, 98.51532%, 98.51532%)" stop-opacity="1"/>
<stop offset="0.914062" stop-color="rgb(98.756409%, 98.756409%, 98.756409%)" stop-opacity="1"/>
<stop offset="0.921875" stop-color="rgb(98.950195%, 98.950195%, 98.950195%)" stop-opacity="1"/>
<stop offset="0.929688" stop-color="rgb(99.238586%, 99.238586%, 99.238586%)" stop-opacity="1"/>
<stop offset="0.945312" stop-color="rgb(99.57428%, 99.57428%, 99.57428%)" stop-opacity="1"/>
<stop offset="0.972656" stop-color="rgb(99.858093%, 99.858093%, 99.858093%)" stop-opacity="1"/>
<stop offset="1" stop-color="rgb(100%, 100%, 100%)" stop-opacity="1"/>
</radialGradient>
<clipPath id="clip-3">
<path clip-rule="nonzero" d="M 3269 3945 L 4487 3945 L 4487 4059 L 3269 4059 Z M 3269 3945 "/>
</clipPath>
<clipPath id="clip-4">
<path clip-rule="nonzero" d="M 3877.890625 4058.738281 C 3541.839844 4058.738281 3269.410156 4033.320312 3269.410156 4001.960938 C 3269.410156 3970.609375 3541.839844 3945.191406 3877.890625 3945.191406 C 4213.949219 3945.191406 4486.378906 3970.609375 4486.378906 4001.960938 C 4486.378906 4033.320312 4213.949219 4058.738281 3877.890625 4058.738281 "/>
</clipPath>
<clipPath id="clip-5">
<path clip-rule="nonzero" d="M 3877.890625 4058.738281 C 3541.839844 4058.738281 3269.410156 4033.320312 3269.410156 4001.960938 C 3269.410156 3970.609375 3541.839844 3945.191406 3877.890625 3945.191406 C 4213.949219 3945.191406 4486.378906 3970.609375 4486.378906 4001.960938 C 4486.378906 4033.320312 4213.949219 4058.738281 3877.890625 4058.738281 "/>
</clipPath>
<radialGradient id="radial-pattern-1" gradientUnits="userSpaceOnUse" cx="0" cy="0" fx="0" fy="0" r="327.7622" gradientTransform="matrix(1.838208, 0, 0, 0.161792, 3877.89, 4001.96)">
<stop offset="0" stop-color="rgb(14.013672%, 12.445068%, 12.837219%)" stop-opacity="1"/>
<stop offset="0.00390625" stop-color="rgb(14.593506%, 13.024902%, 13.417053%)" stop-opacity="1"/>
<stop offset="0.0078125" stop-color="rgb(15.171814%, 13.60321%, 13.995361%)" stop-opacity="1"/>
<stop offset="0.0117188" stop-color="rgb(15.751648%, 14.183044%, 14.575195%)" stop-opacity="1"/>
<stop offset="0.015625" stop-color="rgb(16.329956%, 14.761353%, 15.153503%)" stop-opacity="1"/>
<stop offset="0.0195312" stop-color="rgb(16.90979%, 15.341187%, 15.733337%)" stop-opacity="1"/>
<stop offset="0.0234375" stop-color="rgb(17.488098%, 15.919495%, 16.311646%)" stop-opacity="1"/>
<stop offset="0.0273438" stop-color="rgb(18.066406%, 16.497803%, 16.889954%)" stop-opacity="1"/>
<stop offset="0.03125" stop-color="rgb(18.64624%, 17.077637%, 17.469788%)" stop-opacity="1"/>
<stop offset="0.0351562" stop-color="rgb(19.224548%, 17.655945%, 18.048096%)" stop-opacity="1"/>
<stop offset="0.0390625" stop-color="rgb(19.804382%, 18.235779%, 18.62793%)" stop-opacity="1"/>
<stop offset="0.0429688" stop-color="rgb(20.38269%, 18.814087%, 19.206238%)" stop-opacity="1"/>
<stop offset="0.046875" stop-color="rgb(20.962524%, 19.393921%, 19.786072%)" stop-opacity="1"/>
<stop offset="0.0507812" stop-color="rgb(21.540833%, 19.972229%, 20.36438%)" stop-opacity="1"/>
<stop offset="0.0546875" stop-color="rgb(22.120667%, 20.552063%, 20.944214%)" stop-opacity="1"/>
<stop offset="0.0585938" stop-color="rgb(22.698975%, 21.130371%, 21.522522%)" stop-opacity="1"/>
<stop offset="0.0625" stop-color="rgb(23.242188%, 21.710205%, 22.102356%)" stop-opacity="1"/>
<stop offset="0.0664062" stop-color="rgb(23.738098%, 22.288513%, 22.680664%)" stop-opacity="1"/>
<stop offset="0.0703125" stop-color="rgb(24.220276%, 22.868347%, 23.260498%)" stop-opacity="1"/>
<stop offset="0.0742188" stop-color="rgb(24.702454%, 23.446655%, 23.838806%)" stop-opacity="1"/>
<stop offset="0.078125" stop-color="rgb(25.218201%, 24.026489%, 24.41864%)" stop-opacity="1"/>
<stop offset="0.0820312" stop-color="rgb(25.78125%, 24.604797%, 24.996948%)" stop-opacity="1"/>
<stop offset="0.0859375" stop-color="rgb(26.361084%, 25.184631%, 25.576782%)" stop-opacity="1"/>
<stop offset="0.0898438" stop-color="rgb(26.939392%, 25.762939%, 26.15509%)" stop-opacity="1"/>
<stop offset="0.09375" stop-color="rgb(27.519226%, 26.312256%, 26.704407%)" stop-opacity="1"/>
<stop offset="0.0976562" stop-color="rgb(28.097534%, 26.81427%, 27.206421%)" stop-opacity="1"/>
<stop offset="0.101562" stop-color="rgb(28.677368%, 27.296448%, 27.688599%)" stop-opacity="1"/>
<stop offset="0.105469" stop-color="rgb(29.255676%, 27.778625%, 28.170776%)" stop-opacity="1"/>
<stop offset="0.109375" stop-color="rgb(29.808044%, 28.288269%, 28.68042%)" stop-opacity="1"/>
<stop offset="0.113281" stop-color="rgb(30.311584%, 28.845215%, 29.237366%)" stop-opacity="1"/>
<stop offset="0.117188" stop-color="rgb(30.795288%, 29.425049%, 29.8172%)" stop-opacity="1"/>
<stop offset="0.121094" stop-color="rgb(31.277466%, 30.003357%, 30.395508%)" stop-opacity="1"/>
<stop offset="0.125" stop-color="rgb(31.784058%, 30.583191%, 30.950928%)" stop-opacity="1"/>
<stop offset="0.128906" stop-color="rgb(32.337952%, 31.161499%, 31.45752%)" stop-opacity="1"/>
<stop offset="0.132812" stop-color="rgb(32.917786%, 31.741333%, 31.941223%)" stop-opacity="1"/>
<stop offset="0.136719" stop-color="rgb(33.496094%, 32.319641%, 32.423401%)" stop-opacity="1"/>
<stop offset="0.140625" stop-color="rgb(34.054565%, 32.878113%, 32.925415%)" stop-opacity="1"/>
<stop offset="0.144531" stop-color="rgb(34.564209%, 33.387756%, 33.477783%)" stop-opacity="1"/>
<stop offset="0.148438" stop-color="rgb(35.047913%, 33.87146%, 34.056091%)" stop-opacity="1"/>
<stop offset="0.152344" stop-color="rgb(35.53009%, 34.353638%, 34.635925%)" stop-opacity="1"/>
<stop offset="0.15625" stop-color="rgb(36.012268%, 34.835815%, 35.197449%)" stop-opacity="1"/>
<stop offset="0.160156" stop-color="rgb(36.494446%, 35.317993%, 35.710144%)" stop-opacity="1"/>
<stop offset="0.164062" stop-color="rgb(36.978149%, 35.801697%, 36.193848%)" stop-opacity="1"/>
<stop offset="0.167969" stop-color="rgb(37.460327%, 36.283875%, 36.676025%)" stop-opacity="1"/>
<stop offset="0.171875" stop-color="rgb(37.956238%, 36.779785%, 37.158203%)" stop-opacity="1"/>
<stop offset="0.175781" stop-color="rgb(38.502502%, 37.32605%, 37.640381%)" stop-opacity="1"/>
<stop offset="0.179688" stop-color="rgb(39.080811%, 37.904358%, 38.122559%)" stop-opacity="1"/>
<stop offset="0.183594" stop-color="rgb(39.660645%, 38.484192%, 38.606262%)" stop-opacity="1"/>
<stop offset="0.1875" stop-color="rgb(40.228271%, 39.051819%, 39.099121%)" stop-opacity="1"/>
<stop offset="0.191406" stop-color="rgb(40.74707%, 39.570618%, 39.642334%)" stop-opacity="1"/>
<stop offset="0.195312" stop-color="rgb(41.229248%, 40.052795%, 40.220642%)" stop-opacity="1"/>
<stop offset="0.199219" stop-color="rgb(41.712952%, 40.536499%, 40.800476%)" stop-opacity="1"/>
<stop offset="0.203125" stop-color="rgb(42.195129%, 41.018677%, 41.371155%)" stop-opacity="1"/>
<stop offset="0.207031" stop-color="rgb(42.677307%, 41.500854%, 41.893005%)" stop-opacity="1"/>
<stop offset="0.210938" stop-color="rgb(43.159485%, 41.983032%, 42.375183%)" stop-opacity="1"/>
<stop offset="0.214844" stop-color="rgb(43.643188%, 42.466736%, 42.858887%)" stop-opacity="1"/>
<stop offset="0.21875" stop-color="rgb(44.125366%, 42.948914%, 43.341064%)" stop-opacity="1"/>
<stop offset="0.222656" stop-color="rgb(44.607544%, 43.431091%, 43.823242%)" stop-opacity="1"/>
<stop offset="0.226562" stop-color="rgb(45.089722%, 43.913269%, 44.30542%)" stop-opacity="1"/>
<stop offset="0.230469" stop-color="rgb(45.573425%, 44.396973%, 44.789124%)" stop-opacity="1"/>
<stop offset="0.234375" stop-color="rgb(46.055603%, 44.87915%, 45.271301%)" stop-opacity="1"/>
<stop offset="0.238281" stop-color="rgb(46.537781%, 45.361328%, 45.753479%)" stop-opacity="1"/>
<stop offset="0.242188" stop-color="rgb(47.019958%, 45.843506%, 46.235657%)" stop-opacity="1"/>
<stop offset="0.246094" stop-color="rgb(47.502136%, 46.325684%, 46.717834%)" stop-opacity="1"/>
<stop offset="0.25" stop-color="rgb(47.98584%, 46.809387%, 47.201538%)" stop-opacity="1"/>
<stop offset="0.253906" stop-color="rgb(48.468018%, 47.291565%, 47.683716%)" stop-opacity="1"/>
<stop offset="0.257812" stop-color="rgb(48.950195%, 47.773743%, 48.165894%)" stop-opacity="1"/>
<stop offset="0.261719" stop-color="rgb(49.432373%, 48.25592%, 48.648071%)" stop-opacity="1"/>
<stop offset="0.265625" stop-color="rgb(49.916077%, 48.739624%, 49.131775%)" stop-opacity="1"/>
<stop offset="0.269531" stop-color="rgb(50.354004%, 49.221802%, 49.613953%)" stop-opacity="1"/>
<stop offset="0.273438" stop-color="rgb(50.743103%, 49.703979%, 50.09613%)" stop-opacity="1"/>
<stop offset="0.277344" stop-color="rgb(51.12915%, 50.186157%, 50.578308%)" stop-opacity="1"/>
<stop offset="0.28125" stop-color="rgb(51.515198%, 50.669861%, 51.062012%)" stop-opacity="1"/>
<stop offset="0.285156" stop-color="rgb(51.942444%, 51.152039%, 51.502991%)" stop-opacity="1"/>
<stop offset="0.289062" stop-color="rgb(52.418518%, 51.634216%, 51.895142%)" stop-opacity="1"/>
<stop offset="0.292969" stop-color="rgb(52.900696%, 52.116394%, 52.281189%)" stop-opacity="1"/>
<stop offset="0.296875" stop-color="rgb(53.384399%, 52.600098%, 52.667236%)" stop-opacity="1"/>
<stop offset="0.300781" stop-color="rgb(53.866577%, 53.082275%, 53.091431%)" stop-opacity="1"/>
<stop offset="0.304688" stop-color="rgb(54.348755%, 53.564453%, 53.564453%)" stop-opacity="1"/>
<stop offset="0.308594" stop-color="rgb(54.830933%, 54.046631%, 54.046631%)" stop-opacity="1"/>
<stop offset="0.3125" stop-color="rgb(55.31311%, 54.528809%, 54.528809%)" stop-opacity="1"/>
<stop offset="0.316406" stop-color="rgb(55.761719%, 54.977417%, 55.012512%)" stop-opacity="1"/>
<stop offset="0.320312" stop-color="rgb(56.159973%, 55.375671%, 55.49469%)" stop-opacity="1"/>
<stop offset="0.324219" stop-color="rgb(56.546021%, 55.761719%, 55.976868%)" stop-opacity="1"/>
<stop offset="0.328125" stop-color="rgb(56.932068%, 56.147766%, 56.459045%)" stop-opacity="1"/>
<stop offset="0.332031" stop-color="rgb(57.350159%, 56.565857%, 56.910706%)" stop-opacity="1"/>
<stop offset="0.335938" stop-color="rgb(57.817078%, 57.032776%, 57.312012%)" stop-opacity="1"/>
<stop offset="0.339844" stop-color="rgb(58.299255%, 57.514954%, 57.698059%)" stop-opacity="1"/>
<stop offset="0.34375" stop-color="rgb(58.781433%, 57.997131%, 58.084106%)" stop-opacity="1"/>
<stop offset="0.347656" stop-color="rgb(59.236145%, 58.451843%, 58.499146%)" stop-opacity="1"/>
<stop offset="0.351562" stop-color="rgb(59.640503%, 58.856201%, 58.963013%)" stop-opacity="1"/>
<stop offset="0.355469" stop-color="rgb(60.02655%, 59.242249%, 59.44519%)" stop-opacity="1"/>
<stop offset="0.359375" stop-color="rgb(60.412598%, 59.628296%, 59.927368%)" stop-opacity="1"/>
<stop offset="0.363281" stop-color="rgb(60.798645%, 60.040283%, 60.385132%)" stop-opacity="1"/>
<stop offset="0.367188" stop-color="rgb(61.184692%, 60.501099%, 60.792542%)" stop-opacity="1"/>
<stop offset="0.371094" stop-color="rgb(61.57074%, 60.983276%, 61.178589%)" stop-opacity="1"/>
<stop offset="0.375" stop-color="rgb(61.956787%, 61.465454%, 61.564636%)" stop-opacity="1"/>
<stop offset="0.378906" stop-color="rgb(62.365723%, 61.924744%, 61.950684%)" stop-opacity="1"/>
<stop offset="0.382812" stop-color="rgb(62.823486%, 62.336731%, 62.336731%)" stop-opacity="1"/>
<stop offset="0.386719" stop-color="rgb(63.305664%, 62.722778%, 62.722778%)" stop-opacity="1"/>
<stop offset="0.390625" stop-color="rgb(63.787842%, 63.108826%, 63.108826%)" stop-opacity="1"/>
<stop offset="0.394531" stop-color="rgb(64.250183%, 63.494873%, 63.494873%)" stop-opacity="1"/>
<stop offset="0.398438" stop-color="rgb(64.665222%, 63.88092%, 63.88092%)" stop-opacity="1"/>
<stop offset="0.402344" stop-color="rgb(65.05127%, 64.266968%, 64.266968%)" stop-opacity="1"/>
<stop offset="0.40625" stop-color="rgb(65.437317%, 64.653015%, 64.653015%)" stop-opacity="1"/>
<stop offset="0.410156" stop-color="rgb(65.823364%, 65.039062%, 65.055847%)" stop-opacity="1"/>
<stop offset="0.414062" stop-color="rgb(66.209412%, 65.423584%, 65.507507%)" stop-opacity="1"/>
<stop offset="0.417969" stop-color="rgb(66.593933%, 65.809631%, 65.989685%)" stop-opacity="1"/>
<stop offset="0.421875" stop-color="rgb(66.97998%, 66.195679%, 66.471863%)" stop-opacity="1"/>
<stop offset="0.425781" stop-color="rgb(67.366028%, 66.581726%, 66.940308%)" stop-opacity="1"/>
<stop offset="0.429688" stop-color="rgb(67.752075%, 66.967773%, 67.359924%)" stop-opacity="1"/>
<stop offset="0.433594" stop-color="rgb(68.138123%, 67.353821%, 67.745972%)" stop-opacity="1"/>
<stop offset="0.4375" stop-color="rgb(68.52417%, 67.739868%, 68.132019%)" stop-opacity="1"/>
<stop offset="0.441406" stop-color="rgb(68.910217%, 68.125916%, 68.518066%)" stop-opacity="1"/>
<stop offset="0.445312" stop-color="rgb(69.296265%, 68.511963%, 68.904114%)" stop-opacity="1"/>
<stop offset="0.449219" stop-color="rgb(69.682312%, 68.89801%, 69.290161%)" stop-opacity="1"/>
<stop offset="0.453125" stop-color="rgb(70.068359%, 69.284058%, 69.676208%)" stop-opacity="1"/>
<stop offset="0.457031" stop-color="rgb(70.446777%, 69.670105%, 70.054626%)" stop-opacity="1"/>
<stop offset="0.460938" stop-color="rgb(70.777893%, 70.056152%, 70.385742%)" stop-opacity="1"/>
<stop offset="0.464844" stop-color="rgb(71.06781%, 70.4422%, 70.675659%)" stop-opacity="1"/>
<stop offset="0.46875" stop-color="rgb(71.357727%, 70.828247%, 70.965576%)" stop-opacity="1"/>
<stop offset="0.472656" stop-color="rgb(71.650696%, 71.214294%, 71.258545%)" stop-opacity="1"/>
<stop offset="0.476562" stop-color="rgb(71.992493%, 71.600342%, 71.600342%)" stop-opacity="1"/>
<stop offset="0.480469" stop-color="rgb(72.37854%, 71.986389%, 71.986389%)" stop-opacity="1"/>
<stop offset="0.484375" stop-color="rgb(72.764587%, 72.372437%, 72.372437%)" stop-opacity="1"/>
<stop offset="0.488281" stop-color="rgb(73.150635%, 72.758484%, 72.758484%)" stop-opacity="1"/>
<stop offset="0.492188" stop-color="rgb(73.536682%, 73.144531%, 73.144531%)" stop-opacity="1"/>
<stop offset="0.496094" stop-color="rgb(73.922729%, 73.530579%, 73.530579%)" stop-opacity="1"/>
<stop offset="0.5" stop-color="rgb(74.308777%, 73.916626%, 73.916626%)" stop-opacity="1"/>
<stop offset="0.503906" stop-color="rgb(74.694824%, 74.302673%, 74.302673%)" stop-opacity="1"/>
<stop offset="0.507812" stop-color="rgb(75.035095%, 74.642944%, 74.642944%)" stop-opacity="1"/>
<stop offset="0.511719" stop-color="rgb(75.326538%, 74.934387%, 74.934387%)" stop-opacity="1"/>
<stop offset="0.515625" stop-color="rgb(75.614929%, 75.222778%, 75.222778%)" stop-opacity="1"/>
<stop offset="0.519531" stop-color="rgb(75.904846%, 75.512695%, 75.512695%)" stop-opacity="1"/>
<stop offset="0.523438" stop-color="rgb(76.237488%, 75.845337%, 75.845337%)" stop-opacity="1"/>
<stop offset="0.527344" stop-color="rgb(76.618958%, 76.226807%, 76.226807%)" stop-opacity="1"/>
<stop offset="0.53125" stop-color="rgb(77.005005%, 76.612854%, 76.612854%)" stop-opacity="1"/>
<stop offset="0.535156" stop-color="rgb(77.391052%, 76.998901%, 76.998901%)" stop-opacity="1"/>
<stop offset="0.539062" stop-color="rgb(77.737427%, 77.345276%, 77.345276%)" stop-opacity="1"/>
<stop offset="0.542969" stop-color="rgb(78.034973%, 77.642822%, 77.642822%)" stop-opacity="1"/>
<stop offset="0.546875" stop-color="rgb(78.323364%, 77.931213%, 77.931213%)" stop-opacity="1"/>
<stop offset="0.550781" stop-color="rgb(78.613281%, 78.22113%, 78.22113%)" stop-opacity="1"/>
<stop offset="0.554688" stop-color="rgb(78.903198%, 78.547668%, 78.547668%)" stop-opacity="1"/>
<stop offset="0.558594" stop-color="rgb(79.193115%, 78.923035%, 78.923035%)" stop-opacity="1"/>
<stop offset="0.5625" stop-color="rgb(79.481506%, 79.309082%, 79.309082%)" stop-opacity="1"/>
<stop offset="0.566406" stop-color="rgb(79.771423%, 79.695129%, 79.695129%)" stop-opacity="1"/>
<stop offset="0.570312" stop-color="rgb(80.09491%, 80.047607%, 80.047607%)" stop-opacity="1"/>
<stop offset="0.574219" stop-color="rgb(80.467224%, 80.351257%, 80.351257%)" stop-opacity="1"/>
<stop offset="0.578125" stop-color="rgb(80.853271%, 80.639648%, 80.639648%)" stop-opacity="1"/>
<stop offset="0.582031" stop-color="rgb(81.239319%, 80.929565%, 80.929565%)" stop-opacity="1"/>
<stop offset="0.585938" stop-color="rgb(81.594849%, 81.219482%, 81.219482%)" stop-opacity="1"/>
<stop offset="0.589844" stop-color="rgb(81.90155%, 81.509399%, 81.509399%)" stop-opacity="1"/>
<stop offset="0.59375" stop-color="rgb(82.189941%, 81.797791%, 81.797791%)" stop-opacity="1"/>
<stop offset="0.597656" stop-color="rgb(82.479858%, 82.087708%, 82.087708%)" stop-opacity="1"/>
<stop offset="0.601562" stop-color="rgb(82.769775%, 82.377625%, 82.377625%)" stop-opacity="1"/>
<stop offset="0.605469" stop-color="rgb(83.059692%, 82.667542%, 82.667542%)" stop-opacity="1"/>
<stop offset="0.609375" stop-color="rgb(83.348083%, 82.955933%, 82.955933%)" stop-opacity="1"/>
<stop offset="0.613281" stop-color="rgb(83.638%, 83.24585%, 83.24585%)" stop-opacity="1"/>
<stop offset="0.617188" stop-color="rgb(83.927917%, 83.535767%, 83.535767%)" stop-opacity="1"/>
<stop offset="0.621094" stop-color="rgb(84.216309%, 83.824158%, 83.824158%)" stop-opacity="1"/>
<stop offset="0.625" stop-color="rgb(84.506226%, 84.114075%, 84.114075%)" stop-opacity="1"/>
<stop offset="0.628906" stop-color="rgb(84.796143%, 84.403992%, 84.403992%)" stop-opacity="1"/>
<stop offset="0.632812" stop-color="rgb(85.08606%, 84.693909%, 84.693909%)" stop-opacity="1"/>
<stop offset="0.636719" stop-color="rgb(85.374451%, 84.9823%, 84.9823%)" stop-opacity="1"/>
<stop offset="0.640625" stop-color="rgb(85.664368%, 85.272217%, 85.272217%)" stop-opacity="1"/>
<stop offset="0.644531" stop-color="rgb(85.954285%, 85.562134%, 85.562134%)" stop-opacity="1"/>
<stop offset="0.648438" stop-color="rgb(86.224365%, 85.852051%, 85.852051%)" stop-opacity="1"/>
<stop offset="0.652344" stop-color="rgb(86.447144%, 86.140442%, 86.140442%)" stop-opacity="1"/>
<stop offset="0.65625" stop-color="rgb(86.639404%, 86.430359%, 86.430359%)" stop-opacity="1"/>
<stop offset="0.660156" stop-color="rgb(86.833191%, 86.720276%, 86.720276%)" stop-opacity="1"/>
<stop offset="0.664062" stop-color="rgb(87.042236%, 86.993408%, 87.010193%)" stop-opacity="1"/>
<stop offset="0.667969" stop-color="rgb(87.298584%, 87.219238%, 87.298584%)" stop-opacity="1"/>
<stop offset="0.671875" stop-color="rgb(87.588501%, 87.411499%, 87.588501%)" stop-opacity="1"/>
<stop offset="0.675781" stop-color="rgb(87.878418%, 87.605286%, 87.878418%)" stop-opacity="1"/>
<stop offset="0.679688" stop-color="rgb(88.168335%, 87.811279%, 88.154602%)" stop-opacity="1"/>
<stop offset="0.683594" stop-color="rgb(88.456726%, 88.064575%, 88.383484%)" stop-opacity="1"/>
<stop offset="0.6875" stop-color="rgb(88.746643%, 88.354492%, 88.575745%)" stop-opacity="1"/>
<stop offset="0.691406" stop-color="rgb(89.03656%, 88.644409%, 88.769531%)" stop-opacity="1"/>
<stop offset="0.695312" stop-color="rgb(89.315796%, 88.934326%, 88.972473%)" stop-opacity="1"/>
<stop offset="0.699219" stop-color="rgb(89.546204%, 89.222717%, 89.222717%)" stop-opacity="1"/>
<stop offset="0.703125" stop-color="rgb(89.73999%, 89.512634%, 89.512634%)" stop-opacity="1"/>
<stop offset="0.707031" stop-color="rgb(89.932251%, 89.802551%, 89.802551%)" stop-opacity="1"/>
<stop offset="0.710938" stop-color="rgb(90.126038%, 90.084839%, 90.084839%)" stop-opacity="1"/>
<stop offset="0.714844" stop-color="rgb(90.414429%, 90.414429%, 90.414429%)" stop-opacity="1"/>
<stop offset="0.722656" stop-color="rgb(90.704346%, 90.704346%, 90.704346%)" stop-opacity="1"/>
<stop offset="0.726562" stop-color="rgb(90.901184%, 90.898132%, 90.898132%)" stop-opacity="1"/>
<stop offset="0.730469" stop-color="rgb(91.146851%, 91.090393%, 91.090393%)" stop-opacity="1"/>
<stop offset="0.734375" stop-color="rgb(91.436768%, 91.28418%, 91.28418%)" stop-opacity="1"/>
<stop offset="0.738281" stop-color="rgb(91.726685%, 91.47644%, 91.47644%)" stop-opacity="1"/>
<stop offset="0.742188" stop-color="rgb(92.015076%, 91.670227%, 91.670227%)" stop-opacity="1"/>
<stop offset="0.746094" stop-color="rgb(92.254639%, 91.862488%, 91.912842%)" stop-opacity="1"/>
<stop offset="0.75" stop-color="rgb(92.448425%, 92.056274%, 92.202759%)" stop-opacity="1"/>
<stop offset="0.753906" stop-color="rgb(92.640686%, 92.248535%, 92.492676%)" stop-opacity="1"/>
<stop offset="0.757812" stop-color="rgb(92.834473%, 92.442322%, 92.781067%)" stop-opacity="1"/>
<stop offset="0.761719" stop-color="rgb(93.026733%, 92.680359%, 93.025208%)" stop-opacity="1"/>
<stop offset="0.765625" stop-color="rgb(93.22052%, 92.96875%, 93.22052%)" stop-opacity="1"/>
<stop offset="0.769531" stop-color="rgb(93.412781%, 93.258667%, 93.412781%)" stop-opacity="1"/>
<stop offset="0.773438" stop-color="rgb(93.606567%, 93.547058%, 93.606567%)" stop-opacity="1"/>
<stop offset="0.777344" stop-color="rgb(93.798828%, 93.79425%, 93.798828%)" stop-opacity="1"/>
<stop offset="0.78125" stop-color="rgb(93.992615%, 93.992615%, 93.992615%)" stop-opacity="1"/>
<stop offset="0.785156" stop-color="rgb(94.184875%, 94.184875%, 94.184875%)" stop-opacity="1"/>
<stop offset="0.789062" stop-color="rgb(94.378662%, 94.378662%, 94.378662%)" stop-opacity="1"/>
<stop offset="0.792969" stop-color="rgb(94.570923%, 94.53125%, 94.53125%)" stop-opacity="1"/>
<stop offset="0.796875" stop-color="rgb(94.764709%, 94.636536%, 94.636536%)" stop-opacity="1"/>
<stop offset="0.800781" stop-color="rgb(94.95697%, 94.732666%, 94.732666%)" stop-opacity="1"/>
<stop offset="0.804688" stop-color="rgb(95.150757%, 94.828796%, 94.828796%)" stop-opacity="1"/>
<stop offset="0.808594" stop-color="rgb(95.306396%, 94.963074%, 94.963074%)" stop-opacity="1"/>
<stop offset="0.8125" stop-color="rgb(95.414734%, 95.144653%, 95.144653%)" stop-opacity="1"/>
<stop offset="0.816406" stop-color="rgb(95.559692%, 95.433044%, 95.433044%)" stop-opacity="1"/>
<stop offset="0.824219" stop-color="rgb(95.834351%, 95.819092%, 95.819092%)" stop-opacity="1"/>
<stop offset="0.832031" stop-color="rgb(96.205139%, 96.205139%, 96.205139%)" stop-opacity="1"/>
<stop offset="0.839844" stop-color="rgb(96.513367%, 96.513367%, 96.513367%)" stop-opacity="1"/>
<stop offset="0.847656" stop-color="rgb(96.723938%, 96.723938%, 96.723938%)" stop-opacity="1"/>
<stop offset="0.855469" stop-color="rgb(96.992493%, 96.992493%, 96.992493%)" stop-opacity="1"/>
<stop offset="0.863281" stop-color="rgb(97.357178%, 97.357178%, 97.357178%)" stop-opacity="1"/>
<stop offset="0.871094" stop-color="rgb(97.671509%, 97.671509%, 97.671509%)" stop-opacity="1"/>
<stop offset="0.878906" stop-color="rgb(97.937012%, 97.937012%, 97.937012%)" stop-opacity="1"/>
<stop offset="0.890625" stop-color="rgb(98.225403%, 98.225403%, 98.225403%)" stop-opacity="1"/>
<stop offset="0.902344" stop-color="rgb(98.51532%, 98.51532%, 98.51532%)" stop-opacity="1"/>
<stop offset="0.914062" stop-color="rgb(98.756409%, 98.756409%, 98.756409%)" stop-opacity="1"/>
<stop offset="0.921875" stop-color="rgb(98.950195%, 98.950195%, 98.950195%)" stop-opacity="1"/>
<stop offset="0.929688" stop-color="rgb(99.238586%, 99.238586%, 99.238586%)" stop-opacity="1"/>
<stop offset="0.945312" stop-color="rgb(99.57428%, 99.57428%, 99.57428%)" stop-opacity="1"/>
<stop offset="0.972656" stop-color="rgb(99.858093%, 99.858093%, 99.858093%)" stop-opacity="1"/>
<stop offset="1" stop-color="rgb(100%, 100%, 100%)" stop-opacity="1"/>
</radialGradient>
</defs>
<!-- removed white background rect -->
<g clip-path="url(#clip-0)">
<g clip-path="url(#clip-1)">
<g clip-path="url(#clip-2)">
<path fill-rule="nonzero" fill="url(#radial-pattern-0)" d="M 325.582031 3945.191406 L 325.582031 4058.738281 L 1456.859375 4058.738281 L 1456.859375 3945.191406 Z M 325.582031 3945.191406 "/>
</g>
</g>
</g>
<g clip-path="url(#clip-3)">
<g clip-path="url(#clip-4)">
<g clip-path="url(#clip-5)">
<path fill-rule="nonzero" fill="url(#radial-pattern-1)" d="M 3269.410156 3945.191406 L 3269.410156 4058.738281 L 4486.378906 4058.738281 L 4486.378906 3945.191406 Z M 3269.410156 3945.191406 "/>
</g>
</g>
</g>
<path fill-rule="nonzero" fill="rgb(94.921875%, 54.101562%, 18.041992%)" fill-opacity="1" d="M 3826.21875 3332.628906 C 3874.351562 3332.628906 3913.351562 3371.628906 3913.351562 3419.75 C 3913.351562 3467.828125 3874.351562 3506.828125 3826.21875 3506.828125 C 3778.101562 3506.828125 3739.101562 3467.828125 3739.101562 3419.75 C 3739.101562 3371.628906 3778.101562 3332.628906 3826.21875 3332.628906 Z M 4502.601562 2790.078125 L 4452.851562 2363.710938 C 4361.640625 2368.460938 4166.058594 2378.578125 4046.679688 2384.210938 C 3995.851562 2386.578125 3958.851562 2388.171875 3949.601562 2388.171875 C 3927.390625 2388.171875 3884.851562 2375.078125 3849.601562 2348.539062 C 3821.351562 2352.75 3792.851562 2357.539062 3764.308594 2363.039062 C 3764.308594 2363.039062 3654.519531 2386.578125 3411.390625 2467 C 3276.429688 2511.628906 3171.679688 2555.628906 3105.21875 2585.960938 C 3051.890625 2610.289062 3023.140625 2625.789062 3023.140625 2625.789062 C 2748.71875 2759.421875 2598.429688 3060.460938 2552.890625 3165.378906 C 2543.269531 3187.539062 2522.558594 3202.921875 2498.558594 3205.671875 C 2288.96875 3229.578125 2217.429688 3337.171875 2194.101562 3393.328125 C 2185.429688 3414.210938 2165.019531 3427.75 2142.429688 3427.75 L 1548.640625 3427.75 C 1548.640625 3427.75 1729.019531 3678.75 2309.429688 3665.039062 C 2309.429688 3665.039062 2342.21875 3681.210938 2388.558594 3687.289062 L 2388.558594 3654.539062 C 2300.269531 3640.828125 2232.679688 3564.5 2232.679688 3472.378906 C 2232.679688 3370.578125 2315.21875 3288.039062 2417.019531 3288.039062 C 2518.808594 3288.039062 2601.351562 3370.578125 2601.351562 3472.378906 C 2601.351562 3565.078125 2532.851562 3641.828125 2443.71875 3654.789062 L 2443.71875 3688.671875 C 2480.96875 3685.378906 2521.351562 3672.628906 2558.429688 3641.5 C 2600.71875 3606.039062 2655.179688 3569.960938 2717.269531 3539.039062 C 2816.46875 3489.578125 2935.101562 3453.25 3054.519531 3453.25 C 3113.890625 3453.25 3178.179688 3453.789062 3242.519531 3456.539062 C 3285.351562 3458.328125 3328.21875 3461.128906 3369.679688 3465.328125 C 3469.351562 3475.5 3560.640625 3494.128906 3623.140625 3527.75 C 3625.679688 3529.128906 3628.269531 3530.460938 3630.851562 3531.789062 C 3638.558594 3535.75 3646.351562 3539.460938 3654.269531 3542.960938 C 3665.808594 3548.039062 3677.519531 3552.628906 3689.308594 3556.671875 L 3689.351562 3556.671875 C 3706.851562 3562.628906 3724.558594 3567.378906 3742.101562 3570.789062 C 3795.71875 3581.128906 3848.140625 3578.878906 3890.851562 3560.25 C 3923.71875 3545.960938 3950.851562 3521.960938 3968.21875 3486.578125 C 3990.308594 3441.671875 3989.019531 3392.921875 3969.640625 3352.128906 C 3954.808594 3320.789062 3929.269531 3294.128906 3895.429688 3277.578125 C 3869.601562 3264.960938 3838.890625 3258.210938 3804.429688 3259.75 C 3791.558594 3260.289062 3778.179688 3262.039062 3764.308594 3265.039062 C 3764.308594 3265.039062 3655.601562 3309.710938 3549.769531 3303.789062 L 3549.640625 3303.789062 C 3547.929688 3304.078125 3546.140625 3304.25 3544.308594 3304.25 L 3466.21875 3304.25 C 3451.308594 3304.25 3436.46875 3302.921875 3421.890625 3300.328125 C 3406.640625 3297.628906 3391.640625 3293.5 3377.140625 3288.039062 C 3375.058594 3287.921875 3340.21875 3285.578125 3288.269531 3280.789062 C 3179.640625 3270.671875 2996.21875 3249.5 2881.96875 3214.039062 C 2711.390625 3161.078125 2860.429688 2901.75 3105.519531 2757.171875 C 3378.058594 2596.378906 4069.71875 2496.378906 4201.101562 2480.710938 C 4311.429688 2467.539062 4322.519531 2546 4323.21875 2571.460938 L 4348.140625 2728.628906 C 4352.101562 2753.671875 4368.808594 2774.828125 4392.269531 2784.421875 L 4468.679688 2815.789062 C 4486.101562 2822.921875 4504.769531 2808.75 4502.601562 2790.078125 "/>
<path fill-rule="nonzero" fill="rgb(18.041992%, 16.088867%, 16.479492%)" fill-opacity="1" d="M 3310.71875 2902.328125 C 3327.308594 2911.378906 3344.558594 2921.671875 3362.21875 2933 C 3411.269531 2964.378906 3463.519531 3003.421875 3513.601562 3043.578125 L 3513.640625 3043.578125 C 3551.929688 3074.328125 3588.851562 3105.628906 3622.140625 3134.75 C 3642.390625 3152.421875 3661.269531 3169.289062 3678.21875 3184.628906 C 3685.601562 3191.378906 3692.601562 3197.75 3699.21875 3203.789062 C 3739.269531 3240.628906 3764.308594 3265.039062 3764.308594 3265.039062 C 3764.308594 3265.039062 3655.601562 3309.710938 3549.769531 3303.789062 C 3568.601562 3300.628906 3579.308594 3281.25 3574.179688 3264.210938 C 3572.851562 3259.628906 3570.351562 3255.210938 3566.519531 3251.289062 C 3549.019531 3233.460938 3529.519531 3215.828125 3509.101562 3198.878906 C 3499.851562 3191.171875 3490.429688 3183.578125 3480.890625 3176.171875 C 3455.46875 3156.378906 3429.429688 3137.75 3404.640625 3120.878906 C 3361.269531 3091.460938 3321.71875 3067.5 3296.101562 3052.539062 C 3277.101562 3041.460938 3252.929688 3046.378906 3239.519531 3063.828125 C 3226.851562 3080.421875 3211.679688 3104.921875 3198.851562 3138.960938 C 3191.601562 3158.171875 3198.679688 3179.828125 3215.929688 3190.960938 L 3304.808594 3248.210938 L 3329.179688 3263.921875 C 3344.351562 3273.671875 3360.429688 3281.75 3377.140625 3288.039062 C 3375.058594 3287.921875 3340.21875 3285.578125 3288.269531 3280.789062 C 3179.640625 3270.671875 2996.21875 3249.5 2881.96875 3214.039062 C 2711.390625 3161.078125 2860.429688 2901.75 3105.519531 2757.171875 C 3378.058594 2596.378906 4069.71875 2496.378906 4201.101562 2480.710938 C 4311.429688 2467.539062 4322.519531 2546 4323.21875 2571.460938 L 4323.140625 2570.921875 C 4323.140625 2570.921875 3891.769531 2610.128906 3650.601562 2704.25 C 3488.71875 2767.421875 3371.019531 2825.25 3311.101562 2856.5 C 3292.679688 2866.128906 3292.46875 2892.378906 3310.71875 2902.328125 "/>
<path fill-rule="nonzero" fill="rgb(18.041992%, 16.088867%, 16.479492%)" fill-opacity="1" d="M 3730.140625 2191.171875 C 3730.140625 2191.171875 3588.101562 2249.328125 3404.640625 2280.710938 C 3221.179688 2312.078125 3105.21875 2512.75 3105.21875 2585.960938 C 3051.890625 2610.289062 3023.140625 2625.789062 3023.140625 2625.789062 L 2487.640625 2573.128906 C 2481.769531 2572.539062 2476.179688 2571.078125 2471.058594 2568.878906 C 2447.21875 2558.628906 2432.808594 2532.460938 2438.769531 2505.628906 L 2479.351562 2323.789062 C 2485.390625 2296.539062 2510.351562 2277.710938 2538.21875 2279.421875 C 2570.140625 2281.328125 2622.808594 2284.671875 2709.429688 2290.5 C 2876.519531 2301.75 3093.640625 2232.710938 3166.601562 2207.378906 C 3184.058594 2201.328125 3202.140625 2197.25 3220.519531 2195.289062 L 3634.21875 2151.128906 C 3672.351562 2147.039062 3707.890625 2163.328125 3730.140625 2191.171875 "/>
<path fill-rule="nonzero" fill="rgb(14.109802%, 12.547302%, 12.939453%)" fill-opacity="1" d="M 3764.308594 2363.039062 C 3764.308594 2363.039062 3654.519531 2386.578125 3411.390625 2467 C 3276.429688 2511.628906 3171.679688 2555.628906 3105.21875 2585.960938 C 3105.21875 2512.75 3221.179688 2312.078125 3404.640625 2280.710938 C 3588.101562 2249.328125 3730.140625 2191.171875 3730.140625 2191.171875 C 3742.808594 2206.960938 3751.140625 2226.5 3753.21875 2248.171875 L 3764.308594 2363.039062 "/>
<path fill-rule="nonzero" fill="rgb(23.925781%, 21.556091%, 22.363281%)" fill-opacity="1" d="M 1702.140625 2476.460938 L 1674.390625 2817.960938 C 1672.929688 2835.671875 1665.269531 2852.328125 1652.679688 2864.878906 L 1629.019531 2888.539062 C 1614.929688 2896 1596.890625 2898.578125 1580.769531 2899.039062 C 1558.890625 2899.671875 1541.140625 2881.289062 1542.101562 2859.421875 L 1558.558594 2485.421875 C 1559.640625 2460.5 1577.308594 2439.460938 1601.640625 2434.039062 L 1681.21875 2416.421875 L 1695.46875 2443.710938 C 1700.71875 2453.789062 1703.058594 2465.171875 1702.140625 2476.460938 "/>
<path fill-rule="nonzero" fill="rgb(23.925781%, 21.556091%, 22.363281%)" fill-opacity="1" d="M 3023.140625 2625.789062 C 2748.71875 2759.421875 2598.429688 3060.460938 2552.890625 3165.378906 C 2543.269531 3187.539062 2522.558594 3202.921875 2498.558594 3205.671875 C 2288.96875 3229.578125 2217.429688 3337.171875 2194.101562 3393.328125 C 2185.429688 3414.210938 2165.019531 3427.75 2142.429688 3427.75 L 1548.640625 3427.75 C 1531.390625 3392.210938 1514.96875 3354.789062 1499.558594 3316 L 1748.890625 3316 C 1759.96875 3316 1766.808594 3303.921875 1761.058594 3294.421875 L 1723.140625 3231.710938 L 2168.851562 3231.710938 C 2193.429688 3231.710938 2217.71875 3227.671875 2240.71875 3219.878906 C 2263.679688 3212.078125 2285.429688 3200.578125 2304.96875 3185.671875 C 2336.140625 3161.878906 2360.519531 3130.289062 2375.679688 3094.128906 L 2505.519531 2784.628906 L 2441.851562 2673.25 C 2427.019531 2647.25 2430.390625 2614.671875 2450.269531 2592.25 L 2471.058594 2568.878906 C 2476.179688 2571.078125 2481.769531 2572.539062 2487.640625 2573.128906 L 3023.140625 2625.789062 "/>
<path fill-rule="nonzero" fill="rgb(18.041992%, 16.088867%, 16.479492%)" fill-opacity="1" d="M 1748.890625 3316 L 1499.558594 3316 C 1440.429688 3167.328125 1396.21875 2998.878906 1377.890625 2841.5 C 1376.058594 2826 1374.519531 2810.578125 1373.269531 2795.328125 C 1365.46875 2703.828125 1367.140625 2617.289062 1380.519531 2542 C 1390.640625 2484.828125 1404.019531 2429.078125 1418.558594 2377.171875 C 1422.558594 2362.789062 1426.679688 2348.710938 1430.890625 2335 C 1477.101562 2182.460938 1529.429688 2071.921875 1529.429688 2071.921875 L 1563.601562 2089.878906 L 1577.929688 2097.421875 C 1599.679688 2108.828125 1613.351562 2131.421875 1613.351562 2156 L 1613.351562 2243.460938 C 1627.480469 2269.179688 1634.890625 2298.050781 1634.890625 2327.398438 L 1634.890625 2327.75 L 1681.21875 2416.421875 L 1601.640625 2434.039062 C 1577.308594 2439.460938 1559.640625 2460.5 1558.558594 2485.421875 L 1542.101562 2859.421875 C 1541.140625 2881.289062 1558.890625 2899.671875 1580.769531 2899.039062 C 1596.890625 2898.578125 1614.929688 2896 1629.019531 2888.539062 L 1595.679688 2996.378906 L 1723.140625 3231.710938 L 1761.058594 3294.421875 C 1766.808594 3303.921875 1759.96875 3316 1748.890625 3316 "/>
<path fill-rule="nonzero" fill="rgb(14.109802%, 12.547302%, 12.939453%)" fill-opacity="1" d="M 1111.71875 3726.878906 L 924.472656 3539.628906 C 929.597656 3525.921875 932.347656 3511.039062 932.347656 3495.578125 C 932.347656 3480.078125 929.597656 3465.25 924.472656 3451.539062 L 1111.71875 3264.289062 C 1160.46875 3328.539062 1189.390625 3408.710938 1189.390625 3495.578125 C 1189.390625 3582.460938 1160.46875 3662.628906 1111.71875 3726.878906 Z M 858.683594 3875.289062 L 858.683594 3622.578125 L 1037.351562 3801.25 C 986.308594 3840 925.222656 3866.210938 858.683594 3875.289062 Z M 753.472656 3875.289062 C 686.933594 3866.210938 625.847656 3840 574.765625 3801.289062 L 753.472656 3622.578125 Z M 422.722656 3495.578125 C 422.722656 3408.671875 451.640625 3328.539062 500.390625 3264.25 L 687.683594 3451.539062 C 682.558594 3465.25 679.765625 3480.078125 679.765625 3495.578125 C 679.765625 3511.039062 682.558594 3525.921875 687.683594 3539.628906 L 500.390625 3726.921875 C 451.640625 3662.628906 422.722656 3582.5 422.722656 3495.578125 Z M 753.472656 3115.878906 L 753.472656 3368.578125 L 574.765625 3189.878906 C 625.847656 3151.171875 686.933594 3124.960938 753.472656 3115.878906 Z M 1305.019531 3546.128906 C 1317.601562 3314.128906 1192.269531 3152.628906 1142.769531 3131.710938 C 1118.929688 3121.628906 1083.601562 3114.960938 1052.679688 3110.710938 L 1052.679688 3110.75 L 1023.269531 3179.710938 C 1028.058594 3183 1032.71875 3186.421875 1037.351562 3189.921875 L 1005.140625 3222.128906 L 893.433594 3483.828125 C 892.683594 3485.539062 891.847656 3487.128906 890.890625 3488.671875 L 890.890625 3488.710938 C 891.140625 3490.960938 891.222656 3493.25 891.222656 3495.578125 C 891.222656 3542.578125 853.097656 3580.710938 806.058594 3580.710938 C 759.058594 3580.710938 720.933594 3542.578125 720.933594 3495.578125 C 720.933594 3448.539062 759.058594 3410.421875 806.058594 3410.421875 C 818.808594 3410.421875 830.933594 3413.210938 841.765625 3418.289062 L 867.972656 3359.289062 L 858.683594 3368.578125 L 858.683594 3115.878906 C 895.308594 3120.878906 930.308594 3131.078125 962.890625 3145.710938 L 982.390625 3101.828125 L 982.765625 3100.960938 C 977.890625 3099.5 973.097656 3097.75 968.433594 3095.710938 L 729.097656 2990.539062 C 483.515625 3027.671875 295.265625 3239.628906 295.265625 3495.578125 C 295.265625 3777.671875 523.972656 4006.378906 806.058594 4006.378906 C 1061.71875 4006.378906 1273.46875 3815.578125 1310.96875 3570.421875 L 1310.96875 3570.378906 C 1306.679688 3563.128906 1304.558594 3554.75 1305.019531 3546.128906 "/>
<path fill-rule="nonzero" fill="rgb(23.925781%, 21.556091%, 22.363281%)" fill-opacity="1" d="M 1413.351562 3580.710938 L 1400.96875 3593.039062 C 1383.601562 3610.460938 1355.769531 3611.539062 1337.058594 3595.578125 L 1319.851562 3580.921875 C 1316.269531 3577.878906 1313.308594 3574.328125 1310.96875 3570.421875 L 1310.96875 3570.378906 C 1306.679688 3563.128906 1304.558594 3554.75 1305.019531 3546.128906 C 1317.601562 3314.128906 1192.269531 3152.628906 1142.769531 3131.710938 C 1118.929688 3121.628906 1083.601562 3114.960938 1052.679688 3110.710938 L 1074.058594 3060.671875 L 1123.558594 2944.710938 C 1130.96875 2949.078125 1138.308594 2953.671875 1145.519531 2958.421875 C 1159.390625 2967.5 1172.851562 2977.25 1185.851562 2987.578125 C 1245.890625 3035.210938 1296.679688 3095.710938 1333.46875 3166.628906 C 1405.929688 3306.128906 1414.019531 3438.628906 1414.019531 3490.75 C 1414.019531 3505.710938 1413.351562 3514.039062 1413.351562 3514.039062 C 1431.769531 3532.460938 1431.769531 3562.289062 1413.351562 3580.710938 "/>
<path fill-rule="nonzero" fill="rgb(23.925781%, 21.556091%, 22.363281%)" fill-opacity="1" d="M 1065.519531 2914.789062 L 1014.679688 3029.210938 L 982.765625 3100.960938 C 977.890625 3099.5 973.097656 3097.75 968.433594 3095.710938 L 729.097656 2990.539062 L 626.597656 2945.5 C 614.765625 2940.289062 613.933594 2923.75 625.222656 2917.421875 C 662.058594 2896.710938 703.472656 2883.710938 745.890625 2876.039062 C 856.515625 2856.039062 967.390625 2871.210938 1065.519531 2914.789062 "/>
<path fill-rule="nonzero" fill="rgb(23.925781%, 21.556091%, 22.363281%)" fill-opacity="1" d="M 1609.640625 1986.5 L 1604.890625 1997.210938 L 1563.601562 2089.878906 L 1529.429688 2071.921875 L 1472.769531 2042.171875 C 1469.179688 2040.289062 1465.46875 2038.75 1461.71875 2037.578125 L 1488.851562 1985.628906 L 1495.351562 1973.210938 C 1497.96875 1968.171875 1503.179688 1965.039062 1508.890625 1965.039062 L 1595.679688 1965.039062 C 1606.769531 1965.039062 1614.140625 1976.421875 1609.640625 1986.5 "/>
<path fill-rule="nonzero" fill="rgb(94.921875%, 54.101562%, 18.041992%)" fill-opacity="1" d="M 1529.429688 2071.921875 C 1529.429688 2071.921875 1477.101562 2182.460938 1430.890625 2335 L 1265.601562 2273.710938 C 1308.308594 2191.378906 1355.351562 2113.921875 1386.019531 2065.421875 C 1402.269531 2039.671875 1433.558594 2028.75 1461.71875 2037.578125 C 1465.46875 2038.75 1469.179688 2040.289062 1472.769531 2042.171875 L 1529.429688 2071.921875 "/>
<path fill-rule="nonzero" fill="rgb(94.921875%, 54.101562%, 18.041992%)" fill-opacity="1" d="M 1380.519531 2542 C 1367.140625 2617.289062 1365.46875 2703.828125 1373.269531 2795.328125 L 1163.558594 2718.539062 C 1147.640625 2652.628906 1150.269531 2550.628906 1195.679688 2427.75 C 1208.308594 2393.539062 1226.308594 2352.289062 1243.96875 2315.710938 L 1418.558594 2377.171875 C 1404.019531 2429.078125 1390.640625 2484.828125 1380.519531 2542 "/>
<path fill-rule="nonzero" fill="rgb(94.921875%, 54.101562%, 18.041992%)" fill-opacity="1" d="M 1548.640625 3427.75 L 1511.601562 3427.75 C 1496.140625 3427.75 1482.269531 3418.210938 1476.71875 3403.75 L 1254.519531 2819.921875 L 1195.679688 2784.628906 C 1192.019531 2780.078125 1188.429688 2774.921875 1185.101562 2769.171875 L 1377.890625 2841.5 C 1396.21875 2998.878906 1440.429688 3167.328125 1499.558594 3316 C 1514.96875 3354.789062 1531.390625 3392.210938 1548.640625 3427.75 "/>
<path fill-rule="nonzero" fill="rgb(23.925781%, 21.556091%, 22.363281%)" fill-opacity="1" d="M 891.222656 3495.578125 C 891.222656 3542.578125 853.097656 3580.710938 806.058594 3580.710938 C 759.058594 3580.710938 720.933594 3542.578125 720.933594 3495.578125 C 720.933594 3448.539062 759.058594 3410.421875 806.058594 3410.421875 C 818.808594 3410.421875 830.933594 3413.210938 841.765625 3418.289062 L 825.722656 3454.328125 C 817.683594 3472.378906 825.308594 3493.539062 842.933594 3502.378906 C 848.265625 3505.039062 853.890625 3506.289062 859.433594 3506.289062 C 871.972656 3506.289062 884.097656 3499.878906 890.890625 3488.710938 C 891.140625 3490.960938 891.222656 3493.25 891.222656 3495.578125 "/>
<path fill-rule="nonzero" fill="rgb(18.041992%, 16.088867%, 16.479492%)" fill-opacity="1" d="M 1254.519531 2819.921875 L 1224.851562 2883.289062 L 1185.851562 2987.578125 C 1172.851562 2977.25 1159.390625 2967.5 1145.519531 2958.421875 L 1172.601562 2888.789062 L 1165.851562 2884.75 C 1158.808594 2880.539062 1149.679688 2883.5 1146.46875 2891.039062 L 1123.558594 2944.710938 L 1074.058594 3060.671875 L 1052.679688 3110.710938 L 1052.679688 3110.75 L 1023.269531 3179.710938 L 1005.140625 3222.128906 L 893.433594 3483.828125 C 892.683594 3485.539062 891.847656 3487.128906 890.890625 3488.671875 L 890.890625 3488.710938 C 884.097656 3499.878906 871.972656 3506.289062 859.433594 3506.289062 C 853.890625 3506.289062 848.265625 3505.039062 842.933594 3502.378906 C 825.308594 3493.539062 817.683594 3472.378906 825.722656 3454.328125 L 841.765625 3418.289062 L 867.972656 3359.289062 L 962.890625 3145.710938 L 982.390625 3101.828125 L 982.765625 3100.960938 L 1014.679688 3029.210938 L 1065.519531 2914.789062 L 1102.851562 2830.789062 C 1110.769531 2812.960938 1131.769531 2805.078125 1149.46875 2813.289062 L 1172.179688 2823.828125 L 1195.679688 2784.628906 L 1254.519531 2819.921875 "/>
<path fill-rule="nonzero" fill="rgb(14.109802%, 12.547302%, 12.939453%)" fill-opacity="1" d="M 1430.890625 2335 C 1426.679688 2348.710938 1422.558594 2362.789062 1418.558594 2377.171875 L 1243.96875 2315.710938 L 1178.601562 2292.671875 L 1103.769531 2264.25 L 1120.308594 2218.171875 L 1189.390625 2245.421875 L 1265.601562 2273.710938 L 1430.890625 2335 "/>
<path fill-rule="nonzero" fill="rgb(14.109802%, 12.547302%, 12.939453%)" fill-opacity="1" d="M 1377.890625 2841.5 L 1185.101562 2769.171875 L 1032.929688 2712.078125 L 657.722656 2584.460938 L 940.265625 2653.539062 C 949.972656 2655.921875 959.808594 2652.210938 965.890625 2644.671875 L 1048.769531 2676.5 L 1163.558594 2718.539062 L 1373.269531 2795.328125 C 1374.519531 2810.578125 1376.058594 2826 1377.890625 2841.5 "/>
<path fill-rule="nonzero" fill="rgb(18.041992%, 16.088867%, 16.479492%)" fill-opacity="1" d="M 1153.058594 2126.75 L 1120.308594 2218.171875 L 1103.769531 2264.25 L 970.265625 2636.828125 C 969.222656 2639.75 967.722656 2642.378906 965.890625 2644.671875 C 959.808594 2652.210938 949.972656 2655.921875 940.265625 2653.539062 L 657.722656 2584.460938 L 650.640625 2582.710938 C 638.222656 2579.671875 629.847656 2567.628906 630.933594 2554.421875 L 666.265625 2124.628906 C 667.390625 2111.039062 678.222656 2100.460938 691.347656 2100.210938 L 1128.429688 2090.671875 C 1146.558594 2090.289062 1159.390625 2109.039062 1153.058594 2126.75 "/>
<path fill-rule="nonzero" fill="rgb(23.925781%, 21.556091%, 22.363281%)" fill-opacity="1" d="M 1242.21875 2089.539062 L 1189.390625 2245.421875 L 1120.308594 2218.171875 L 1153.058594 2126.75 C 1159.390625 2109.039062 1146.558594 2090.289062 1128.429688 2090.671875 L 691.347656 2100.210938 C 678.222656 2100.460938 667.390625 2111.039062 666.265625 2124.628906 L 630.933594 2554.421875 C 629.847656 2567.628906 638.222656 2579.671875 650.640625 2582.710938 L 657.722656 2584.460938 L 1032.929688 2712.078125 L 1030.140625 2718.828125 C 1022.71875 2736.671875 1003.390625 2746.328125 984.722656 2741.578125 L 547.097656 2630.460938 C 527.558594 2625.5 514.347656 2607.25 515.683594 2587.171875 L 548.015625 2109.828125 C 549.472656 2088.378906 567.058594 2071.5 588.597656 2070.921875 L 1216.21875 2054.289062 C 1234.808594 2053.789062 1248.179688 2071.921875 1242.21875 2089.539062 "/>
<path fill-rule="nonzero" fill="rgb(23.925781%, 21.556091%, 22.363281%)" fill-opacity="1" d="M 1178.601562 2292.671875 L 1048.769531 2676.5 L 965.890625 2644.671875 C 967.722656 2642.378906 969.222656 2639.75 970.265625 2636.828125 L 1103.769531 2264.25 L 1178.601562 2292.671875 "/>
<path fill-rule="nonzero" fill="rgb(23.925781%, 21.556091%, 22.363281%)" fill-opacity="1" d="M 4130.519531 1721.378906 C 4130.519531 1721.378906 4046.679688 1806.710938 4046.679688 2039.039062 L 3774.679688 2039.039062 C 3774.019531 2028.828125 3773.429688 2019.25 3772.929688 2010.539062 C 3770.71875 1973.378906 3775.601562 1936.171875 3787.351562 1900.828125 C 3809.558594 1834.25 3855.019531 1733.328125 3933.429688 1700.789062 C 4054.019531 1650.789062 4130.519531 1721.378906 4130.519531 1721.378906 "/>
<path fill-rule="nonzero" fill="rgb(14.109802%, 12.547302%, 12.939453%)" fill-opacity="1" d="M 4703.390625 2012.710938 C 4694.890625 2071.460938 4676.011719 2187.078125 4650.058594 2261.5 C 4641.851562 2284.960938 4619.890625 2300.789062 4595.058594 2300.789062 L 4493.71875 2300.789062 L 4496.640625 2320.710938 C 4499.808594 2342.378906 4483.679688 2362.078125 4461.808594 2363.25 C 4458.929688 2363.421875 4455.96875 2363.539062 4452.851562 2363.710938 C 4361.640625 2368.460938 4166.058594 2378.578125 4046.679688 2384.210938 L 4046.679688 2039.039062 C 4046.679688 2039.039062 4466.96875 1993.328125 4704.640625 1988.960938 C 4704.929688 1996.828125 4704.558594 2004.789062 4703.390625 2012.710938 "/>
<path fill-rule="nonzero" fill="rgb(18.041992%, 16.088867%, 16.479492%)" fill-opacity="1" d="M 4046.679688 2039.039062 L 4046.679688 2384.210938 C 3995.851562 2386.578125 3958.851562 2388.171875 3949.601562 2388.171875 C 3927.390625 2388.171875 3884.851562 2375.078125 3849.601562 2348.539062 C 3824.179688 2329.378906 3802.601562 2303.210938 3795.179688 2269.921875 C 3787.851562 2236.878906 3779.601562 2118.878906 3774.679688 2039.039062 L 4046.679688 2039.039062 "/>
<path fill-rule="nonzero" fill="rgb(19.993591%, 18.041992%, 18.821716%)" fill-opacity="1" d="M 4704.640625 1988.960938 C 4466.96875 1993.328125 4046.679688 2039.039062 4046.679688 2039.039062 C 4046.679688 1806.710938 4130.519531 1721.378906 4130.519531 1721.378906 C 4130.519531 1721.378906 4414.308594 1736.078125 4515.808594 1805.210938 C 4515.808594 1805.210938 4624.019531 1843.578125 4680.308594 1919.539062 C 4695.351562 1939.789062 4703.601562 1964.039062 4704.640625 1988.960938 "/>
<path fill-rule="nonzero" fill="rgb(14.109802%, 12.547302%, 12.939453%)" fill-opacity="1" d="M 2478.96875 3472.378906 C 2478.96875 3497 2464.601562 3518.289062 2443.71875 3528.25 C 2435.640625 3532.171875 2426.558594 3534.328125 2417.019531 3534.328125 C 2406.769531 3534.328125 2397.101562 3531.828125 2388.558594 3527.378906 C 2368.640625 3517.078125 2355.058594 3496.328125 2355.058594 3472.378906 C 2355.058594 3438.171875 2382.808594 3410.421875 2417.019531 3410.421875 C 2451.21875 3410.421875 2478.96875 3438.171875 2478.96875 3472.378906 "/>
<path fill-rule="nonzero" fill="rgb(23.925781%, 21.556091%, 22.363281%)" fill-opacity="1" d="M 2601.351562 3472.378906 C 2601.351562 3565.078125 2532.851562 3641.828125 2443.71875 3654.789062 L 2443.71875 3626.460938 C 2517.390625 3613.789062 2573.390625 3549.628906 2573.390625 3472.378906 C 2573.390625 3386 2503.390625 3316 2417.019531 3316 C 2330.640625 3316 2260.640625 3386 2260.640625 3472.378906 C 2260.640625 3549.039062 2315.769531 3612.789062 2388.558594 3626.128906 L 2388.558594 3654.539062 C 2300.269531 3640.828125 2232.679688 3564.5 2232.679688 3472.378906 C 2232.679688 3370.578125 2315.21875 3288.039062 2417.019531 3288.039062 C 2518.808594 3288.039062 2601.351562 3370.578125 2601.351562 3472.378906 "/>
<path fill-rule="nonzero" fill="rgb(73.631287%, 74.414062%, 75.389099%)" fill-opacity="1" d="M 2573.390625 3472.378906 C 2573.390625 3549.628906 2517.390625 3613.789062 2443.71875 3626.460938 L 2443.71875 3528.25 C 2464.601562 3518.289062 2478.96875 3497 2478.96875 3472.378906 C 2478.96875 3438.171875 2451.21875 3410.421875 2417.019531 3410.421875 C 2382.808594 3410.421875 2355.058594 3438.171875 2355.058594 3472.378906 C 2355.058594 3496.328125 2368.640625 3517.078125 2388.558594 3527.378906 L 2388.558594 3626.128906 C 2315.769531 3612.789062 2260.640625 3549.039062 2260.640625 3472.378906 C 2260.640625 3386 2330.640625 3316 2417.019531 3316 C 2503.390625 3316 2573.390625 3386 2573.390625 3472.378906 "/>
<path fill-rule="nonzero" fill="rgb(23.925781%, 21.556091%, 22.363281%)" fill-opacity="1" d="M 2494.179688 3927.328125 L 2489.558594 3934.25 C 2479.46875 3949.421875 2459.390625 3954.25 2443.46875 3945.421875 L 2347.601562 3892 C 2336.140625 3885.628906 2329.019531 3873.539062 2329.019531 3860.460938 L 2329.019531 3847.539062 C 2329.019531 3838.039062 2331.019531 3828.671875 2334.851562 3820 L 2346.929688 3792.75 C 2351.308594 3782.789062 2363.269531 3778.671875 2372.890625 3783.710938 L 2388.558594 3792 L 2388.558594 3527.378906 C 2397.101562 3531.828125 2406.769531 3534.328125 2417.019531 3534.328125 C 2426.558594 3534.328125 2435.640625 3532.171875 2443.71875 3528.25 L 2443.71875 3822.878906 L 2473.96875 3841.878906 C 2487.351562 3850.289062 2496.101562 3864.421875 2497.558594 3880.171875 L 2499.890625 3904.628906 C 2500.679688 3912.628906 2498.640625 3920.628906 2494.179688 3927.328125 "/>
<path fill-rule="nonzero" fill="rgb(13.719177%, 12.156677%, 12.547302%)" fill-opacity="1" d="M 1508.429688 1531.710938 L 1445.058594 1544.128906 C 1434.71875 1546.171875 1424.769531 1539.171875 1423.140625 1528.75 C 1423.140625 1528.75 1407.179688 1524.539062 1386.429688 1520.578125 L 1386.390625 1520.578125 C 1368.101562 1517.128906 1346.101562 1513.828125 1328.101562 1513.828125 C 1313.929688 1513.828125 1302.21875 1515.828125 1296.679688 1521.378906 C 1276.101562 1542 1265.808594 1492 1296.679688 1481.710938 C 1320.429688 1473.75 1379.71875 1485.828125 1405.851562 1491.878906 L 1405.890625 1491.878906 C 1413.71875 1493.671875 1418.558594 1494.921875 1418.558594 1494.921875 L 1473.929688 1483.460938 C 1480.308594 1482.128906 1486.601562 1483.628906 1491.558594 1487.128906 C 1495.851562 1490.171875 1499.140625 1494.671875 1500.519531 1500.128906 L 1508.429688 1531.710938 "/>
<path fill-rule="nonzero" fill="rgb(91.40625%, 91.796875%, 92.1875%)" fill-opacity="1" d="M 1365.601562 1552.828125 C 1365.601562 1552.828125 1319.390625 1700.828125 1319.390625 1736.828125 L 1306.101562 1733.789062 C 1291.769531 1730.460938 1283.558594 1715.328125 1288.640625 1701.5 C 1306.351562 1653.578125 1335.429688 1600.878906 1365.601562 1552.828125 "/>
<path fill-rule="nonzero" fill="rgb(13.719177%, 12.156677%, 12.547302%)" fill-opacity="1" d="M 1750.601562 1630.289062 C 1749.890625 1654.539062 1747.519531 1678.671875 1743.96875 1702.289062 C 1724.46875 1830.960938 1668.96875 1944.5 1648.46875 1983.171875 C 1643.929688 1991.789062 1634.96875 1997.210938 1625.179688 1997.210938 L 1604.890625 1997.210938 L 1609.640625 1986.5 C 1614.140625 1976.421875 1606.769531 1965.039062 1595.679688 1965.039062 L 1536.390625 1965.039062 C 1536.390625 1965.039062 1579.019531 1853.75 1592.269531 1793.460938 C 1605.308594 1734.210938 1557.71875 1649.578125 1556.140625 1646.710938 C 1559.929688 1648.421875 1564.058594 1649.328125 1568.308594 1649.328125 L 1626.019531 1649.328125 C 1642.890625 1649.328125 1656.351562 1635.25 1655.558594 1618.421875 L 1650.96875 1516.878906 L 1650.601562 1508.171875 L 1664.21875 1520.710938 L 1730.019531 1581.328125 C 1736.46875 1587.289062 1741.558594 1594.460938 1745.058594 1602.289062 C 1748.929688 1611 1750.890625 1620.539062 1750.601562 1630.289062 "/>
<path fill-rule="nonzero" fill="rgb(14.109802%, 12.547302%, 12.939453%)" fill-opacity="1" d="M 1571.019531 1516.878906 C 1542.21875 1516.878906 1518.890625 1493.5 1518.890625 1464.710938 C 1518.890625 1435.878906 1542.21875 1412.539062 1571.019531 1412.539062 C 1599.851562 1412.539062 1623.179688 1435.878906 1623.179688 1464.710938 C 1623.179688 1493.5 1599.851562 1516.878906 1571.019531 1516.878906 Z M 1650.601562 1508.171875 L 1650.601562 1449.578125 C 1650.601562 1443.078125 1649.46875 1436.789062 1647.390625 1431 C 1639.769531 1409.671875 1619.351562 1394.421875 1595.429688 1394.421875 L 1536.390625 1394.421875 C 1522.390625 1404.878906 1512.769531 1417 1506.101562 1429 C 1501.21875 1437.75 1497.929688 1446.460938 1495.769531 1454.328125 C 1490.640625 1473 1491.558594 1487.128906 1491.558594 1487.128906 C 1495.851562 1490.171875 1499.140625 1494.671875 1500.519531 1500.128906 L 1508.429688 1531.710938 L 1526.101562 1549.328125 C 1526.101562 1549.328125 1584.808594 1583 1650.96875 1516.878906 L 1650.601562 1508.171875 "/>
<path fill-rule="nonzero" fill="rgb(23.925781%, 21.556091%, 22.363281%)" fill-opacity="1" d="M 1655.558594 1618.421875 C 1656.351562 1635.25 1642.890625 1649.328125 1626.019531 1649.328125 L 1568.308594 1649.328125 C 1564.058594 1649.328125 1559.929688 1648.421875 1556.140625 1646.710938 L 1556.058594 1646.628906 C 1551.101562 1644.460938 1546.890625 1640.878906 1543.769531 1636.25 L 1507.558594 1582.460938 C 1501.058594 1572.75 1504.679688 1559.539062 1515.21875 1554.5 L 1526.101562 1549.328125 C 1526.101562 1549.328125 1584.808594 1583 1650.96875 1516.878906 L 1655.558594 1618.421875 "/>
<path fill-rule="nonzero" fill="rgb(94.921875%, 54.101562%, 18.041992%)" fill-opacity="1" d="M 1592.269531 1793.460938 C 1579.019531 1853.75 1536.390625 1965.039062 1536.390625 1965.039062 L 1508.890625 1965.039062 C 1503.179688 1965.039062 1497.96875 1968.171875 1495.351562 1973.210938 L 1488.851562 1985.628906 C 1481.808594 1985.628906 1476.101562 1979.878906 1476.101562 1972.828125 L 1476.101562 1772.878906 L 1319.390625 1736.828125 C 1319.390625 1700.828125 1365.601562 1552.828125 1365.601562 1552.828125 C 1372.519531 1541.789062 1379.46875 1531 1386.390625 1520.578125 L 1386.429688 1520.578125 C 1407.179688 1524.539062 1423.140625 1528.75 1423.140625 1528.75 C 1424.769531 1539.171875 1434.71875 1546.171875 1445.058594 1544.128906 L 1508.429688 1531.710938 L 1526.101562 1549.328125 L 1515.21875 1554.5 C 1504.679688 1559.539062 1501.058594 1572.75 1507.558594 1582.460938 L 1543.769531 1636.25 C 1546.890625 1640.878906 1551.101562 1644.460938 1556.058594 1646.628906 L 1556.140625 1646.710938 C 1557.71875 1649.578125 1605.308594 1734.210938 1592.269531 1793.460938 "/>
<path fill-rule="nonzero" fill="rgb(94.921875%, 54.101562%, 18.041992%)" fill-opacity="1" d="M 1536.390625 1394.421875 C 1522.390625 1404.878906 1512.769531 1417 1506.101562 1429 L 1486.601562 1394.460938 C 1486.71875 1394.421875 1486.890625 1394.421875 1487.019531 1394.421875 L 1536.390625 1394.421875 "/>
<path fill-rule="nonzero" fill="rgb(94.921875%, 54.101562%, 18.041992%)" fill-opacity="1" d="M 1491.558594 1487.128906 C 1486.601562 1483.628906 1480.308594 1482.128906 1473.929688 1483.460938 L 1418.558594 1494.921875 C 1418.558594 1494.921875 1413.71875 1493.671875 1405.890625 1491.878906 C 1433.46875 1452 1457.769531 1420.25 1469.851562 1404.75 L 1495.769531 1454.328125 C 1490.640625 1473 1491.558594 1487.128906 1491.558594 1487.128906 "/>
<path fill-rule="nonzero" fill="rgb(23.925781%, 21.556091%, 22.363281%)" fill-opacity="1" d="M 1623.179688 1464.710938 C 1623.179688 1493.5 1599.851562 1516.878906 1571.019531 1516.878906 C 1542.21875 1516.878906 1518.890625 1493.5 1518.890625 1464.710938 C 1518.890625 1435.878906 1542.21875 1412.539062 1571.019531 1412.539062 C 1599.851562 1412.539062 1623.179688 1435.878906 1623.179688 1464.710938 "/>
<path fill-rule="nonzero" fill="rgb(23.925781%, 21.556091%, 22.363281%)" fill-opacity="1" d="M 1869.558594 1704.921875 C 1864.019531 1714.921875 1853.601562 1720.628906 1842.851562 1720.628906 C 1838.351562 1720.628906 1833.769531 1719.628906 1829.46875 1717.539062 L 1784.890625 1695.828125 C 1784.890625 1695.828125 1766.21875 1702.289062 1743.96875 1702.289062 C 1747.519531 1678.671875 1749.890625 1654.539062 1750.601562 1630.289062 C 1750.890625 1620.539062 1748.929688 1611 1745.058594 1602.289062 C 1747.101562 1602.289062 1802.640625 1602.960938 1806.96875 1637.578125 L 1856.71875 1662.921875 C 1872.140625 1670.75 1877.929688 1689.828125 1869.558594 1704.921875 "/>
<path fill-rule="nonzero" fill="rgb(23.925781%, 21.556091%, 22.363281%)" fill-opacity="1" d="M 1706.140625 1356.210938 C 1706.019531 1356.25 1705.890625 1356.25 1705.769531 1356.25 C 1706.140625 1356.289062 1706.46875 1356.328125 1706.851562 1356.328125 C 1706.601562 1356.328125 1706.351562 1356.289062 1706.140625 1356.210938 Z M 1674.679688 1249 C 1675.058594 1253.328125 1675.601562 1257.628906 1676.269531 1261.921875 C 1675.640625 1257.628906 1675.101562 1253.328125 1674.679688 1249 Z M 1673.96875 1239.171875 C 1673.96875 1239.921875 1674.019531 1240.628906 1674.058594 1241.378906 C 1674.058594 1241.671875 1674.101562 1241.921875 1674.140625 1242.210938 C 1674.101562 1241.210938 1674.019531 1240.171875 1673.96875 1239.171875 "/>
<path fill-rule="nonzero" fill="rgb(23.925781%, 21.556091%, 22.363281%)" fill-opacity="1" d="M 1516.101562 1203.710938 L 1476.101562 1234.628906 L 1476.101562 1369.75 C 1476.101562 1373.710938 1477.101562 1377.628906 1479.058594 1381.078125 L 1486.601562 1394.460938 L 1506.101562 1429 C 1501.21875 1437.75 1497.929688 1446.460938 1495.769531 1454.328125 L 1469.851562 1404.75 L 1457.601562 1381.289062 C 1456.21875 1378.671875 1455.519531 1375.710938 1455.519531 1372.75 L 1455.519531 1230.210938 C 1455.519531 1230.210938 1423.140625 1181.710938 1423.140625 1152.289062 C 1423.140625 1125.921875 1439.71875 988.328125 1443.101562 960.25 C 1443.519531 957.039062 1445.21875 954.171875 1447.851562 952.289062 L 1460.269531 943.421875 C 1467.019531 938.578125 1476.519531 942.289062 1478.21875 950.460938 L 1525.679688 1177.789062 C 1527.71875 1187.539062 1524.019531 1197.628906 1516.101562 1203.710938 "/>
<path fill-rule="nonzero" fill="rgb(23.925781%, 21.556091%, 22.363281%)" fill-opacity="1" d="M 1729.769531 1346.378906 C 1728.679688 1347.460938 1727.269531 1348.671875 1725.679688 1349.828125 C 1724.929688 1350.421875 1724.179688 1350.921875 1723.429688 1351.378906 C 1723.390625 1351.421875 1723.308594 1351.460938 1723.179688 1351.539062 C 1721.058594 1352.878906 1718.808594 1354.078125 1716.46875 1354.960938 C 1712.808594 1356.460938 1708.71875 1356.921875 1704.851562 1356.078125 C 1703.929688 1355.878906 1702.890625 1355.628906 1702.179688 1354.921875 C 1701.46875 1354.210938 1701.140625 1353.289062 1700.71875 1352.421875 C 1699.46875 1349.539062 1698.640625 1346.578125 1697.808594 1343.578125 C 1696.890625 1340.328125 1695.769531 1337.171875 1694.71875 1333.960938 C 1694.351562 1332.789062 1693.96875 1331.628906 1693.601562 1330.460938 C 1692.96875 1328.5 1692.308594 1326.539062 1691.679688 1324.578125 C 1691.390625 1323.671875 1691.140625 1322.789062 1690.851562 1321.921875 C 1690.058594 1319.378906 1689.269531 1316.828125 1688.46875 1314.289062 C 1687.929688 1312.5 1687.390625 1310.710938 1686.890625 1308.921875 C 1686.058594 1306 1685.21875 1303.078125 1684.429688 1300.171875 C 1684.019531 1298.75 1683.640625 1297.289062 1683.269531 1295.828125 C 1682.679688 1293.628906 1682.140625 1291.378906 1681.601562 1289.128906 C 1680.351562 1283.960938 1679.21875 1278.75 1678.21875 1273.539062 C 1677.519531 1269.710938 1676.851562 1265.828125 1676.269531 1261.921875 C 1675.601562 1257.628906 1675.058594 1253.328125 1674.679688 1249 C 1674.429688 1246.75 1674.269531 1244.460938 1674.140625 1242.210938 C 1674.101562 1241.921875 1674.058594 1241.671875 1674.058594 1241.378906 C 1674.019531 1240.628906 1673.96875 1239.921875 1673.96875 1239.171875 C 1673.890625 1238.171875 1673.890625 1237.171875 1673.851562 1236.171875 C 1673.769531 1234.039062 1673.71875 1231.960938 1673.71875 1229.878906 C 1673.71875 1225.171875 1673.890625 1220.460938 1674.308594 1215.75 C 1674.351562 1214.789062 1674.46875 1213.828125 1674.558594 1212.921875 C 1674.679688 1211.578125 1674.851562 1210.25 1675.019531 1208.921875 C 1675.179688 1207.5 1675.390625 1206.128906 1675.640625 1204.75 C 1676.601562 1199.578125 1677.519531 1194.328125 1679.519531 1189.460938 C 1682.140625 1183.171875 1687.351562 1177.878906 1693.390625 1174.75 C 1693.808594 1174.539062 1694.21875 1174.328125 1694.601562 1174.171875 C 1695.769531 1173.628906 1696.769531 1173.289062 1697.679688 1173.039062 C 1698.890625 1172.710938 1699.851562 1172.628906 1700.601562 1172.628906 C 1701.429688 1172.628906 1702.140625 1172.710938 1702.851562 1172.960938 C 1721.558594 1178.960938 1744.808594 1231 1748.558594 1265.460938 C 1752.019531 1297.421875 1743.929688 1332.210938 1729.769531 1346.378906 Z M 1754.769531 1264.789062 C 1751.101562 1230.960938 1727.558594 1174.328125 1704.769531 1167 C 1696.390625 1164.289062 1685.769531 1170.421875 1675.058594 1181.378906 L 1675.058594 1181.421875 C 1656.601562 1200.328125 1637.96875 1233.671875 1630.519531 1261.078125 C 1618.71875 1304.5 1637.851562 1366.25 1647.390625 1380.210938 L 1647.390625 1431 C 1649.46875 1436.789062 1650.601562 1443.078125 1650.601562 1449.578125 L 1650.601562 1508.171875 L 1664.21875 1520.710938 L 1664.21875 1381.710938 L 1687.269531 1368.210938 C 1693.179688 1364.75 1699.851562 1362.710938 1706.71875 1362.5 C 1714.101562 1362.289062 1724.890625 1360.078125 1734.179688 1350.789062 C 1749.96875 1335 1758.429688 1298.578125 1754.769531 1264.789062 "/>
<path fill-rule="nonzero" fill="rgb(91.40625%, 91.796875%, 92.1875%)" fill-opacity="1" d="M 1729.769531 1346.378906 C 1728.679688 1347.460938 1727.269531 1348.671875 1725.679688 1349.828125 C 1724.929688 1350.421875 1724.179688 1350.921875 1723.429688 1351.378906 C 1723.390625 1351.421875 1723.308594 1351.460938 1723.179688 1351.539062 C 1721.058594 1352.878906 1718.808594 1354.078125 1716.46875 1354.960938 C 1712.808594 1356.460938 1708.71875 1356.921875 1704.851562 1356.078125 C 1703.929688 1355.878906 1702.890625 1355.628906 1702.179688 1354.921875 C 1701.46875 1354.210938 1701.140625 1353.289062 1700.71875 1352.421875 C 1699.46875 1349.539062 1698.640625 1346.578125 1697.808594 1343.578125 C 1696.890625 1340.328125 1695.769531 1337.171875 1694.71875 1333.960938 C 1694.351562 1332.789062 1693.96875 1331.628906 1693.601562 1330.460938 C 1692.96875 1328.5 1692.308594 1326.539062 1691.679688 1324.578125 C 1691.390625 1323.671875 1691.140625 1322.789062 1690.851562 1321.921875 C 1690.058594 1319.378906 1689.269531 1316.828125 1688.46875 1314.289062 C 1687.929688 1312.5 1687.390625 1310.710938 1686.890625 1308.921875 C 1686.058594 1306 1685.21875 1303.078125 1684.429688 1300.171875 C 1684.019531 1298.75 1683.640625 1297.289062 1683.269531 1295.828125 C 1682.679688 1293.628906 1682.140625 1291.378906 1681.601562 1289.128906 C 1680.351562 1283.960938 1679.21875 1278.75 1678.21875 1273.539062 C 1677.519531 1269.710938 1676.851562 1265.828125 1676.269531 1261.921875 C 1675.601562 1257.628906 1675.058594 1253.328125 1674.679688 1249 C 1674.429688 1246.75 1674.269531 1244.460938 1674.140625 1242.210938 C 1674.101562 1241.921875 1674.058594 1241.671875 1674.058594 1241.378906 C 1674.019531 1240.628906 1673.96875 1239.921875 1673.96875 1239.171875 C 1673.890625 1238.171875 1673.890625 1237.171875 1673.851562 1236.171875 C 1673.769531 1234.039062 1673.71875 1231.960938 1673.71875 1229.878906 C 1673.71875 1225.171875 1673.890625 1220.460938 1674.308594 1215.75 C 1674.351562 1214.789062 1674.46875 1213.828125 1674.558594 1212.921875 C 1674.679688 1211.578125 1674.851562 1210.25 1675.019531 1208.921875 C 1675.179688 1207.5 1675.390625 1206.128906 1675.640625 1204.75 C 1676.601562 1199.578125 1677.519531 1194.328125 1679.519531 1189.460938 C 1682.140625 1183.171875 1687.351562 1177.878906 1693.390625 1174.75 C 1693.808594 1174.539062 1694.21875 1174.328125 1694.601562 1174.171875 C 1695.769531 1173.628906 1696.769531 1173.289062 1697.679688 1173.039062 C 1698.890625 1172.710938 1699.851562 1172.628906 1700.601562 1172.628906 C 1701.429688 1172.628906 1702.140625 1172.710938 1702.851562 1172.960938 C 1721.558594 1178.960938 1744.808594 1231 1748.558594 1265.460938 C 1752.019531 1297.421875 1743.929688 1332.210938 1729.769531 1346.378906 "/>
<path fill-rule="nonzero" fill="rgb(94.53125%, 94.921875%, 94.921875%)" fill-opacity="1" d="M 1674.140625 1242.210938 C 1674.101562 1241.921875 1674.058594 1241.671875 1674.058594 1241.378906 C 1674.019531 1240.628906 1673.96875 1239.921875 1673.96875 1239.171875 C 1674.019531 1240.171875 1674.101562 1241.210938 1674.140625 1242.210938 "/>
<path fill-rule="nonzero" fill="rgb(94.53125%, 94.921875%, 94.921875%)" fill-opacity="1" d="M 1676.269531 1261.921875 C 1675.601562 1257.628906 1675.058594 1253.328125 1674.679688 1249 C 1675.101562 1253.328125 1675.640625 1257.628906 1676.269531 1261.921875 "/>
<path fill-rule="nonzero" fill="rgb(94.53125%, 94.921875%, 94.921875%)" fill-opacity="1" d="M 1706.851562 1356.328125 C 1706.46875 1356.328125 1706.140625 1356.289062 1705.769531 1356.25 C 1705.890625 1356.25 1706.019531 1356.25 1706.140625 1356.210938 C 1706.351562 1356.289062 1706.601562 1356.328125 1706.851562 1356.328125 "/>
<path fill-rule="nonzero" fill="rgb(94.53125%, 94.921875%, 94.921875%)" fill-opacity="1" d="M 1697.679688 1173.039062 C 1696.769531 1173.289062 1695.769531 1173.628906 1694.601562 1174.171875 C 1695.769531 1173.628906 1696.769531 1173.25 1697.679688 1173.039062 "/>
<path fill-rule="nonzero" fill="rgb(23.925781%, 21.556091%, 22.363281%)" fill-opacity="1" d="M 3566.519531 3251.289062 C 3549.019531 3233.460938 3529.519531 3215.828125 3509.101562 3198.878906 C 3499.851562 3191.171875 3490.429688 3183.578125 3480.890625 3176.171875 C 3455.46875 3156.378906 3429.429688 3137.75 3404.640625 3120.878906 C 3361.269531 3091.460938 3321.71875 3067.5 3296.101562 3052.539062 C 3277.101562 3041.460938 3252.929688 3046.378906 3239.519531 3063.828125 C 3226.851562 3080.421875 3211.679688 3104.921875 3198.851562 3138.960938 C 3191.601562 3158.171875 3198.679688 3179.828125 3215.929688 3190.960938 L 3304.808594 3248.210938 L 3329.179688 3263.921875 C 3344.351562 3273.671875 3360.429688 3281.75 3377.140625 3288.039062 C 3391.640625 3293.5 3406.640625 3297.628906 3421.890625 3300.328125 C 3436.46875 3302.921875 3451.308594 3304.25 3466.21875 3304.25 L 3544.308594 3304.25 C 3551.558594 3290.421875 3562.101562 3276.921875 3574.179688 3264.210938 C 3572.851562 3259.628906 3570.351562 3255.210938 3566.519531 3251.289062 "/>
<path fill-rule="nonzero" fill="rgb(23.925781%, 21.556091%, 22.363281%)" fill-opacity="1" d="M 4456.929688 3288.460938 C 4456.929688 3308.378906 4441.929688 3326.75 4420.101562 3328.628906 C 4404.429688 3330 4385.71875 3330.171875 4364.308594 3327.75 C 4313.929688 3322.171875 4258.558594 3275.628906 4189.640625 3232.328125 C 4162.019531 3214.960938 4132.179688 3198.128906 4099.601562 3184.628906 C 4047.851562 3163.210938 3976.46875 3148.128906 3904.679688 3144 C 3870.679688 3142.039062 3836.601562 3142.539062 3804.429688 3146.078125 C 3765.21875 3150.328125 3728.890625 3159 3699.21875 3173.078125 C 3691.808594 3176.578125 3684.769531 3180.421875 3678.21875 3184.628906 C 3661.269531 3169.289062 3642.390625 3152.421875 3622.140625 3134.75 C 3588.851562 3105.628906 3551.929688 3074.328125 3513.640625 3043.578125 L 3513.601562 3043.578125 C 3463.519531 3003.421875 3411.269531 2964.378906 3362.21875 2933 C 3362.21875 2933 3542.769531 2810.128906 3787.851562 2804.25 C 4032.929688 2798.378906 4229.019531 2982.671875 4278.058594 3082.671875 C 4323.429688 3175.25 4330.140625 3245.960938 4418.019531 3248.210938 C 4432.601562 3248.539062 4445.769531 3257.039062 4452.429688 3270.039062 C 4455.519531 3276.039062 4456.929688 3282.328125 4456.929688 3288.460938 "/>
<path fill-rule="nonzero" fill="rgb(23.925781%, 21.556091%, 22.363281%)" fill-opacity="1" d="M 3913.351562 3419.75 C 3913.351562 3467.828125 3874.351562 3506.828125 3826.21875 3506.828125 C 3778.101562 3506.828125 3739.101562 3467.828125 3739.101562 3419.75 C 3739.101562 3371.628906 3778.101562 3332.628906 3826.21875 3332.628906 C 3874.351562 3332.628906 3913.351562 3371.628906 3913.351562 3419.75 "/>
<path fill-rule="nonzero" fill="rgb(94.921875%, 54.101562%, 18.041992%)" fill-opacity="1" d="M 3031.429688 3531.789062 C 3031.21875 3535.171875 3030.558594 3538.578125 3029.429688 3541.960938 L 3024.46875 3556.671875 L 3019.46875 3571.628906 L 3019.429688 3571.628906 L 2994.929688 3644.539062 C 2987.808594 3665.789062 2964.679688 3677.078125 2943.519531 3669.671875 L 2939.890625 3668.421875 C 2927.429688 3664.039062 2918.519531 3654.171875 2914.851562 3642.539062 C 2912.21875 3634.25 2912.269531 3625.039062 2915.558594 3616.289062 L 2953.640625 3515 C 2961.21875 3494.75 2983.46875 3484.171875 3004.019531 3491 C 3021.71875 3496.921875 3032.601562 3513.960938 3031.429688 3531.789062 "/>
<path fill-rule="nonzero" fill="rgb(18.041992%, 16.088867%, 16.479492%)" fill-opacity="1" d="M 3654.269531 3542.960938 L 3630.519531 3542.539062 L 3370.808594 3537.878906 L 3242.558594 3535.578125 L 3031.429688 3531.789062 C 3032.601562 3513.960938 3021.71875 3496.921875 3004.019531 3491 C 2983.46875 3484.171875 2961.21875 3494.75 2953.640625 3515 L 2915.558594 3616.289062 C 2912.269531 3625.039062 2912.21875 3634.25 2914.851562 3642.539062 C 2914.851562 3642.539062 2818.71875 3567.710938 2717.269531 3539.039062 C 2816.46875 3489.578125 2935.101562 3453.25 3054.519531 3453.25 C 3113.890625 3453.25 3178.179688 3453.789062 3242.519531 3456.539062 C 3285.351562 3458.328125 3328.21875 3461.128906 3369.679688 3465.328125 C 3469.351562 3475.5 3560.640625 3494.128906 3623.140625 3527.75 C 3625.679688 3529.128906 3628.269531 3530.460938 3630.851562 3531.789062 C 3638.558594 3535.75 3646.351562 3539.460938 3654.269531 3542.960938 "/>
<path fill-rule="nonzero" fill="rgb(14.109802%, 12.547302%, 12.939453%)" fill-opacity="1" d="M 3804.429688 3875.289062 L 3804.429688 3622.578125 L 3983.101562 3801.25 C 3932.058594 3840 3870.96875 3866.210938 3804.429688 3875.289062 Z M 3699.21875 3875.289062 C 3632.679688 3866.210938 3571.601562 3840 3520.519531 3801.289062 L 3699.21875 3622.578125 Z M 4189.640625 3232.328125 C 4162.019531 3214.960938 4132.179688 3198.128906 4099.601562 3184.628906 C 4047.851562 3163.210938 3976.46875 3148.128906 3904.679688 3144 C 3932.71875 3156.171875 3959.019531 3171.628906 3983.101562 3189.921875 L 3895.429688 3277.578125 C 3929.269531 3294.128906 3954.808594 3320.789062 3969.640625 3352.128906 L 4057.46875 3264.289062 C 4106.21875 3328.539062 4135.140625 3408.710938 4135.140625 3495.578125 C 4135.140625 3582.460938 4106.21875 3662.628906 4057.46875 3726.878906 L 3890.851562 3560.25 C 3848.140625 3578.878906 3795.71875 3581.128906 3742.101562 3570.789062 L 3602.101562 3570.960938 L 3446.140625 3726.921875 C 3411.929688 3681.789062 3387.46875 3628.828125 3375.929688 3571.210938 L 3246.601562 3571.378906 C 3283.21875 3817.539062 3495.46875 4006.378906 3751.808594 4006.378906 C 4033.929688 4006.378906 4262.601562 3777.671875 4262.601562 3495.578125 C 4262.601562 3399.289062 4235.96875 3309.210938 4189.640625 3232.328125 "/>
<path fill-rule="nonzero" fill="rgb(14.109802%, 12.547302%, 12.939453%)" fill-opacity="1" d="M 3804.429688 3146.078125 L 3804.429688 3259.75 C 3791.558594 3260.289062 3778.179688 3262.039062 3764.308594 3265.039062 C 3764.308594 3265.039062 3739.269531 3240.628906 3699.21875 3203.789062 L 3699.21875 3173.078125 C 3728.890625 3159 3765.21875 3150.328125 3804.429688 3146.078125 "/>
<path fill-rule="nonzero" fill="rgb(14.109802%, 12.547302%, 12.939453%)" fill-opacity="1" d="M 3373.351562 3556.671875 L 3244.640625 3556.671875 C 3243.808594 3549.671875 3243.101562 3542.671875 3242.558594 3535.578125 L 3370.808594 3537.878906 C 3371.46875 3544.171875 3372.308594 3550.460938 3373.351562 3556.671875 "/>
<path fill-rule="nonzero" fill="rgb(14.109802%, 12.547302%, 12.939453%)" fill-opacity="1" d="M 3689.308594 3556.671875 L 3616.390625 3556.671875 L 3630.519531 3542.539062 L 3654.269531 3542.960938 C 3665.808594 3548.039062 3677.519531 3552.628906 3689.308594 3556.671875 "/>
<path fill-rule="nonzero" fill="rgb(23.925781%, 21.556091%, 22.363281%)" fill-opacity="1" d="M 3742.101562 3570.789062 L 3602.101562 3570.960938 L 3375.929688 3571.210938 L 3246.601562 3571.378906 L 3019.46875 3571.628906 L 3024.46875 3556.671875 L 3689.351562 3556.671875 C 3706.851562 3562.628906 3724.558594 3567.378906 3742.101562 3570.789062 "/>
</svg>
