<?xml version="1.0" encoding="UTF-8"?>
<svg xmlns="http://www.w3.org/2000/svg" xmlns:xlink="http://www.w3.org/1999/xlink" width="4285" height="2355" viewBox="0 0 4285 2355">
<path fill-rule="nonzero" fill="rgb(0%, 0%, 0%)" fill-opacity="1" d="M 2705.070312 1.828125 C 2703.730469 3.191406 2702.71875 45.410156 2702.71875 95.800781 C 2702.71875 177.160156 2703.390625 187.371094 2708.078125 189.421875 C 2716.460938 192.820312 2723.488281 186.351562 2728.851562 170.691406 C 2731.199219 162.859375 2734.878906 156.390625 2736.558594 156.390625 C 2741.910156 156.390625 2749.621094 133.929688 2749.621094 119.28125 C 2749.621094 111.800781 2750.628906 104.988281 2752.300781 104.308594 C 2753.640625 103.621094 2764.019531 107.03125 2775.410156 112.480469 C 2792.488281 120.308594 2797.179688 124.050781 2801.539062 134.609375 C 2808.570312 151.96875 2808.230469 152.988281 2794.171875 152.988281 C 2779.089844 152.988281 2757.320312 162.519531 2748.28125 172.730469 C 2744.929688 176.820312 2741.578125 184.988281 2741.25 190.78125 C 2740.238281 202.359375 2733.878906 208.480469 2726.171875 205.421875 C 2673.25 183.628906 2656.5 185.328125 2612.960938 217.679688 C 2590.179688 234.359375 2578.789062 251.039062 2578.789062 267.378906 C 2578.789062 273.171875 2562.710938 280.660156 2538.261719 286.109375 C 2524.859375 289.171875 2520.171875 291.890625 2514.808594 300.398438 C 2502.089844 322.191406 2511.128906 349.769531 2533.230469 357.261719 C 2544.289062 361 2547.308594 360.320312 2570.421875 348.75 C 2589.511719 339.210938 2597.878906 336.488281 2604.578125 338.53125 C 2609.941406 339.558594 2618.648438 341.601562 2624.011719 342.621094 C 2631.039062 343.640625 2636.070312 347.71875 2640.089844 354.53125 C 2643.441406 360.320312 2645.449219 365.429688 2645.109375 365.769531 C 2644.441406 366.109375 2620.320312 368.828125 2591.179688 372.230469 C 2562.039062 375.640625 2528.550781 381.089844 2516.488281 384.148438 C 2494.71875 390.621094 2489.691406 389.601562 2501.75 381.769531 C 2505.429688 379.390625 2508.449219 373.941406 2508.449219 369.171875 C 2508.449219 360.660156 2508.109375 360.660156 2484 355.558594 C 2474.621094 353.851562 2442.800781 359.640625 2417.679688 367.808594 C 2390.878906 376.320312 2370.449219 394.359375 2376.480469 404.238281 C 2378.480469 407.300781 2384.519531 411.050781 2389.878906 412.070312 C 2398.578125 413.769531 2397.578125 414.449219 2379.488281 419.558594 C 2311.5 439.308594 2201.628906 489.011719 2125.589844 534.628906 C 2074.011719 565.609375 2010.03125 609.53125 1954.089844 652.421875 C 1905.191406 689.871094 1874.710938 724.601562 1855.621094 765.449219 L 1844.230469 788.941406 L 1832.171875 780.429688 C 1812.738281 767.148438 1798 771.578125 1689.480469 822.640625 C 1607.078125 861.460938 1522 893.800781 1476.109375 903.328125 C 1462.039062 906.390625 1437.589844 908.78125 1421.851562 908.78125 C 1344.808594 908.78125 1276.808594 879.5 1203.789062 815.160156 C 1145.839844 764.089844 1122.058594 755.921875 1055.070312 764.089844 C 1005.828125 770.210938 976.6875 777.371094 912.378906 798.808594 C 865.484375 814.128906 865.484375 814.128906 845.050781 835.921875 C 830.3125 851.921875 822.609375 857.710938 816.246094 857.710938 C 811.21875 857.710938 806.867188 859.410156 806.195312 861.800781 C 805.191406 864.519531 793.46875 866.21875 771.359375 866.898438 C 706.714844 868.941406 632.6875 883.238281 543.925781 910.480469 C 521.816406 917.289062 497.03125 926.820312 488.65625 931.929688 C 480.28125 937.03125 462.53125 946.230469 448.796875 952.359375 C 419.988281 965.628906 386.496094 984.691406 352.328125 1008.191406 C 326.535156 1025.550781 323.1875 1026.910156 318.832031 1020.101562 C 317.492188 1018.058594 303.089844 1007.511719 287.347656 996.609375 L 258.539062 977.550781 L 256.53125 956.101562 C 254.519531 939.761719 255.191406 933.628906 259.210938 929.199219 C 266.914062 920.351562 265.238281 912.859375 252.511719 899.589844 C 242.796875 889.371094 239.449219 888.011719 231.742188 890.058594 C 223.371094 892.089844 223.035156 892.78125 228.730469 894.820312 C 233.753906 896.859375 234.089844 898.21875 231.074219 900.269531 C 227.722656 902.308594 227.054688 914.21875 229.0625 956.101562 L 231.410156 1009.210938 L 217.003906 1014.320312 L 202.269531 1019.421875 L 200.257812 1042.910156 C 198.917969 1059.589844 196.574219 1067.089844 192.890625 1069.46875 C 188.871094 1071.511719 187.195312 1076.960938 187.195312 1087.171875 C 187.195312 1101.128906 187.863281 1101.808594 203.941406 1110.320312 C 212.984375 1115.089844 219.351562 1119.851562 218.34375 1121.210938 C 217.003906 1122.230469 208.632812 1123.261719 199.589844 1123.261719 C 190.542969 1123.261719 179.15625 1125.300781 174.464844 1128.019531 C 168.4375 1131.429688 142.644531 1134.148438 95.417969 1136.871094 C 47.515625 1139.601562 22.394531 1142.320312 16.03125 1145.730469 C 1.964844 1152.871094 -1.050781 1168.878906 0.289062 1225.730469 C 1.628906 1290.070312 3.636719 1293.480469 35.792969 1293.480469 C 50.867188 1293.480469 60.914062 1295.179688 65.269531 1298.589844 C 68.621094 1301.308594 77.328125 1303.691406 84.363281 1303.691406 C 91.0625 1303.691406 96.757812 1304.710938 96.757812 1306.078125 C 96.757812 1307.441406 92.066406 1320.039062 86.039062 1334.671875 C 80.34375 1348.96875 76.660156 1363.269531 77.664062 1365.996094 C 79.003906 1369.738281 88.382812 1371.78125 118.527344 1373.484375 C 181.835938 1377.570312 216.335938 1371.78125 267.585938 1347.949219 C 283.328125 1340.800781 299.738281 1333.988281 304.429688 1332.96875 C 325.867188 1327.179688 339.933594 1322.761719 343.953125 1319.691406 C 353.667969 1312.199219 346.300781 1323.101562 323.1875 1350.679688 C 272.609375 1411.273438 235.761719 1478.339844 211.3125 1555.621094 C 192.890625 1613.15625 187.863281 1640.050781 183.175781 1700.3125 C 170.113281 1875.640625 235.09375 2048.246094 362.042969 2173.871094 C 408.9375 2220.511719 429.367188 2235.832031 506.742188 2282.8125 C 540.910156 2303.578125 593.832031 2325.027344 610.914062 2325.027344 C 614.601562 2325.027344 619.289062 2326.390625 620.964844 2328.089844 C 626.660156 2333.878906 689.964844 2345.113281 737.53125 2348.859375 C 803.851562 2354.304688 872.515625 2348.175781 939.175781 2331.496094 C 965.96875 2324.6875 1034.96875 2298.472656 1037.980469 2294.046875 C 1038.988281 2292.683594 1050.378906 2285.875 1063.109375 2279.066406 C 1163.929688 2224.9375 1250.679688 2138.464844 1307.628906 2035.648438 C 1318.011719 2016.925781 1329.730469 1993.433594 1333.421875 1983.902344 C 1340.789062 1965.175781 1354.519531 1947.132812 1361.21875 1947.132812 C 1363.898438 1947.132812 1365.910156 1956.324219 1367.25 1971.644531 C 1368.25 1984.921875 1370.601562 1997.179688 1372.269531 1998.882812 C 1375.628906 2002.285156 1406.109375 2006.03125 1491.859375 2013.519531 C 1525.019531 2016.242188 1578.609375 2022.710938 1610.761719 2027.480469 C 1666.699219 2035.988281 1673.398438 2035.988281 1756.808594 2033.945312 C 1835.519531 2031.90625 1844.558594 2031.90625 1846.238281 2037.011719 C 1847.578125 2040.074219 1851.261719 2042.457031 1854.949219 2042.457031 C 1858.300781 2042.457031 1861.980469 2044.839844 1863.320312 2047.566406 C 1865.660156 2054.375 1883.421875 2054.035156 1889.109375 2046.882812 C 1899.5 2034.628906 1913.230469 2032.585938 1999.648438 2030.542969 C 2046.210938 2029.519531 2085.398438 2027.136719 2086.398438 2025.777344 C 2087.410156 2024.074219 2091.429688 2022.03125 2095.449219 2020.667969 C 2101.808594 2018.628906 2103.820312 2019.988281 2106.5 2027.136719 C 2108.511719 2032.925781 2113.199219 2036.332031 2119.558594 2037.691406 C 2124.921875 2039.054688 2130.28125 2041.777344 2131.289062 2044.5 C 2134.300781 2052.332031 2147.699219 2049.949219 2158.421875 2039.394531 L 2168.800781 2029.863281 L 2248.859375 2027.480469 C 2327.910156 2024.753906 2329.578125 2024.753906 2354.371094 2014.542969 C 2380.160156 2003.988281 2416 1998.539062 2433.078125 2002.964844 C 2437.769531 2004.328125 2443.128906 2008.753906 2444.808594 2013.519531 C 2449.160156 2025.09375 2458.539062 2024.074219 2465.570312 2011.816406 C 2471.941406 2000.242188 2479.308594 1999.222656 2503.089844 2005.691406 C 2520.839844 2010.457031 2570.421875 2005.691406 2597.21875 1996.5 C 2617.980469 1989.347656 2666.21875 1960.070312 2683.628906 1944.070312 C 2704.398438 1925.003906 2737.558594 1879.726562 2751.289062 1851.808594 C 2758.328125 1837.851562 2773.398438 1800.742188 2785.128906 1769.421875 C 2796.511719 1738.101562 2813.589844 1694.183594 2822.96875 1672.054688 C 2854.128906 1596.816406 2857.808594 1544.386719 2836.371094 1478 C 2832.351562 1466.085938 2830.011719 1453.148438 2831.011719 1449.0625 C 2845.078125 1388.464844 2875.230469 1275.101562 2880.25 1264.539062 C 2883.601562 1257.050781 2890.96875 1226.75 2896.660156 1197.46875 C 2908.71875 1134.148438 2928.148438 1057.550781 2938.871094 1031.339844 C 2943.21875 1020.78125 2950.929688 993.890625 2955.621094 971.761719 C 2964.328125 932.949219 2968.679688 920.351562 2980.070312 902.648438 C 2985.089844 894.820312 2985.089844 894.820312 2992.128906 901.628906 C 2997.488281 906.390625 3003.851562 908.101562 3017.589844 907.761719 C 3027.96875 907.410156 3041.03125 909.460938 3047.058594 911.839844 C 3059.121094 916.949219 3069.5 914.570312 3066.488281 907.070312 C 3065.480469 904.351562 3066.148438 901.96875 3068.160156 901.96875 C 3078.550781 901.96875 3123.101562 1044.960938 3151.230469 1168.539062 C 3158.601562 1201.558594 3164.96875 1230.160156 3164.96875 1232.199219 C 3164.96875 1233.898438 3153.578125 1248.199219 3139.511719 1263.519531 C 3045.71875 1367.355469 2984.421875 1508.300781 2970.019531 1652.988281 C 2968.011719 1675.457031 2967 1696.566406 2968.339844 1699.972656 C 2970.359375 1705.078125 2972.359375 1704.738281 2985.761719 1694.863281 C 2994.140625 1688.734375 3006.199219 1676.820312 3012.558594 1668.648438 L 3024.289062 1653.328125 L 3024.289062 1712.90625 C 3024.289062 1745.589844 3025.289062 1773.507812 3026.628906 1774.527344 C 3027.628906 1775.890625 3029.308594 1782.019531 3029.980469 1787.804688 C 3039.019531 1880.746094 3072.851562 1978.113281 3123.101562 2056.074219 C 3154.921875 2105.441406 3213.539062 2174.550781 3250.039062 2205.53125 C 3295.269531 2244 3361.921875 2286.558594 3403.460938 2303.238281 C 3459.058594 2325.707031 3500.589844 2339.667969 3525.039062 2343.75 C 3539.78125 2346.136719 3561.558594 2350.21875 3573.609375 2352.261719 C 3602.421875 2357.710938 3723.679688 2353.964844 3756.160156 2346.476562 C 3769.230469 2343.75 3786.980469 2340.007812 3795.691406 2338.644531 C 3863.351562 2326.390625 3968.191406 2274.300781 4045.898438 2214.042969 C 4077.058594 2190.210938 4119.929688 2147.65625 4150.410156 2110.546875 C 4210.371094 2037.351562 4265.96875 1904.917969 4280.710938 1800.0625 C 4287.410156 1751.039062 4286.070312 1662.179688 4277.359375 1615.199219 C 4264.300781 1543.367188 4248.558594 1497.40625 4209.699219 1417.742188 C 4165.480469 1326.5 4084.421875 1241.390625 3981.261719 1178.070312 C 3906.230469 1131.769531 3833.878906 1105.210938 3747.121094 1092.28125 C 3731.039062 1089.890625 3718.980469 1086.828125 3720.320312 1085.808594 C 3721.660156 1084.441406 3735.398438 1080.019531 3751.140625 1075.941406 C 3782.289062 1067.429688 3794.351562 1061.980469 3801.378906 1053.460938 C 3808.078125 1045.300781 3802.058594 1041.550781 3775.261719 1036.441406 C 3656.011719 1013.289062 3503.609375 1031.339844 3391.058594 1082.058594 C 3382.351562 1086.148438 3373.980469 1089.210938 3372.308594 1089.210938 C 3370.96875 1089.210938 3364.929688 1082.398438 3359.570312 1074.230469 C 3352.878906 1064.699219 3344.839844 1057.550781 3336.128906 1054.148438 C 3328.761719 1051.078125 3319.378906 1043.589844 3314.691406 1037.460938 C 3310.339844 1031.339844 3281.53125 982.308594 3250.71875 928.519531 C 3203.820312 845.800781 3195.109375 828.429688 3195.109375 816.859375 C 3195.109375 794.390625 3176.359375 764.089844 3162.289062 764.089844 C 3159.269531 764.089844 3148.558594 749.449219 3135.820312 726.980469 C 3111.710938 684.429688 3109.359375 672.511719 3124.101562 661.269531 C 3129.128906 657.53125 3139.839844 643.570312 3148.21875 630.289062 C 3158.601562 613.609375 3166.980469 604.421875 3175.019531 600.339844 C 3181.378906 597.269531 3187.738281 592.839844 3189.078125 590.800781 C 3193.441406 584.671875 3192.101562 574.460938 3186.398438 567.988281 C 3182.050781 562.890625 3181.71875 558.460938 3185.398438 533.269531 C 3192.429688 481.519531 3181.378906 435.558594 3149.890625 389.261719 C 3137.839844 371.210938 3134.820312 363.730469 3136.160156 356.570312 C 3139.839844 338.191406 3109.03125 324.570312 3054.429688 320.828125 C 3026.289062 318.78125 3020.601562 317.429688 3005.859375 307.550781 C 2996.480469 301.421875 2983.078125 294.269531 2976.050781 291.210938 L 2963.320312 285.761719 L 2969.351562 276.570312 C 2972.359375 271.121094 2981.070312 258.871094 2988.441406 249 C 2999.5 233.679688 3002.851562 230.949219 3009.210938 232.648438 C 3020.269531 235.378906 3025.289062 225.839844 3018.589844 215.628906 C 3014.230469 208.820312 3014.570312 206.441406 3022.269531 190.78125 C 3026.96875 181.25 3030.980469 172.390625 3030.980469 170.691406 C 3030.980469 168.988281 3016.25 158.441406 2998.488281 147.199219 C 2949.589844 116.558594 2941.878906 112.140625 2937.859375 112.140625 C 2935.519531 112.140625 2921.789062 130.519531 2907.050781 152.988281 C 2892.308594 175.460938 2879.25 193.839844 2878.238281 193.839844 C 2877.238281 193.839844 2877.570312 192.480469 2878.578125 190.441406 C 2879.578125 188.738281 2878.238281 182.949219 2875.558594 177.5 C 2870.199219 166.949219 2858.480469 160.820312 2841.730469 159.121094 C 2833.019531 158.101562 2830.679688 155.710938 2822.96875 136.648438 C 2811.25 108.050781 2800.53125 97.5 2775.410156 89.671875 C 2764.019531 86.261719 2753.640625 81.839844 2752.300781 79.789062 C 2750.960938 78.089844 2749.621094 70.261719 2749.621094 62.429688 C 2749.621094 52.898438 2746.941406 44.730469 2741.25 36.898438 C 2736.558594 30.429688 2729.191406 19.871094 2725.171875 13.410156 C 2717.800781 1.828125 2709.761719 -2.929688 2705.070312 1.828125 Z M 2890.300781 298.359375 C 2894.988281 301.421875 2899.339844 304.488281 2900.019531 304.828125 C 2900.679688 305.511719 2896.660156 311.300781 2890.96875 318.109375 L 2880.589844 330.019531 L 2880.921875 320.488281 C 2881.261719 315.378906 2880.25 307.210938 2878.910156 301.769531 C 2875.898438 291.210938 2878.578125 290.191406 2890.300781 298.359375 Z M 2980.070312 311.640625 L 2994.808594 320.488281 L 2982.078125 326.960938 C 2968.011719 333.769531 2960.308594 338.53125 2947.578125 347.71875 C 2937.859375 355.210938 2933.839844 355.558594 2933.839844 348.410156 C 2933.839844 345.679688 2928.820312 338.871094 2923.128906 333.089844 C 2912.070312 322.871094 2912.738281 321.851562 2930.828125 323.210938 C 2937.199219 323.550781 2942.21875 320.488281 2947.578125 313.339844 C 2957.628906 300.738281 2961.308594 300.398438 2980.070312 311.640625 Z M 2737.230469 353.851562 C 2742.25 363.378906 2744.589844 370.871094 2742.589844 370.871094 C 2736.558594 370.871094 2712.101562 344.320312 2714.449219 340.230469 C 2719.46875 332.058594 2728.519531 337.511719 2737.230469 353.851562 Z M 2783.109375 459.730469 C 2796.851562 465.859375 2808.910156 471.640625 2809.910156 472.328125 C 2810.910156 473.011719 2807.898438 476.75 2803.210938 480.5 C 2798.519531 484.238281 2794.5 490.710938 2794.5 494.460938 C 2794.171875 498.539062 2792.488281 502.28125 2790.480469 502.96875 C 2788.46875 503.648438 2782.78125 507.390625 2778.089844 511.140625 C 2767.371094 519.648438 2768.710938 528.839844 2783.109375 550.628906 C 2790.148438 560.5 2791.820312 565.609375 2789.140625 566.628906 C 2767.710938 574.800781 2744.929688 581.609375 2743.929688 580.929688 C 2743.25 580.25 2745.929688 565.949219 2749.949219 549.269531 C 2755.648438 524.410156 2756.648438 513.179688 2754.980469 487.648438 C 2753.640625 470.28125 2751.96875 453.601562 2750.628906 450.539062 C 2748.28125 443.730469 2745.929688 443.390625 2783.109375 459.730469 Z M 3025.289062 712.339844 C 3039.359375 737.191406 3051.078125 760 3051.078125 763.070312 C 3051.078125 769.871094 3042.371094 777.371094 3038.019531 774.640625 C 3033.328125 771.578125 2980.738281 682.378906 2980.738281 677.609375 C 2980.738281 674.210938 2991.121094 668.078125 2997.488281 667.398438 C 2998.488281 667.058594 3010.890625 687.488281 3025.289062 712.339844 Z M 2825.320312 875.75 C 2828 878.480469 2833.359375 949.96875 2831.351562 953.710938 C 2830.339844 955.421875 2826.320312 954.058594 2822.96875 950.988281 C 2819.289062 947.589844 2810.25 944.519531 2803.210938 944.179688 C 2790.148438 943.5 2785.789062 946.910156 2793.5 951.328125 C 2795.511719 953.03125 2794.171875 955.761719 2789.808594 958.820312 C 2785.128906 962.230469 2783.109375 966.308594 2784.121094 970.398438 C 2785.128906 974.140625 2783.789062 978.230469 2781.109375 979.589844 C 2777.089844 981.96875 2777.089844 984.691406 2781.769531 999 C 2784.789062 1008.53125 2789.480469 1018.738281 2792.488281 1021.808594 C 2795.839844 1025.890625 2796.511719 1031.339844 2795.171875 1039.511719 C 2791.148438 1060.621094 2781.769531 1058.570312 2769.378906 1034.058594 C 2766.03125 1027.25 2757.660156 1016.019531 2751.289062 1009.550781 C 2736.21875 994.230469 2692 972.78125 2676.261719 973.121094 C 2664.878906 973.121094 2622.339844 959.160156 2613.289062 952.019531 C 2608.269531 948.269531 2607.601562 932.949219 2612.289062 921.03125 L 2615.300781 912.519531 L 2633.390625 920.351562 C 2643.101562 924.78125 2662.199219 931.929688 2675.589844 936.011719 C 2689.328125 940.101562 2712.441406 948.609375 2726.839844 955.078125 C 2741.578125 961.890625 2756.648438 966.648438 2760.671875 965.96875 C 2766.03125 965.289062 2770.050781 958.820312 2778.429688 937.710938 C 2784.449219 922.730469 2790.820312 908.78125 2792.828125 906.390625 C 2794.839844 904.011719 2796.511719 899.929688 2796.511719 897.199219 C 2796.511719 894.480469 2798.191406 888.011719 2800.53125 883.238281 C 2803.550781 876.78125 2803.550781 873.710938 2800.53125 870.648438 C 2792.828125 862.820312 2796.851562 861.460938 2809.910156 867.578125 C 2817.28125 870.988281 2824.308594 874.730469 2825.320312 875.75 Z M 3169.660156 964.949219 L 3224.921875 1061.640625 L 3222.910156 1078.660156 C 3221.238281 1092.960938 3222.578125 1098.410156 3230.28125 1113.730469 C 3235.308594 1123.601562 3243.011719 1135.511719 3247.359375 1140.621094 C 3255.398438 1149.46875 3257.75 1157.300781 3252.390625 1157.300781 C 3250.71875 1157.300781 3234.640625 1168.878906 3216.878906 1183.179688 C 3199.128906 1197.46875 3184.058594 1208.710938 3183.390625 1208.03125 C 3182.71875 1207.351562 3177.699219 1185.898438 3171.660156 1160.710938 C 3155.921875 1091.601562 3140.519531 1035.761719 3120.421875 973.460938 C 3103.671875 921.710938 3102.660156 916.949219 3107.691406 911.160156 C 3112.378906 905.371094 3112.039062 903.671875 3103.671875 888.351562 C 3094.289062 871.671875 3094.960938 868.941406 3108.359375 868.269531 C 3112.378906 867.929688 3131.46875 898.21875 3169.660156 964.949219 Z M 2529.550781 893.800781 C 2572.761719 906.390625 2579.128906 907.070312 2589.511719 901.628906 C 2599.558594 896.179688 2603.578125 902.308594 2600.898438 919.671875 C 2599.558594 927.839844 2597.21875 936.691406 2595.539062 939.421875 C 2592.859375 943.839844 2591.519531 943.5 2587.5 937.371094 C 2584.480469 933.289062 2575.441406 928.519531 2566.398438 926.140625 C 2557.691406 923.761719 2543.949219 918.648438 2536.25 914.570312 C 2522.851562 907.761719 2520.839844 907.410156 2497.730469 911.839844 C 2484.328125 914.570312 2465.910156 917.289062 2456.53125 917.96875 C 2446.480469 918.988281 2438.109375 921.710938 2435.761719 925.121094 C 2429.398438 933.289062 2427.71875 928.519531 2433.078125 917.628906 C 2435.761719 912.179688 2438.109375 906.390625 2438.109375 904.351562 C 2438.109375 902.648438 2443.800781 895.839844 2450.839844 889.710938 C 2465.570312 876.429688 2469.589844 876.429688 2529.550781 893.800781 Z M 2109.851562 902.308594 C 2109.851562 903.671875 2107.171875 906.730469 2103.480469 908.441406 C 2100.140625 910.480469 2095.449219 916.609375 2093.101562 922.058594 C 2090.761719 927.839844 2086.070312 933.289062 2082.71875 934.308594 C 2079.039062 935.671875 2073.679688 939.078125 2070.320312 942.480469 C 2067.308594 945.550781 2053.238281 953.03125 2039.179688 959.160156 L 2013.71875 970.398438 L 1994.628906 959.839844 C 1983.910156 954.398438 1971.179688 949.628906 1966.148438 949.628906 L 1957.441406 949.628906 L 1967.488281 942.820312 C 1983.230469 932.269531 2027.789062 915.589844 2060.949219 908.441406 C 2077.359375 904.691406 2093.101562 900.269531 2096.121094 898.910156 C 2101.480469 895.5 2109.851562 897.539062 2109.851562 902.308594 Z M 2184.210938 905.710938 C 2188.898438 908.441406 2194.589844 913.199219 2196.941406 916.609375 C 2200.628906 922.730469 2199.949219 923.070312 2186.21875 920.691406 C 2178.179688 919.671875 2163.78125 917.96875 2154.058594 917.289062 C 2135.308594 916.269531 2125.589844 912.179688 2141.339844 912.179688 C 2147.699219 912.179688 2151.050781 909.800781 2153.390625 904.011719 C 2156.070312 896.519531 2157.75 895.839844 2165.789062 898.558594 C 2170.808594 899.929688 2179.191406 903.328125 2184.210938 905.710938 Z M 2253.878906 935.671875 C 2263.261719 953.710938 2249.191406 960.179688 2237.46875 943.160156 C 2228.429688 930.230469 2228.429688 929.199219 2240.480469 929.199219 C 2246.851562 929.199219 2251.539062 931.589844 2253.878906 935.671875 Z M 1986.921875 973.460938 C 1998.640625 979.25 1998.640625 984.691406 1986.589844 981.96875 C 1979.21875 980.609375 1970.511719 983.339844 1950.75 993.550781 C 1920.929688 1009.210938 1901.511719 1026.570312 1891.460938 1046.660156 C 1887.769531 1054.148438 1878.730469 1066.398438 1871.359375 1074.230469 L 1858.300781 1088.191406 L 1865.328125 1105.890625 C 1876.378906 1134.828125 1885.089844 1150.488281 1890.449219 1150.488281 C 1897.820312 1150.488281 1900.171875 1157.300781 1893.800781 1162.070312 C 1888.441406 1165.808594 1888.441406 1167.179688 1892.800781 1176.371094 C 1895.808594 1181.808594 1898.828125 1190.320312 1899.828125 1195.089844 C 1901.171875 1199.859375 1905.859375 1205.640625 1910.550781 1207.691406 C 1919.929688 1212.109375 1920.601562 1209.050781 1902.851562 1249.21875 C 1899.160156 1257.730469 1892.460938 1286.671875 1887.769531 1313.910156 C 1880.398438 1356.460938 1878.390625 1363.953125 1871.691406 1368.378906 C 1867.339844 1371.101562 1857.289062 1378.589844 1849.589844 1384.378906 C 1841.550781 1390.507812 1834.519531 1395.613281 1833.839844 1395.613281 C 1828.148438 1395.613281 1819.78125 1371.78125 1816.429688 1346.25 C 1812.410156 1316.289062 1812.410156 1315.949219 1820.109375 1308.460938 C 1824.46875 1304.371094 1829.160156 1295.179688 1830.160156 1288.03125 C 1831.5 1280.539062 1834.179688 1269.988281 1836.191406 1264.199219 C 1838.871094 1255.011719 1838.539062 1251.269531 1832.5 1241.390625 C 1827.480469 1232.199219 1826.808594 1228.800781 1829.820312 1227.769531 C 1832.171875 1226.75 1835.179688 1219.601562 1836.519531 1212.109375 C 1838.199219 1201.558594 1840.210938 1198.160156 1844.558594 1198.160156 C 1852.941406 1198.160156 1870.019531 1164.449219 1866.671875 1155.261719 C 1865.328125 1151.859375 1859.300781 1142.660156 1852.941406 1134.828125 C 1844.230469 1123.941406 1841.878906 1117.808594 1841.878906 1106.570312 C 1841.878906 1091.601562 1850.261719 1048.019531 1855.28125 1036.441406 C 1856.960938 1032.699219 1858.628906 1025.890625 1859.300781 1021.121094 C 1860.308594 1011.929688 1881.738281 993.890625 1912.230469 976.871094 C 1928.96875 967.328125 1932.988281 966.648438 1954.089844 967.679688 C 1967.160156 968.691406 1981.558594 971.078125 1986.921875 973.460938 Z M 2828.671875 1076.960938 C 2806.230469 1153.558594 2802.210938 1166.148438 2797.519531 1174.320312 C 2794.839844 1179.089844 2793.5 1180.109375 2794.5 1177.050781 C 2795.511719 1173.308594 2793.5 1169.21875 2789.140625 1166.148438 C 2782.78125 1161.390625 2782.449219 1160.03125 2786.128906 1145.050781 C 2788.46875 1136.191406 2799.53125 1106.230469 2810.910156 1078.660156 C 2829.339844 1033.71875 2832.019531 1029.289062 2834.699219 1037.121094 C 2836.710938 1043.25 2835.03125 1054.148438 2828.671875 1076.960938 Z M 2752.96875 1199.519531 C 2752.96875 1207.011719 2758.328125 1209.050781 2763.691406 1203.941406 C 2766.03125 1201.21875 2773.070312 1198.5 2778.761719 1197.128906 L 2789.808594 1195.089844 L 2779.089844 1216.878906 L 2768.378906 1239.011719 L 2759.328125 1230.160156 C 2754.308594 1225.390625 2749.621094 1217.898438 2748.609375 1214.160156 C 2747.949219 1210.070312 2745.929688 1203.941406 2744.589844 1200.539062 C 2742.921875 1196.449219 2743.589844 1194.75 2747.609375 1194.75 C 2750.628906 1194.75 2752.96875 1196.789062 2752.96875 1199.519531 Z M 1179.671875 1266.929688 C 1210.820312 1294.160156 1236.621094 1310.839844 1268.441406 1324.121094 C 1282.5 1330.25 1302.601562 1339.441406 1312.648438 1344.550781 C 1322.699219 1349.648438 1335.089844 1354.761719 1339.78125 1355.78125 C 1352.179688 1358.84375 1386.339844 1404.125 1386.339844 1417.402344 C 1386.339844 1428.636719 1376.628906 1433.0625 1350.171875 1433.0625 C 1308.96875 1433.0625 1301.929688 1431.019531 1293.558594 1416.378906 C 1269.441406 1373.824219 1215.851562 1311.519531 1170.289062 1273.730469 C 1155.558594 1261.480469 1142.160156 1250.238281 1140.480469 1248.539062 C 1138.46875 1247.179688 1141.148438 1245.820312 1146.511719 1245.820312 C 1152.878906 1245.820312 1162.589844 1251.941406 1179.671875 1266.929688 Z M 3678.460938 1301.988281 C 3684.820312 1308.460938 3697.550781 1351.019531 3697.550781 1365.996094 C 3697.550781 1373.824219 3693.859375 1383.355469 3686.160156 1394.59375 C 3679.800781 1403.785156 3674.101562 1414.335938 3673.429688 1418.082031 C 3672.429688 1422.167969 3669.410156 1416.722656 3665.058594 1402.421875 C 3661.039062 1390.167969 3655.011719 1372.464844 3651.320312 1363.269531 C 3647.96875 1353.738281 3643.621094 1338.421875 3642.609375 1329.230469 C 3641.269531 1319.691406 3639.269531 1308.800781 3638.261719 1304.371094 C 3636.589844 1297.230469 3637.589844 1296.878906 3655.011719 1296.878906 C 3666.730469 1296.878906 3675.441406 1298.589844 3678.460938 1301.988281 Z M 3617.488281 1307.441406 C 3627.210938 1317.308594 3636.589844 1339.441406 3650.988281 1387.78125 L 3663.050781 1429.65625 L 3632.898438 1429.65625 C 3616.148438 1429.65625 3593.039062 1431.359375 3580.980469 1433.402344 C 3564.910156 1436.464844 3558.539062 1436.125 3555.859375 1433.402344 C 3551.171875 1428.636719 3552.179688 1351.691406 3557.199219 1325.140625 C 3560.550781 1307.78125 3560.890625 1307.441406 3574.621094 1304.371094 C 3598.398438 1298.929688 3609.789062 1299.609375 3617.488281 1307.441406 Z M 3735.730469 1311.179688 C 3731.71875 1324.121094 3713.960938 1351.359375 3710.609375 1349.308594 C 3708.941406 1348.289062 3707.601562 1337.738281 3707.601562 1325.480469 L 3707.601562 1303.691406 L 3723 1303.691406 C 3737.070312 1303.691406 3738.078125 1304.371094 3735.730469 1311.179688 Z M 2690 1334.671875 C 2693.339844 1346.589844 2695.359375 1356.800781 2694.679688 1357.484375 C 2693.679688 1358.164062 2687.988281 1356.800781 2681.621094 1354.421875 C 2675.261719 1352.371094 2666.550781 1351.359375 2662.199219 1352.71875 C 2650.140625 1355.78125 2641.429688 1363.953125 2644.441406 1368.71875 C 2645.78125 1371.101562 2646.789062 1380.292969 2646.121094 1388.804688 C 2645.449219 1400.378906 2647.121094 1406.847656 2652.140625 1413.316406 C 2656.160156 1418.082031 2659.179688 1426.253906 2659.179688 1431.019531 C 2659.179688 1439.53125 2658.839844 1439.53125 2633.390625 1438.851562 C 2612.289062 1438.167969 2603.578125 1439.871094 2589.511719 1446 C 2577.121094 1451.445312 2568.410156 1453.148438 2561.710938 1451.785156 C 2548.308594 1448.722656 2546.628906 1444.296875 2555.011719 1432.722656 C 2558.691406 1427.613281 2562.039062 1420.125 2562.039062 1416.722656 C 2562.039062 1411.613281 2563.71875 1410.59375 2570.75 1411.953125 C 2579.128906 1413.65625 2579.460938 1412.976562 2577.449219 1404.464844 C 2575.441406 1396.292969 2576.109375 1395.273438 2582.808594 1396.292969 C 2588.839844 1396.976562 2590.851562 1395.613281 2591.519531 1388.464844 C 2592.519531 1380.972656 2593.859375 1379.953125 2601.230469 1381.316406 C 2609.269531 1383.015625 2609.609375 1382.335938 2607.601562 1373.824219 C 2605.589844 1365.652344 2606.261719 1364.632812 2612.960938 1364.972656 C 2625.019531 1365.996094 2626.019531 1365.3125 2622.339844 1358.164062 C 2618.980469 1352.039062 2619.660156 1351.359375 2629.699219 1352.039062 C 2639.078125 1353.058594 2641.089844 1351.691406 2641.761719 1345.230469 C 2642.429688 1340.460938 2645.109375 1337.738281 2649.46875 1337.738281 C 2653.480469 1337.738281 2655.828125 1335.359375 2655.828125 1331.269531 C 2655.828125 1326.839844 2658.511719 1324.121094 2663.539062 1323.441406 C 2667.558594 1322.761719 2671.238281 1320.039062 2671.238281 1317.308594 C 2671.570312 1314.589844 2671.910156 1310.839844 2672.238281 1309.480469 C 2672.238281 1308.121094 2675.261719 1308.121094 2678.269531 1310.160156 C 2681.289062 1311.859375 2686.648438 1322.761719 2690 1334.671875 Z M 3543.46875 1326.5 L 3543.128906 1342.839844 L 3537.101562 1329.230469 C 3533.078125 1319.691406 3532.078125 1314.929688 3534.761719 1313.230469 C 3541.789062 1308.121094 3543.46875 1310.839844 3543.46875 1326.5 Z M 1999.308594 1320.371094 C 1994.289062 1330.589844 1994.960938 1331.949219 2006.011719 1329.570312 C 2015.730469 1327.859375 2016.058594 1328.210938 2014.050781 1336.710938 C 2011.710938 1345.230469 2012.378906 1345.570312 2022.089844 1343.519531 C 2032.140625 1341.480469 2032.480469 1341.820312 2030.46875 1351.359375 C 2028.460938 1362.589844 2029.800781 1363.269531 2039.839844 1357.824219 C 2045.871094 1354.761719 2046.539062 1355.441406 2045.539062 1363.953125 C 2044.539062 1372.464844 2045.539062 1373.484375 2053.910156 1372.464844 C 2062.621094 1371.441406 2062.960938 1372.121094 2059.609375 1378.25 C 2057.601562 1381.996094 2053.238281 1386.761719 2049.890625 1388.804688 C 2040.851562 1393.570312 2015.390625 1389.144531 2000.648438 1380.292969 L 1988.261719 1372.464844 L 1988.929688 1349.308594 C 1989.601562 1333.648438 1991.609375 1323.78125 1994.960938 1319.691406 C 2001.988281 1312.199219 2003.671875 1312.199219 1999.308594 1320.371094 Z M 3782.289062 1317.648438 C 3798.699219 1322.078125 3800.378906 1327.519531 3790.671875 1343.871094 C 3780.621094 1361.226562 3730.039062 1429.65625 3727.359375 1429.65625 C 3724.679688 1429.65625 3714.300781 1388.464844 3714.300781 1378.589844 C 3714.300781 1369.058594 3730.039062 1341.820312 3738.078125 1337.398438 C 3741.761719 1335.691406 3744.441406 1330.589844 3744.441406 1325.820312 C 3744.441406 1320.039062 3746.78125 1317.308594 3752.140625 1316.289062 C 3765.210938 1313.570312 3769.230469 1313.910156 3782.289062 1317.648438 Z M 3847.941406 1346.25 C 3873.730469 1359.527344 3874.410156 1368.039062 3853.308594 1431.019531 C 3844.929688 1456.210938 3838.230469 1478 3838.230469 1479.363281 C 3838.570312 1487.191406 3845.601562 1468.808594 3858.660156 1427.957031 C 3866.371094 1403.785156 3875.410156 1380.972656 3878.761719 1377.230469 C 3884.449219 1371.101562 3884.789062 1371.101562 3898.859375 1378.929688 C 3906.890625 1383.355469 3915.609375 1391.1875 3918.28125 1395.953125 C 3922.640625 1403.785156 3922.640625 1407.1875 3916.941406 1424.890625 C 3909.238281 1450.085938 3903.550781 1461.660156 3894.5 1470.171875 C 3885.128906 1479.363281 3843.929688 1493.320312 3842.25 1487.875 C 3840.910156 1483.789062 3831.53125 1482.765625 3831.53125 1486.851562 C 3831.53125 1488.554688 3829.519531 1492.640625 3826.839844 1496.042969 C 3822.488281 1502.171875 3821.148438 1501.492188 3801.050781 1486.171875 C 3789.328125 1476.980469 3769.558594 1464.382812 3757.171875 1458.253906 C 3744.441406 1451.785156 3734.390625 1444.636719 3734.390625 1442.253906 C 3734.730469 1429.65625 3816.121094 1337.738281 3827.179688 1337.738281 C 3829.519531 1337.738281 3838.898438 1341.480469 3847.941406 1346.25 Z M 1809.730469 1392.207031 C 1818.101562 1404.804688 1818.101562 1406.507812 1813.75 1415.359375 C 1804.371094 1433.742188 1800.351562 1434.765625 1783.601562 1422.847656 L 1768.859375 1411.953125 L 1773.550781 1400.378906 C 1776.230469 1393.910156 1777.910156 1386.761719 1777.570312 1384.378906 C 1776.898438 1381.996094 1781.261719 1374.503906 1786.621094 1367.355469 L 1796.660156 1354.761719 L 1798.679688 1366.335938 C 1799.679688 1372.804688 1804.699219 1384.378906 1809.730469 1392.207031 Z M 3543.46875 1384.039062 C 3543.46875 1397.65625 3542.128906 1402.761719 3539.449219 1401.742188 C 3533.75 1399.699219 3532.078125 1380.632812 3536.769531 1371.78125 C 3542.460938 1361.226562 3543.46875 1363.269531 3543.46875 1384.039062 Z M 3707.601562 1409.910156 C 3709.609375 1419.785156 3711.949219 1431.359375 3713.289062 1435.445312 C 3714.628906 1441.234375 3713.628906 1442.933594 3710.609375 1441.914062 C 3707.929688 1440.890625 3699.558594 1438.507812 3691.859375 1436.464844 C 3683.820312 1434.425781 3677.449219 1431.359375 3677.449219 1429.65625 C 3677.449219 1426.253906 3700.558594 1392.207031 3702.570312 1392.207031 C 3703.238281 1392.207031 3705.25 1400.378906 3707.601562 1409.910156 Z M 3401.441406 1433.402344 C 3409.820312 1435.445312 3417.191406 1438.507812 3418.191406 1440.210938 C 3418.859375 1441.914062 3414.511719 1446.679688 3407.808594 1450.765625 C 3399.441406 1456.210938 3395.078125 1462.339844 3392.398438 1472.214844 C 3389.050781 1484.808594 3378 1501.152344 3372.308594 1501.152344 C 3368.28125 1501.152344 3342.488281 1447.703125 3342.488281 1438.507812 C 3342.488281 1432.722656 3347.179688 1425.230469 3356.558594 1416.039062 L 3370.96875 1402.421875 L 3378.671875 1416.039062 C 3385.371094 1427.273438 3389.71875 1430.339844 3401.441406 1433.402344 Z M 3965.519531 1443.277344 C 3965.519531 1444.976562 3962.160156 1446.679688 3957.808594 1446.679688 C 3953.460938 1446.679688 3948.769531 1448.042969 3947.089844 1449.742188 C 3941.398438 1455.53125 3918.949219 1463.703125 3917.28125 1460.636719 C 3916.269531 1458.9375 3921.628906 1448.042969 3929 1436.125 L 3942.738281 1414.679688 L 3954.128906 1427.273438 C 3960.488281 1434.082031 3965.519531 1441.234375 3965.519531 1443.277344 Z M 2714.449219 1429.65625 C 2720.808594 1441.914062 2730.859375 1492.640625 2728.179688 1499.449219 C 2726.511719 1504.214844 2723.160156 1501.152344 2713.109375 1485.148438 C 2702.71875 1468.46875 2700.039062 1461.320312 2698.699219 1441.914062 C 2697.03125 1420.464844 2697.359375 1419.105469 2703.390625 1420.125 C 2707.078125 1420.804688 2711.769531 1424.890625 2714.449219 1429.65625 Z M 3338.46875 1464.382812 C 3355.21875 1484.46875 3369.289062 1506.257812 3369.289062 1512.046875 C 3369.289062 1521.917969 3363.589844 1521.917969 3352.878906 1512.726562 C 3339.140625 1501.152344 3332.441406 1503.875 3333.449219 1520.554688 C 3334.121094 1530.769531 3335.789062 1533.832031 3341.148438 1534.515625 C 3346.511719 1535.195312 3347.851562 1537.578125 3346.511719 1544.046875 C 3345.511719 1550.515625 3343.160156 1552.21875 3334.449219 1552.21875 C 3326.078125 1552.21875 3320.050781 1548.132812 3303.96875 1531.792969 C 3293.25 1520.554688 3285.21875 1510.34375 3286.558594 1509.320312 C 3287.890625 1507.960938 3291.910156 1509.664062 3295.601562 1513.066406 C 3300.289062 1517.492188 3303.640625 1518.171875 3305.980469 1515.789062 C 3308.328125 1513.40625 3307.660156 1511.023438 3303.96875 1507.960938 C 3293.929688 1499.449219 3298.609375 1481.746094 3316.699219 1460.980469 C 3325.75 1451.105469 3327.75 1451.445312 3338.46875 1464.382812 Z M 3989.628906 1470.511719 C 3997 1478 4002.359375 1486.511719 4001.691406 1489.574219 C 4000.351562 1496.726562 3975.898438 1507.277344 3927.660156 1521.578125 C 3905.21875 1528.386719 3890.148438 1531.449219 3888.140625 1529.40625 C 3886.128906 1527.367188 3889.140625 1517.832031 3896.179688 1504.554688 C 3906.230469 1484.808594 3909.238281 1481.746094 3930.339844 1470.171875 C 3961.828125 1453.148438 3972.550781 1453.148438 3989.628906 1470.511719 Z M 3876.75 1519.195312 C 3870.390625 1533.492188 3863.691406 1545.410156 3862.011719 1545.410156 C 3858.660156 1545.410156 3834.878906 1518.515625 3834.878906 1515.109375 C 3835.21875 1509.320312 3842.25 1504.894531 3863.351562 1497.066406 C 3876.410156 1492.300781 3887.128906 1489.234375 3887.808594 1490.597656 C 3888.140625 1491.960938 3883.449219 1504.894531 3876.75 1519.195312 Z M 4023.128906 1523.960938 C 4029.488281 1531.109375 4039.199219 1552.898438 4039.199219 1560.046875 C 4039.199219 1566.175781 3996 1602.605469 3956.46875 1630.179688 C 3926.988281 1650.605469 3924.980469 1651.289062 3914.269531 1647.882812 C 3904.550781 1644.476562 3902.210938 1641.414062 3897.179688 1624.390625 C 3893.828125 1613.839844 3887.46875 1597.835938 3883.109375 1588.984375 C 3874.070312 1570.601562 3872.730469 1558.347656 3879.769531 1552.558594 C 3885.460938 1547.792969 3951.78125 1525.664062 3969.871094 1522.941406 C 3976.898438 1521.578125 3988.289062 1518.855469 3994.988281 1516.472656 C 4008.058594 1511.703125 4013.75 1513.40625 4023.128906 1523.960938 Z M 1379.308594 1548.472656 C 1382.320312 1550.515625 1386.679688 1550.515625 1390.359375 1548.472656 C 1395.390625 1545.75 1397.058594 1546.769531 1399.738281 1553.921875 C 1401.75 1559.027344 1403.089844 1567.878906 1403.089844 1574.007812 C 1403.089844 1584.21875 1401.75 1585.582031 1389.359375 1589.328125 C 1378.96875 1592.390625 1374.621094 1592.730469 1371.609375 1589.667969 C 1366.910156 1584.902344 1356.191406 1551.535156 1358.210938 1548.132812 C 1360.550781 1544.386719 1373.609375 1544.726562 1379.308594 1548.472656 Z M 3307.660156 1566.515625 C 3320.390625 1574.007812 3320.050781 1586.261719 3307.320312 1586.261719 C 3303.308594 1586.261719 3297.609375 1589.328125 3295.269531 1593.070312 C 3290.570312 1600.21875 3284.210938 1601.582031 3260.761719 1600.5625 C 3248.039062 1599.878906 3247.699219 1599.878906 3249.710938 1587.964844 C 3250.71875 1581.496094 3254.730469 1571.625 3258.421875 1566.175781 C 3264.78125 1557.324219 3266.460938 1556.644531 3281.191406 1558.347656 C 3289.910156 1559.367188 3301.628906 1563.113281 3307.660156 1566.515625 Z M 1518.320312 1593.070312 C 1514.300781 1617.242188 1514.628906 1616.902344 1494.871094 1616.902344 C 1480.460938 1616.902344 1476.109375 1615.539062 1474.769531 1610.773438 C 1473.769531 1607.710938 1471.761719 1602.605469 1470.421875 1599.878906 C 1469.410156 1597.15625 1468.738281 1591.710938 1469.410156 1587.964844 C 1470.078125 1581.496094 1472.761719 1580.816406 1495.199219 1580.816406 L 1520.320312 1580.816406 Z M 4054.609375 1598.179688 C 4056.960938 1604.644531 4059.300781 1614.859375 4059.300781 1620.988281 C 4059.300781 1629.839844 4057.289062 1633.242188 4049.25 1637.328125 C 4043.890625 1640.050781 4030.160156 1648.222656 4018.769531 1655.714844 L 3998.339844 1668.992188 L 3971.878906 1662.863281 C 3957.480469 1659.457031 3945.421875 1655.714844 3945.421875 1654.351562 C 3945.421875 1652.988281 3956.140625 1644.820312 3969.199219 1635.96875 C 3982.261719 1627.117188 3997.671875 1615.199219 4003.699219 1609.753906 C 4023.460938 1591.027344 4030.828125 1586.601562 4040.210938 1586.261719 C 4047.910156 1586.261719 4050.589844 1588.644531 4054.609375 1598.179688 Z M 3314.691406 1625.753906 C 3317.03125 1630.859375 3318.039062 1636.308594 3317.03125 1637.667969 C 3316.03125 1639.371094 3314.691406 1648.902344 3314.019531 1658.4375 C 3312.679688 1673.757812 3313.691406 1677.160156 3319.71875 1682.269531 C 3326.078125 1687.035156 3326.75 1688.734375 3323.070312 1696.566406 C 3321.058594 1701.332031 3320.050781 1707.800781 3321.058594 1710.523438 C 3323.398438 1716.3125 3324.738281 1716.652344 3267.800781 1693.503906 C 3233.300781 1679.203125 3224.25 1661.5 3237.988281 1633.925781 C 3244.679688 1619.964844 3251.378906 1617.582031 3285.550781 1617.242188 C 3309.671875 1616.902344 3311.011719 1617.242188 3314.691406 1625.753906 Z M 4072.359375 1671.03125 L 4072.699219 1682.269531 L 4048.578125 1679.882812 C 4035.179688 1678.523438 4022.789062 1676.480469 4021.121094 1675.457031 C 4019.109375 1674.4375 4029.160156 1667.96875 4042.890625 1661.5 C 4070.359375 1647.882812 4072.03125 1648.5625 4072.359375 1671.03125 Z M 3959.480469 1671.714844 C 3973.890625 1675.800781 3985.609375 1679.882812 3985.609375 1681.246094 C 3985.609375 1683.96875 3946.421875 1708.824219 3941.730469 1708.824219 C 3940.058594 1708.824219 3930.679688 1705.417969 3921.628906 1701.671875 C 3903.550781 1693.84375 3900.871094 1686.011719 3910.578125 1672.054688 C 3916.941406 1662.523438 3925.988281 1662.523438 3959.480469 1671.714844 Z M 4068.351562 1704.738281 C 4074.039062 1711.546875 4076.050781 1718.355469 4076.050781 1731.292969 C 4076.050781 1740.824219 4075.378906 1749.335938 4074.378906 1750.355469 C 4070.019531 1754.78125 3957.808594 1712.90625 3960.820312 1708.140625 C 3962.839844 1704.738281 3988.289062 1690.777344 3997 1688.394531 C 4000.679688 1687.375 4016.429688 1688.734375 4032.171875 1691.121094 C 4056.289062 1695.203125 4062.320312 1697.246094 4068.351562 1704.738281 Z M 3254.730469 1692.480469 C 3257.078125 1694.863281 3280.191406 1706.097656 3305.980469 1717.332031 C 3332.109375 1728.566406 3353.210938 1739.121094 3353.210938 1740.824219 C 3353.210938 1742.527344 3345.511719 1748.3125 3336.128906 1753.082031 L 3319.050781 1762.273438 L 3289.570312 1756.144531 C 3273.488281 1752.738281 3253.730469 1746.613281 3245.359375 1741.84375 L 3230.28125 1733.675781 L 3229.28125 1712.566406 L 3228.269531 1691.460938 L 3237.320312 1693.84375 C 3243.679688 1695.546875 3245.691406 1695.203125 3244.019531 1692.140625 C 3240.671875 1687.035156 3249.710938 1687.375 3254.730469 1692.480469 Z M 3982.601562 1737.417969 C 4018.769531 1750.355469 4043.890625 1760.570312 4062.648438 1770.101562 C 4066.339844 1771.804688 4067.679688 1778.613281 4067.679688 1794.953125 C 4067.679688 1830.703125 4069.679688 1830.019531 3982.929688 1828.660156 C 3943.070312 1827.976562 3907.898438 1825.933594 3904.550781 1824.234375 C 3894.839844 1818.785156 3894.171875 1806.191406 3901.871094 1772.824219 C 3909.238281 1741.164062 3914.601562 1730.953125 3926.988281 1725.503906 C 3937.378906 1721.417969 3938.71875 1721.417969 3982.601562 1737.417969 Z M 3269.808594 1764.65625 C 3282.199219 1767.039062 3293.25 1769.761719 3293.929688 1770.785156 C 3295.929688 1772.824219 3251.050781 1792.570312 3240.671875 1794.613281 C 3235.308594 1795.296875 3233.300781 1792.914062 3230.949219 1782.699219 C 3225.261719 1758.867188 3229.609375 1756.824219 3269.808594 1764.65625 Z M 3351.199219 1779.636719 C 3355.21875 1782.019531 3346.851562 1789.847656 3317.03125 1813 C 3272.148438 1847.722656 3252.058594 1859.980469 3248.039062 1855.894531 C 3246.359375 1854.191406 3244.019531 1844.320312 3243.011719 1834.105469 L 3241.339844 1815.382812 L 3261.101562 1803.125 C 3298.609375 1779.976562 3316.03125 1773.167969 3331.769531 1774.867188 C 3339.808594 1775.890625 3348.519531 1778.273438 3351.199219 1779.636719 Z M 3380.339844 1829 C 3389.050781 1846.363281 3402.121094 1868.152344 3409.820312 1877.34375 C 3422.550781 1893.003906 3422.878906 1894.363281 3417.519531 1898.449219 C 3414.179688 1900.832031 3408.480469 1902.875 3404.800781 1902.875 C 3400.78125 1902.875 3387.710938 1905.941406 3375.320312 1909.34375 C 3336.46875 1920.578125 3289.910156 1927.386719 3281.871094 1923.300781 C 3274.828125 1919.21875 3262.441406 1895.386719 3262.101562 1885.171875 C 3262.101562 1881.769531 3269.140625 1872.578125 3277.511719 1864.746094 C 3296.609375 1847.042969 3358.910156 1797.339844 3362.25 1797.339844 C 3363.589844 1797.339844 3371.628906 1811.636719 3380.339844 1829 Z M 1598.699219 1820.828125 C 1599.710938 1822.191406 1598.699219 1828.320312 1596.359375 1834.445312 C 1593.339844 1842.617188 1593.339844 1846.703125 1596.691406 1851.808594 C 1598.699219 1855.554688 1600.710938 1859.640625 1600.710938 1860.660156 C 1600.710938 1863.726562 1545.109375 1859.640625 1532.050781 1855.554688 L 1522 1852.832031 L 1532.050781 1848.746094 C 1544.78125 1843.636719 1573.578125 1828.660156 1582.289062 1822.53125 C 1589.660156 1817.082031 1596.019531 1816.402344 1598.699219 1820.828125 Z M 3920.289062 1858.617188 C 3930.679688 1870.191406 3938.71875 1880.40625 3937.710938 1881.429688 C 3936.371094 1882.449219 3925.648438 1882.109375 3913.589844 1880.746094 C 3892.488281 1878.703125 3891.488281 1878.023438 3881.441406 1863.382812 C 3868.710938 1844.660156 3870.390625 1838.191406 3887.808594 1838.191406 C 3899.53125 1838.191406 3902.878906 1840.574219 3920.289062 1858.617188 Z M 4028.148438 1847.042969 L 4058.628906 1849.085938 L 4055.949219 1858.617188 C 4054.609375 1864.066406 4051.261719 1872.578125 4048.578125 1878.023438 L 4044.230469 1887.554688 L 4010.730469 1886.535156 C 3963.5 1884.832031 3955.128906 1882.109375 3939.050781 1862.363281 C 3931.351562 1853.171875 3925.320312 1845.339844 3925.320312 1844.660156 C 3925.320312 1842.957031 3988.960938 1844.320312 4028.148438 1847.042969 Z M 3877.089844 1889.257812 C 3883.449219 1889.257812 3889.480469 1896.066406 3907.230469 1923.984375 C 3962.5 2010.457031 3964.839844 2016.585938 3949.769531 2032.925781 C 3937.710938 2045.863281 3925.988281 2050.628906 3916.941406 2046.203125 C 3913.261719 2044.5 3907.898438 2042.117188 3905.21875 2041.097656 C 3894.5 2036.671875 3802.71875 1967.902344 3797.03125 1959.730469 C 3787.648438 1947.132812 3792.339844 1938.621094 3822.820312 1909.683594 C 3846.269531 1887.894531 3849.949219 1885.511719 3859 1887.214844 C 3864.691406 1888.238281 3872.730469 1889.257812 3877.089844 1889.257812 Z M 3965.519531 1912.410156 C 3975.558594 1923.300781 3988.289062 1938.621094 3993.648438 1946.792969 L 4003.699219 1961.09375 L 3997.671875 1972.667969 C 3994.320312 1979.136719 3987.621094 1987.648438 3983.269531 1992.074219 L 3974.890625 1999.902344 L 3966.859375 1989.6875 C 3955.128906 1975.390625 3901.871094 1894.363281 3901.871094 1891.300781 C 3901.871094 1889.597656 3911.921875 1889.597656 3924.648438 1890.621094 C 3946.761719 1893.003906 3947.429688 1893.34375 3965.519531 1912.410156 Z M 4018.441406 1908.324219 C 4026.140625 1909.683594 4033.511719 1911.726562 4034.179688 1913.429688 C 4036.859375 1917.175781 4025.46875 1939.644531 4019.78125 1942.027344 C 4017.101562 1943.046875 4006.71875 1935.558594 3993.320312 1922.28125 L 3971.210938 1900.492188 L 3987.621094 1903.214844 C 3996.660156 1904.578125 4010.398438 1906.960938 4018.441406 1908.324219 Z M 3422.878906 1916.492188 C 3422.878906 1920.238281 3421.539062 1923.300781 3419.871094 1923.300781 C 3418.191406 1923.300781 3413.5 1928.410156 3409.480469 1934.878906 C 3403.789062 1944.75 3396.089844 1949.515625 3364.929688 1962.792969 C 3344.171875 1971.644531 3324.738281 1980.496094 3321.730469 1982.199219 C 3314.691406 1986.964844 3307.320312 1981.179688 3298.609375 1963.816406 C 3290.910156 1948.15625 3290.570312 1943.730469 3297.269531 1943.730469 C 3300.289062 1943.730469 3307.320312 1941.347656 3313.019531 1938.28125 C 3322.058594 1933.515625 3405.128906 1911.386719 3418.859375 1910.023438 C 3420.878906 1910.023438 3422.878906 1912.75 3422.878906 1916.492188 Z M 3492.558594 1950.199219 C 3516.671875 1964.15625 3549.828125 1977.773438 3560.21875 1977.773438 C 3578.640625 1977.773438 3571.269531 1996.15625 3536.429688 2036.671875 C 3520.019531 2055.734375 3506.621094 2072.417969 3506.621094 2073.777344 C 3506.621094 2075.480469 3502.941406 2075.820312 3498.578125 2074.460938 C 3492.21875 2073.097656 3488.199219 2075.480469 3477.140625 2088.417969 C 3461.398438 2106.800781 3455.378906 2107.144531 3437.28125 2091.140625 C 3426.570312 2081.609375 3426.570312 2081.609375 3429.921875 2062.886719 C 3433.601562 2044.5 3442.308594 2010.117188 3456.378906 1961.433594 C 3460.058594 1948.15625 3464.75 1936.921875 3466.761719 1936.921875 C 3468.769531 1936.921875 3480.5 1942.707031 3492.558594 1950.199219 Z M 3444.988281 1949.515625 C 3443.980469 1952.921875 3438.628906 1971.644531 3433.269531 1991.390625 C 3427.570312 2011.136719 3419.53125 2037.351562 3415.179688 2049.949219 L 3407.140625 2072.757812 L 3393.070312 2060.84375 C 3384.699219 2053.351562 3379.339844 2045.863281 3379.339844 2041.097656 C 3379.339844 2031.5625 3404.460938 1971.644531 3412.160156 1962.792969 C 3419.199219 1954.625 3436.621094 1943.730469 3442.308594 1943.730469 C 3444.988281 1943.730469 3446 1946.113281 3444.988281 1949.515625 Z M 3780.949219 1970.625 C 3786.308594 1984.921875 3788.988281 2014.203125 3784.96875 2016.585938 C 3782.960938 2017.945312 3775.589844 2013.179688 3767.890625 2006.371094 C 3753.480469 1993.09375 3750.808594 1981.179688 3757.839844 1962.792969 C 3760.519531 1954.964844 3761.859375 1954.28125 3769.230469 1957.6875 C 3773.921875 1960.070312 3778.941406 1965.519531 3780.949219 1970.625 Z M 3385.699219 1981.859375 C 3381.679688 1989.6875 3373.308594 2004.328125 3366.609375 2014.203125 L 3354.890625 2032.585938 L 3341.820312 2019.648438 C 3334.789062 2012.839844 3329.089844 2005.351562 3329.089844 2002.964844 C 3329.089844 2000.582031 3334.789062 1995.816406 3341.820312 1992.074219 C 3348.519531 1988.328125 3361.589844 1981.519531 3370.628906 1976.410156 C 3379.671875 1971.644531 3388.378906 1967.558594 3390.058594 1967.558594 C 3391.730469 1967.558594 3389.71875 1974.027344 3385.699219 1981.859375 Z M 3736.070312 1988.667969 C 3743.769531 1997.859375 3744.78125 2001.605469 3743.101562 2014.882812 C 3742.101562 2023.394531 3740.421875 2045.523438 3739.078125 2063.90625 C 3737.738281 2087.398438 3735.730469 2097.609375 3732.378906 2099.652344 C 3729.371094 2101.355469 3726.359375 2110.886719 3725.019531 2124.503906 L 3722.671875 2146.292969 L 3705.25 2147.316406 C 3695.539062 2147.996094 3684.480469 2146.632812 3680.46875 2144.589844 C 3672.089844 2139.824219 3661.710938 2117.355469 3640.609375 2056.074219 C 3631.890625 2030.882812 3623.859375 2007.390625 3622.519531 2004.328125 C 3618.828125 1995.476562 3632.230469 1989.007812 3659.359375 1986.625 C 3672.429688 1985.261719 3687.5 1982.878906 3692.859375 1981.179688 C 3713.960938 1975.050781 3726.359375 1977.09375 3736.070312 1988.667969 Z M 3834.878906 2009.777344 C 3850.628906 2021.011719 3870.390625 2035.648438 3878.761719 2042.457031 C 3887.46875 2048.925781 3897.179688 2056.074219 3900.53125 2058.460938 C 3906.558594 2062.203125 3906.230469 2063.226562 3896.179688 2072.757812 C 3880.429688 2087.738281 3870.050781 2089.441406 3859 2079.226562 C 3853.96875 2074.460938 3841.578125 2065.269531 3831.53125 2058.460938 C 3811.429688 2045.183594 3800.039062 2028.839844 3796.359375 2007.734375 C 3793.339844 1992.414062 3796.019531 1982.878906 3802.058594 1986.625 C 3804.398438 1988.328125 3819.140625 1998.539062 3834.878906 2009.777344 Z M 3606.769531 1992.753906 C 3609.789062 1996.5 3609.121094 2000.925781 3603.089844 2013.179688 C 3599.070312 2021.691406 3594.71875 2028.839844 3593.378906 2028.839844 C 3589.359375 2028.839844 3587.011719 1997.519531 3590.691406 1992.753906 C 3595.71875 1986.625 3601.75 1986.625 3606.769531 1992.753906 Z M 3776.261719 2026.457031 C 3785.640625 2035.988281 3787.320312 2040.414062 3789.328125 2061.183594 C 3795.359375 2122.804688 3793.011719 2133.015625 3772.910156 2135.058594 C 3763.199219 2136.082031 3762.859375 2135.398438 3761.859375 2120.761719 C 3761.191406 2112.25 3758.511719 2103.058594 3755.828125 2099.992188 C 3751.480469 2095.226562 3751.480469 2089.097656 3754.488281 2059.480469 C 3756.160156 2040.414062 3757.839844 2022.710938 3757.839844 2019.988281 C 3757.839844 2012.160156 3764.539062 2014.542969 3776.261719 2026.457031 Z M 3578.308594 2042.457031 C 3579.980469 2055.734375 3578.96875 2060.160156 3569.589844 2075.140625 C 3538.441406 2124.503906 3525.378906 2136.082031 3510.308594 2127.570312 C 3501.261719 2122.804688 3501.261719 2116.675781 3509.96875 2108.84375 C 3514.328125 2104.757812 3516.671875 2098.972656 3516 2094.207031 C 3515.328125 2088.078125 3522.359375 2077.523438 3543.46875 2052.332031 C 3561.558594 2030.882812 3572.609375 2020.328125 3573.949219 2023.054688 C 3575.289062 2025.09375 3577.300781 2033.945312 3578.308594 2042.457031 Z M 3647.96875 2117.355469 C 3658.359375 2151.742188 3659.699219 2149.699219 3627.878906 2149.359375 C 3612.46875 2149.015625 3598.730469 2147.65625 3597.058594 2145.953125 C 3595.390625 2144.25 3593.710938 2138.125 3593.039062 2132.675781 C 3592.03125 2123.824219 3593.039062 2122.460938 3600.070312 2122.460938 C 3606.769531 2122.460938 3609.121094 2124.847656 3611.128906 2133.699219 C 3612.808594 2139.824219 3615.480469 2143.910156 3617.160156 2142.890625 C 3623.191406 2139.144531 3620.511719 2121.78125 3612.46875 2109.527344 C 3603.089844 2095.566406 3595.71875 2063.566406 3598.730469 2049.949219 C 3599.738281 2044.839844 3603.761719 2035.308594 3607.441406 2028.839844 L 3614.480469 2017.605469 L 3627.878906 2056.417969 C 3635.25 2077.863281 3644.289062 2105.101562 3647.96875 2117.355469 Z M 3848.28125 2102.035156 C 3848.28125 2104.078125 3842.25 2108.84375 3834.878906 2112.25 C 3817.460938 2120.421875 3813.78125 2116.675781 3808.75 2086.375 C 3802.058594 2048.925781 3802.71875 2048.585938 3826.511719 2074.460938 C 3838.570312 2087.054688 3848.28125 2099.652344 3848.28125 2102.035156 Z M 3588.019531 2095.90625 C 3589.359375 2103.058594 3588.351562 2107.824219 3585.339844 2110.546875 C 3582.320312 2113.269531 3580.308594 2120.761719 3580.308594 2129.613281 C 3580.308594 2142.207031 3579.308594 2144.589844 3573.949219 2144.589844 C 3552.179688 2144.589844 3552.179688 2131.3125 3573.28125 2090.460938 C 3581.648438 2074.121094 3584.328125 2075.140625 3588.019531 2095.90625 Z M 3588.019531 2095.90625 "/>
</svg>
