<?xml version="1.0" encoding="UTF-8"?>
<svg xmlns="http://www.w3.org/2000/svg" xmlns:xlink="http://www.w3.org/1999/xlink" width="3578" height="2624" viewBox="0 0 3578 2624">
<path fill-rule="nonzero" fill="rgb(100%, 6.272888%, 0.784302%)" fill-opacity="1" d="M 2943.671875 1242.128906 C 2940.390625 1242.890625 2937.390625 1244.609375 2934.800781 1246.71875 C 2913.828125 1263.679688 2936.671875 1285.601562 2943.78125 1302.21875 C 2946.839844 1309.359375 2946.890625 1317.53125 2950.199219 1324.480469 C 2953.039062 1330.480469 2962.308594 1334.300781 2961.179688 1341.410156 C 2958.160156 1360.519531 2929.320312 1365.238281 2930.640625 1386.820312 C 2931.488281 1400.679688 2943.910156 1411.75 2957.910156 1409.710938 C 2968.910156 1408.109375 2977.210938 1398.710938 2984.628906 1391.28125 C 3016.488281 1359.421875 3014.949219 1316.429688 2994.628906 1278.171875 C 2985.589844 1261.179688 2965.558594 1237.070312 2943.671875 1242.128906 M 254.96875 1436.21875 C 241.824219 1438.570312 228.847656 1449.441406 218.453125 1457.300781 C 183.089844 1484.03125 157.191406 1524.019531 151.796875 1568.511719 C 149.589844 1586.71875 147 1608.488281 152.359375 1626.394531 C 155.589844 1637.1875 167.175781 1644.667969 178.375 1642.921875 C 187.433594 1641.507812 195.566406 1635.417969 198.15625 1626.394531 C 200.21875 1619.230469 197.980469 1611.410156 197.96875 1604.128906 C 197.945312 1589.328125 198.519531 1574.890625 202.320312 1560.488281 C 208.757812 1536.089844 224.726562 1514.171875 244.28125 1498.550781 C 254.617188 1490.289062 272.480469 1483.898438 279.121094 1472.320312 C 288.714844 1455.601562 274.890625 1432.660156 254.96875 1436.21875 Z M 254.96875 1436.21875 "/>
<path fill-rule="nonzero" fill="rgb(0.392151%, 0.392151%, 0.392151%)" fill-opacity="1" d="M 628.300781 1714.9375 C 596.632812 1719.097656 565.941406 1721.375 534.789062 1729.597656 C 457.757812 1749.945312 388.707031 1792.125 331.886719 1847.519531 C 205.390625 1970.820312 172.816406 2169.46875 236.84375 2330.851562 C 265.105469 2402.089844 315.894531 2465.511719 375.375 2513.023438 C 471.554688 2589.855469 596.808594 2618.085938 717.363281 2602.234375 C 856.617188 2583.921875 986.320312 2490.199219 1049.21875 2364.695312 C 1085.160156 2293.003906 1102.148438 2209.519531 1096.671875 2129.578125 C 1083.238281 1933.550781 934.238281 1762.398438 741.40625 1723.824219 C 705.398438 1716.621094 665.074219 1710.109375 628.300781 1714.9375 M 3108.601562 1731.859375 C 3076.929688 1736.015625 3046.238281 1738.296875 3015.089844 1746.515625 C 2938.058594 1766.867188 2869.011719 1809.046875 2812.191406 1864.441406 C 2685.699219 1987.742188 2653.121094 2186.390625 2717.140625 2347.773438 C 2745.398438 2419.011719 2796.191406 2482.433594 2855.679688 2529.945312 C 2951.859375 2606.777344 3077.109375 2635.007812 3197.660156 2619.15625 C 3336.910156 2600.84375 3466.621094 2507.117188 3529.519531 2381.617188 C 3565.460938 2309.925781 3582.449219 2226.441406 3576.96875 2146.5 C 3563.550781 1950.472656 3414.539062 1779.316406 3221.710938 1740.746094 C 3185.699219 1733.542969 3145.378906 1727.03125 3108.601562 1731.859375 M 635.425781 1884.035156 C 672.203125 1879.6875 710.691406 1887.5 744.96875 1900.324219 C 757.636719 1905.050781 771.300781 1908.855469 783.265625 1915.230469 C 878.683594 1966.121094 939.316406 2074.128906 931.914062 2182.125 C 926.945312 2254.644531 893.832031 2325.714844 839.371094 2374.339844 C 827.203125 2385.207031 812.832031 2393.96875 799.296875 2402.992188 C 767.617188 2424.105469 726.265625 2439.976562 687.972656 2443.808594 C 599.554688 2452.652344 510.105469 2425.355469 447.546875 2360.242188 C 398.355469 2309.042969 366.855469 2234.011719 368.261719 2162.53125 C 370.019531 2073.257812 415.359375 1985.625 488.480469 1934.289062 C 521.621094 1911.027344 562.535156 1893.980469 602.476562 1886.855469 C 613.347656 1884.925781 624.507812 1885.316406 635.425781 1884.035156 M 3115.730469 1900.957031 C 3152.5 1896.609375 3190.988281 1904.417969 3225.269531 1917.242188 C 3237.929688 1921.972656 3251.609375 1925.777344 3263.570312 1932.152344 C 3358.980469 1983.039062 3419.609375 2091.050781 3412.21875 2199.046875 C 3407.25 2271.566406 3374.128906 2342.636719 3319.671875 2391.261719 C 3307.511719 2402.128906 3293.128906 2410.890625 3279.601562 2419.914062 C 3247.921875 2441.027344 3206.570312 2456.898438 3168.269531 2460.726562 C 3108.75 2466.675781 3047.359375 2457.488281 2994.609375 2428.050781 C 2943.21875 2399.375 2900.230469 2353.929688 2875.171875 2300.574219 C 2834.589844 2214.167969 2842.929688 2107.269531 2895.460938 2028.050781 C 2915.191406 1998.289062 2938.738281 1972.675781 2967.890625 1951.84375 C 3001.058594 1928.136719 3042.578125 1910.949219 3082.769531 1903.777344 C 3093.648438 1901.847656 3104.808594 1902.238281 3115.730469 1900.957031 Z M 3115.730469 1900.957031 "/>
<path fill-rule="nonzero" fill="rgb(41.575623%, 39.988708%, 40.795898%)" fill-opacity="1" d="M 636.417969 1868.402344 C 620.632812 1870.476562 604.851562 1871.261719 589.21875 1874.839844 C 541.160156 1885.847656 495.789062 1908.984375 459.191406 1942.097656 C 432.203125 1966.519531 409.394531 1996.433594 393.515625 2029.226562 C 332.261719 2155.742188 372.070312 2312.351562 487.691406 2393.289062 C 517.257812 2413.988281 551.625 2428.484375 586.546875 2437.207031 C 619.125 2445.355469 655.804688 2446.171875 688.964844 2442.203125 C 825.570312 2425.867188 934.945312 2307.410156 940.964844 2169.9375 C 947.03125 2031.414062 850.308594 1904.703125 714.789062 1874.777344 C 690.046875 1869.308594 661.753906 1865.078125 636.417969 1868.402344 M 3113.160156 1893.339844 C 3097.378906 1895.414062 3081.589844 1896.195312 3065.949219 1899.777344 C 3017.898438 1910.785156 2972.519531 1933.921875 2935.929688 1967.035156 C 2908.789062 1991.589844 2885.5 2021.894531 2869.828125 2055.050781 C 2809.910156 2181.882812 2848.539062 2337.101562 2964.429688 2418.226562 C 2994 2438.925781 3028.359375 2453.421875 3063.28125 2462.140625 C 3095.859375 2470.289062 3132.539062 2471.109375 3165.699219 2467.136719 C 3302.300781 2450.804688 3411.691406 2332.347656 3417.699219 2194.875 C 3423.769531 2056.351562 3327.050781 1929.648438 3191.53125 1899.714844 C 3166.789062 1894.246094 3138.488281 1890.015625 3113.160156 1893.339844 M 787.820312 1957.085938 C 784.527344 1964.140625 777.148438 1969.109375 772.042969 1974.898438 C 758.738281 1989.984375 745.417969 2005 732.359375 2020.320312 C 728.113281 2025.296875 720.3125 2039.457031 713.820312 2040.960938 C 710.496094 2041.738281 706.167969 2038.476562 703.214844 2037.25 C 695.578125 2034.078125 687.382812 2031.21875 679.167969 2030.117188 L 667.589844 1916.121094 C 699.433594 1920.144531 729.132812 1926.210938 758.429688 1940.066406 C 768.667969 1944.914062 777.84375 1951.777344 787.820312 1957.085938 M 619.496094 1918.792969 C 621.042969 1954.78125 624.46875 1992.878906 631.074219 2028.335938 C 617.96875 2033.25 604.566406 2035.386719 591.890625 2041.925781 C 587.628906 2044.125 579.835938 2051.105469 574.96875 2050.457031 C 568.324219 2049.558594 559.488281 2037.507812 554.484375 2033.160156 C 540.335938 2020.878906 526.777344 2007.921875 512.625 1995.632812 C 506.207031 1990.054688 495.902344 1984.390625 492.144531 1976.679688 C 529.460938 1950.496094 571.175781 1919.191406 619.496094 1918.792969 M 3264.558594 1982.023438 C 3261.261719 1989.078125 3253.890625 1994.046875 3248.78125 1999.835938 C 3235.480469 2014.921875 3222.160156 2029.9375 3209.101562 2045.253906 C 3204.851562 2050.234375 3197.050781 2064.394531 3190.558594 2065.898438 C 3187.230469 2066.675781 3182.910156 2063.414062 3179.949219 2062.1875 C 3172.320312 2059.015625 3164.121094 2056.15625 3155.910156 2055.050781 L 3144.328125 1941.054688 C 3176.179688 1945.082031 3205.871094 1951.148438 3235.171875 1965.003906 C 3245.410156 1969.847656 3254.578125 1976.714844 3264.558594 1982.023438 M 3096.230469 1943.726562 C 3097.78125 1979.714844 3101.199219 2017.816406 3107.808594 2053.269531 C 3094.699219 2058.1875 3081.300781 2060.324219 3068.628906 2066.859375 C 3064.371094 2069.0625 3056.578125 2076.042969 3051.710938 2075.394531 C 3045.058594 2074.492188 3036.230469 2062.445312 3031.21875 2058.097656 C 3017.070312 2045.816406 3003.519531 2032.859375 2989.359375 2020.566406 C 2982.941406 2014.992188 2972.640625 2009.328125 2968.878906 2001.617188 C 3006.199219 1975.433594 3047.910156 1944.128906 3096.230469 1943.726562 M 825.222656 1989.148438 C 850.972656 2014.894531 871.667969 2048.390625 881.707031 2083.550781 C 884.421875 2093.070312 888.027344 2102.984375 888.457031 2112.941406 C 862.859375 2112.941406 837.363281 2114.835938 811.867188 2116.582031 C 803.917969 2117.125 788.265625 2121.578125 780.941406 2118.605469 C 775.730469 2116.484375 771.238281 2099.304688 768.339844 2094.238281 C 765.039062 2088.46875 753.097656 2077.523438 753.222656 2071.082031 C 753.347656 2064.652344 765.484375 2054.515625 769.484375 2049.707031 C 786.160156 2029.671875 803.804688 2004.234375 825.222656 1989.148438 M 460.082031 2013.195312 C 478.859375 2031.167969 499.804688 2047.070312 518.859375 2064.832031 C 524.824219 2070.378906 537.203125 2077.539062 540.089844 2085.332031 C 542.011719 2090.515625 531.636719 2104.160156 529.414062 2109.378906 C 527.21875 2114.527344 525.617188 2127.527344 521.078125 2130.726562 C 514.460938 2135.390625 498.128906 2132.535156 490.363281 2132.535156 C 464.902344 2132.535156 439.300781 2133.425781 413.769531 2133.425781 C 413.855469 2102.628906 426.171875 2069.292969 440.695312 2042.582031 C 446.15625 2032.539062 451.847656 2021.273438 460.082031 2013.195312 M 3301.960938 2014.085938 C 3327.710938 2039.832031 3348.410156 2073.328125 3358.441406 2108.488281 C 3361.160156 2118.007812 3364.769531 2127.921875 3365.191406 2137.878906 C 3339.601562 2137.878906 3314.101562 2139.773438 3288.601562 2141.519531 C 3280.660156 2142.0625 3265 2146.515625 3257.679688 2143.542969 C 3252.46875 2141.421875 3247.96875 2124.242188 3245.078125 2119.175781 C 3241.78125 2113.402344 3229.828125 2102.457031 3229.960938 2096.019531 C 3230.078125 2089.589844 3242.21875 2079.453125 3246.21875 2074.644531 C 3262.898438 2054.605469 3280.539062 2029.171875 3301.960938 2014.085938 M 2936.820312 2038.128906 C 2955.601562 2056.101562 2976.539062 2072.007812 2995.601562 2089.765625 C 3001.570312 2095.316406 3013.949219 2102.476562 3016.828125 2110.269531 C 3018.75 2115.453125 3008.378906 2129.097656 3006.148438 2134.316406 C 3003.960938 2139.460938 3002.351562 2152.464844 2997.820312 2155.664062 C 2991.199219 2160.328125 2974.859375 2157.46875 2967.101562 2157.46875 C 2941.640625 2157.46875 2916.039062 2158.359375 2890.511719 2158.359375 C 2890.589844 2127.5625 2902.910156 2094.230469 2917.429688 2067.519531 C 2922.898438 2057.472656 2928.578125 2046.207031 2936.820312 2038.128906 M 648.886719 2074.902344 C 696.796875 2069.265625 740.757812 2116.476562 738.800781 2162.8125 C 736.984375 2205.863281 705.109375 2241.148438 662.246094 2246.269531 C 590.074219 2254.910156 538.921875 2168.976562 583.019531 2110.304688 C 599.367188 2088.554688 622.445312 2078.011719 648.886719 2074.902344 M 3125.628906 2099.839844 C 3173.539062 2094.203125 3217.488281 2141.414062 3215.539062 2187.75 C 3213.71875 2230.800781 3181.851562 2266.085938 3138.980469 2271.207031 C 3066.808594 2279.847656 3015.660156 2193.914062 3059.761719 2135.242188 C 3076.101562 2113.492188 3099.179688 2102.949219 3125.628906 2099.839844 M 892.910156 2160.140625 C 892.910156 2207.460938 876.648438 2254.792969 850.160156 2293.730469 C 842.3125 2290.042969 835.898438 2280.21875 829.675781 2274.148438 C 817.550781 2262.320312 804.269531 2251.527344 791.382812 2240.535156 C 786.496094 2236.367188 774.019531 2229.597656 772.160156 2223.339844 C 771.296875 2220.425781 773.921875 2216.988281 775.074219 2214.46875 C 777.945312 2208.207031 780.199219 2201.546875 781.914062 2194.875 C 783.667969 2188.070312 784.722656 2181.339844 785.660156 2174.390625 C 785.949219 2172.253906 785.589844 2168.78125 787.464844 2167.292969 C 793.136719 2162.761719 809.304688 2164.996094 816.316406 2164.515625 C 841.773438 2162.769531 867.375 2160.214844 892.910156 2160.140625 M 520.640625 2179.734375 C 520.902344 2192.320312 526.066406 2204.839844 530.953125 2216.25 C 532.695312 2220.320312 538.226562 2226.910156 537.570312 2231.390625 C 536.476562 2238.871094 523.589844 2248.800781 518.789062 2254.542969 C 503.007812 2273.433594 484.707031 2292.4375 471.660156 2313.324219 L 469.878906 2313.324219 C 463.570312 2303.785156 455.523438 2295.449219 449.453125 2285.714844 C 430.875 2255.941406 413.792969 2216.347656 413.769531 2180.625 L 520.640625 2179.734375 M 3369.648438 2185.078125 C 3369.648438 2232.394531 3353.378906 2279.730469 3326.898438 2318.667969 C 3319.050781 2314.980469 3312.628906 2305.15625 3306.410156 2299.082031 C 3294.289062 2287.257812 3281.011719 2276.460938 3268.121094 2265.472656 C 3263.230469 2261.304688 3250.761719 2254.535156 3248.898438 2248.273438 C 3248.03125 2245.363281 3250.660156 2241.925781 3251.808594 2239.40625 C 3254.679688 2233.144531 3256.929688 2226.480469 3258.648438 2219.8125 C 3260.410156 2213.007812 3261.460938 2206.273438 3262.398438 2199.328125 C 3262.691406 2197.191406 3262.328125 2193.71875 3264.199219 2192.230469 C 3269.878906 2187.695312 3286.050781 2189.933594 3293.058594 2189.453125 C 3318.511719 2187.707031 3344.109375 2185.148438 3369.648438 2185.078125 M 2997.378906 2204.671875 C 2997.640625 2217.253906 3002.808594 2229.777344 3007.691406 2241.1875 C 3009.441406 2245.253906 3014.960938 2251.847656 3014.308594 2256.324219 C 3013.21875 2263.808594 3000.328125 2273.738281 2995.53125 2279.480469 C 2979.75 2298.371094 2961.449219 2317.375 2948.398438 2338.261719 L 2946.621094 2338.261719 C 2940.511719 2329.015625 2932.769531 2320.886719 2926.75 2311.542969 C 2907.679688 2281.929688 2890.539062 2241.363281 2890.511719 2205.5625 L 2997.378906 2204.671875 M 817.207031 2332.027344 C 807.871094 2338.597656 800.007812 2347.15625 790.492188 2353.625 C 760.132812 2374.257812 720.992188 2392.765625 683.621094 2394.367188 L 681.839844 2291.058594 C 696.15625 2289.125 710.648438 2282.214844 722.804688 2274.644531 C 727.832031 2271.519531 734.898438 2263.558594 740.617188 2262.578125 C 746.507812 2261.570312 756.023438 2272.800781 760.210938 2276.285156 C 774.808594 2288.441406 789.601562 2300.695312 802.957031 2314.214844 C 807.785156 2319.105469 815.332031 2325.335938 817.207031 2332.027344 M 635.527344 2395.257812 C 600.589844 2394.972656 564.953125 2382.878906 534.890625 2365.734375 C 527.375 2361.453125 519.484375 2357.445312 512.628906 2352.125 C 510.59375 2350.550781 506.957031 2348.367188 507.332031 2345.347656 C 508.054688 2339.570312 516.734375 2332.007812 520.285156 2327.574219 C 531.769531 2313.21875 543.363281 2298.921875 555.15625 2284.824219 C 558.726562 2280.550781 565.128906 2269.773438 570.667969 2268.3125 C 573.820312 2267.476562 577.867188 2271.644531 580.3125 2273.203125 C 587.695312 2277.90625 595.339844 2281.886719 603.464844 2285.179688 C 610.375 2287.976562 617.546875 2290.214844 624.839844 2291.761719 C 627.371094 2292.296875 631.898438 2292.226562 633.210938 2294.90625 C 636.359375 2301.34375 634.125 2311.675781 634.789062 2318.667969 C 637.21875 2344.210938 635.597656 2369.699219 635.527344 2395.257812 M 3293.941406 2356.960938 C 3284.609375 2363.535156 3276.75 2372.09375 3267.230469 2378.558594 C 3236.871094 2399.195312 3197.730469 2417.699219 3160.359375 2419.304688 L 3158.578125 2315.996094 C 3172.898438 2314.0625 3187.390625 2307.152344 3199.539062 2299.582031 C 3204.570312 2296.457031 3211.640625 2288.492188 3217.359375 2287.515625 C 3223.238281 2286.507812 3232.761719 2297.738281 3236.949219 2301.21875 C 3251.550781 2313.378906 3266.339844 2325.632812 3279.691406 2339.152344 C 3284.519531 2344.039062 3292.070312 2350.273438 3293.941406 2356.960938 M 3112.269531 2420.195312 C 3077.328125 2419.910156 3041.691406 2407.816406 3011.628906 2390.671875 C 3004.109375 2386.386719 2996.21875 2382.378906 2989.359375 2377.0625 C 2987.328125 2375.488281 2983.691406 2373.304688 2984.070312 2370.285156 C 2984.789062 2364.507812 2993.46875 2356.945312 2997.019531 2352.511719 C 3008.5 2338.152344 3020.101562 2323.859375 3031.890625 2309.761719 C 3035.460938 2305.488281 3041.859375 2294.710938 3047.398438 2293.25 C 3050.558594 2292.414062 3054.609375 2296.582031 3057.050781 2298.140625 C 3064.429688 2302.839844 3072.078125 2306.824219 3080.199219 2310.117188 C 3087.121094 2312.914062 3094.289062 2315.148438 3101.578125 2316.699219 C 3104.109375 2317.234375 3108.640625 2317.160156 3109.949219 2319.84375 C 3113.101562 2326.28125 3110.859375 2336.613281 3111.53125 2343.605469 C 3113.960938 2369.144531 3112.339844 2394.636719 3112.269531 2420.195312 Z M 3112.269531 2420.195312 "/>
<path fill-rule="nonzero" fill="rgb(27.830505%, 21.556091%, 23.143005%)" fill-opacity="1" d="M 2507.351562 836.488281 C 2517.191406 832.671875 2531.28125 828.980469 2538.050781 820.441406 C 2549.269531 806.289062 2541.011719 784.859375 2523.378906 781.679688 C 2514.109375 780.019531 2505.769531 785.039062 2497.550781 788.539062 C 2483.839844 794.371094 2469.660156 799.261719 2455.691406 804.480469 C 2411.628906 820.960938 2367.980469 839.871094 2324.78125 858.511719 C 2297.558594 870.25 2267.910156 883.910156 2252.148438 910.410156 C 2227.269531 952.238281 2255.820312 1010.789062 2269.558594 1052.019531 C 2291.820312 1118.800781 2315.308594 1185.671875 2344.640625 1249.730469 C 2366.808594 1298.121094 2392.570312 1345.058594 2413.449219 1394 C 2424.648438 1420.238281 2434.058594 1447.289062 2436.019531 1475.941406 C 2438.628906 1514.050781 2430.28125 1553.390625 2424 1590.820312 C 2413.441406 1653.761719 2398.820312 1715.933594 2387.488281 1778.738281 C 2380.679688 1816.554688 2374.058594 1854.554688 2364.738281 1891.84375 C 2358.96875 1914.945312 2353.050781 1938.539062 2341.421875 1959.53125 C 2333.589844 1973.652344 2321.128906 1973.253906 2306.96875 1974.929688 C 2278.03125 1978.339844 2247.769531 1976.734375 2218.800781 1974.75 C 2178.710938 1972.007812 2138.640625 1968.585938 2098.570312 1965.84375 C 2043.101562 1962.039062 1988.738281 1961.96875 1933.808594 1950.980469 C 1901.511719 1944.523438 1855.039062 1938.289062 1832.570312 1911.4375 C 1814.921875 1890.347656 1806.570312 1855.515625 1799.199219 1829.503906 C 1771.558594 1731.964844 1793.210938 1629.34375 1797.578125 1530.269531 C 1798.96875 1498.871094 1803.570312 1466.511719 1810.589844 1435.859375 C 1814.160156 1420.320312 1818.28125 1402.03125 1804.589844 1389.839844 C 1791.261719 1377.96875 1772.640625 1382.421875 1756.578125 1382.429688 C 1711.929688 1382.441406 1665.878906 1390.78125 1622.101562 1399.171875 C 1593.980469 1404.558594 1565.660156 1409.03125 1537.488281 1414.109375 C 1526.160156 1416.148438 1510.289062 1416.359375 1500.980469 1423.738281 C 1492.101562 1430.78125 1489.609375 1443.640625 1494.738281 1453.671875 C 1497.339844 1458.75 1503.730469 1461.25 1505.789062 1466.21875 C 1508.089844 1471.78125 1506.140625 1478.339844 1508.070312 1483.949219 C 1513.171875 1498.769531 1520.929688 1512.269531 1524.878906 1527.589844 C 1528.210938 1540.46875 1528.480469 1556.140625 1529.398438 1569.449219 C 1534.941406 1649.824219 1491.441406 1722.132812 1483.910156 1801.003906 C 1480.480469 1836.777344 1479.839844 1875.617188 1504.800781 1904.3125 C 1516.628906 1917.921875 1531.820312 1927.90625 1547.289062 1936.890625 C 1584.570312 1958.523438 1625.871094 1973.546875 1666.628906 1987.136719 C 1744.449219 2013.082031 1825.460938 2030.304688 1906.199219 2044.359375 C 1987.289062 2058.472656 2068.191406 2069.605469 2150.21875 2075.226562 C 2202.421875 2078.804688 2254.769531 2075.707031 2306.96875 2074.425781 C 2344.070312 2073.515625 2381.449219 2071.636719 2418.289062 2066.515625 C 2436.398438 2063.996094 2458.058594 2061.789062 2474.320312 2052.773438 C 2480.441406 2049.382812 2485.308594 2040.769531 2489.398438 2035.230469 C 2500.171875 2020.605469 2509.851562 2005.171875 2519.53125 1989.808594 C 2559.25 1926.78125 2589.851562 1858.847656 2611.578125 1787.644531 C 2648.609375 1666.320312 2653.820312 1539.421875 2650.738281 1413.601562 C 2649.351562 1356.488281 2652.011719 1295.839844 2637.808594 1239.929688 C 2633.351562 1222.390625 2621.921875 1205.339844 2615.488281 1188.28125 C 2599.460938 1145.78125 2585.519531 1102.511719 2567.140625 1060.921875 C 2549.628906 1021.300781 2527.621094 982.890625 2514.25 941.578125 C 2508.96875 925.308594 2502.601562 905.46875 2503.558594 888.148438 C 2504.480469 871.53125 2511.289062 853.03125 2507.351562 836.488281 Z M 2507.351562 836.488281 "/>
<path fill-rule="nonzero" fill="rgb(82.03125%, 76.5625%, 66.992188%)" fill-opacity="1" d="M 379.171875 1626.472656 C 380.117188 1614.519531 383.375 1601.550781 386.59375 1589.960938 C 387.441406 1586.910156 391.714844 1579.859375 388.078125 1578.378906 C 393.914062 1562.539062 404.007812 1547.550781 412.71875 1532.960938 C 425.398438 1511.730469 438.234375 1490.828125 454.875 1472.398438 C 508.152344 1413.378906 580.664062 1370.761719 649.914062 1334.210938 C 695.410156 1310.199219 743.039062 1286.28125 793.296875 1272.308594 C 845.921875 1257.691406 900.480469 1251.441406 954.496094 1246.191406 C 972.183594 1244.46875 1002.921875 1244.269531 1012.980469 1226.601562 C 1019.980469 1214.289062 1014.179688 1197.359375 1001.691406 1191.121094 C 994.617188 1187.578125 986.121094 1186.78125 978.542969 1184.890625 C 961.550781 1180.640625 944.457031 1177.238281 927.777344 1171.679688 C 857.089844 1148.121094 794.515625 1108.640625 729.175781 1074.160156 C 702.007812 1059.820312 674.589844 1045.828125 644.570312 1037.5 C 633.175781 1034.328125 619.054688 1030.398438 607.164062 1031.558594 C 598.699219 1032.371094 590.09375 1033.699219 582.226562 1037.191406 C 562.253906 1046.070312 553.945312 1068.488281 545.566406 1086.769531 C 528.371094 1124.28125 521.636719 1164.730469 489.605469 1193.640625 C 447.679688 1231.5 400.652344 1263.519531 358.691406 1301.410156 C 301.949219 1352.628906 254.757812 1411.808594 215.007812 1476.859375 C 199.035156 1502.980469 178.117188 1528.75 168.398438 1557.898438 C 164.097656 1570.800781 161.238281 1587.148438 170.179688 1598.859375 C 183.054688 1615.710938 206.394531 1613.078125 225.101562 1614.890625 C 276.4375 1619.878906 327.246094 1626.472656 379.171875 1626.472656 M 406.78125 1613.109375 L 405 1619.351562 L 405.890625 1619.351562 Z M 406.78125 1613.109375 "/>
<path fill-rule="nonzero" fill="rgb(10.205078%, 10.205078%, 10.205078%)" fill-opacity="1" d="M 330.378906 1614.710938 C 327.574219 1624.164062 303.578125 1618.300781 295.644531 1617.539062 C 259.980469 1614.078125 223.730469 1608.480469 187.882812 1608.480469 C 188.878906 1604.351562 190.210938 1599.25 188.640625 1595.121094 C 185.691406 1587.398438 175.527344 1585.011719 169.65625 1591.019531 C 163.421875 1597.398438 164.640625 1612.570312 163.460938 1620.949219 C 160.082031 1644.90625 154.214844 1668.132812 147.429688 1691.304688 C 135.816406 1730.964844 123.414062 1769.988281 115.570312 1810.644531 C 108.789062 1845.785156 106.304688 1881.75 98.035156 1916.625 C 90.316406 1949.195312 77.195312 1979.742188 61.613281 2009.246094 C 45.304688 2040.140625 22.875 2067.367188 8.257812 2099.195312 C 3.554688 2109.445312 -7.027344 2127.417969 7.105469 2135.335938 C 18.382812 2141.660156 34.441406 2134.097656 45.390625 2130.367188 C 54.636719 2127.222656 65.15625 2124.375 72.996094 2118.316406 C 82.496094 2110.988281 89.269531 2099.257812 95.855469 2089.398438 C 107.949219 2071.292969 119.664062 2052.851562 130.886719 2034.183594 C 171.257812 1967.03125 199.671875 1894.066406 236.171875 1824.894531 C 261.039062 1777.761719 289.238281 1729.734375 332.160156 1696.550781 C 364.960938 1671.1875 402.097656 1660.613281 441.703125 1651.539062 C 452.425781 1649.082031 473.625 1646.757812 470.890625 1631.636719 C 468.605469 1619.011719 456.574219 1625.417969 448.828125 1624.546875 C 445.242188 1624.144531 441.695312 1622.128906 438.140625 1621.328125 C 427.988281 1619.03125 416.550781 1615.738281 406.078125 1615.910156 C 401.75 1615.980469 398.035156 1618.421875 393.609375 1618.191406 C 372.25 1617.078125 351.792969 1614.710938 330.378906 1614.710938 Z M 330.378906 1614.710938 "/>
<path fill-rule="nonzero" fill="rgb(19.993591%, 19.993591%, 19.993591%)" fill-opacity="1" d="M 350.898438 1614.238281 C 342.554688 1616.789062 332.984375 1630.96875 326.855469 1637.097656 C 303.550781 1660.40625 283.078125 1687.34375 263.324219 1713.6875 C 190.734375 1810.476562 128.25 1914.070312 61.160156 2014.710938 C 41.25 2044.570312 20.199219 2073.46875 4.609375 2105.550781 C -2.386719 2119.941406 -3.367188 2139.757812 18.710938 2137.609375 C 34.953125 2136.035156 59.132812 2128.554688 72.144531 2118.613281 C 81.914062 2111.152344 88.863281 2098.726562 95.597656 2088.628906 C 108.257812 2069.632812 120.425781 2050.304688 132.109375 2030.738281 C 171.523438 1964.746094 199.269531 1893.5625 234.972656 1825.902344 C 255.722656 1786.59375 278.117188 1746.117188 310.972656 1714.875 C 335.621094 1691.441406 362.203125 1675.445312 393.648438 1663.21875 C 405.425781 1658.640625 418.367188 1658.117188 430.164062 1654.019531 C 440.875 1650.296875 471.128906 1650.226562 471.128906 1634.425781 C 471.128906 1617.121094 453.800781 1627.542969 446.195312 1624.476562 C 434.34375 1619.710938 418.09375 1615.71875 405.226562 1615.71875 C 398.089844 1615.71875 392.378906 1618.238281 384.742188 1617.5 C 375.234375 1616.578125 360.15625 1611.410156 350.898438 1614.238281 Z M 350.898438 1614.238281 "/>
<path fill-rule="nonzero" fill="rgb(72.459412%, 67.771912%, 59.179688%)" fill-opacity="1" d="M 580.496094 1034.570312 L 565.355469 1047.929688 C 568.738281 1046.238281 581.246094 1037.71875 580.496094 1034.570312 M 379.222656 1623.25 C 380.164062 1611.300781 383.421875 1598.328125 386.644531 1586.738281 C 387.488281 1583.691406 391.761719 1576.640625 388.128906 1575.160156 C 393.964844 1559.320312 404.054688 1544.328125 412.769531 1529.738281 C 425.445312 1508.519531 438.292969 1487.601562 454.921875 1469.179688 C 508.183594 1410.179688 580.714844 1367.53125 649.960938 1330.988281 C 695.433594 1307 743.125 1283.050781 793.347656 1269.089844 C 845.953125 1254.480469 900.539062 1248.21875 954.542969 1242.96875 C 972.222656 1241.25 1005.550781 1241.03125 1013.921875 1221.589844 C 1019.5 1208.640625 1013.179688 1192.480469 999.964844 1187.160156 C 979.375 1178.859375 955.460938 1176.480469 934.0625 1170.539062 C 903.078125 1161.929688 873.339844 1147.441406 845 1133.28125 C 831.246094 1126.398438 817.824219 1118.789062 804.035156 1111.898438 C 800.777344 1110.269531 793.554688 1103.960938 789.785156 1105.371094 C 785.785156 1106.871094 781.589844 1111.789062 778.207031 1114.429688 C 768.183594 1122.21875 758.085938 1129.960938 747.925781 1137.589844 C 714.496094 1162.660156 681.171875 1187.921875 647.289062 1212.390625 C 532.222656 1295.5 415.5625 1377.289062 303.519531 1464.429688 C 268.007812 1492.050781 231.757812 1518.921875 195.761719 1545.921875 C 183.238281 1555.308594 160.605469 1565.929688 164.886719 1584.070312 C 171.199219 1610.800781 196.617188 1607.089844 217.132812 1611.078125 C 231.570312 1613.890625 247.011719 1613.808594 261.664062 1615.238281 C 300.882812 1619.050781 339.515625 1623.25 379.222656 1623.25 M 406.832031 1609.890625 L 405.050781 1616.128906 L 405.941406 1616.128906 Z M 406.832031 1609.890625 "/>
<path fill-rule="nonzero" fill="rgb(45.092773%, 33.325195%, 34.104919%)" fill-opacity="1" d="M 666.152344 916.289062 C 655.96875 917.640625 646.089844 919.101562 636.765625 923.761719 C 610.558594 936.859375 585.585938 972.960938 588.828125 1003.191406 C 590.425781 1018.109375 599.859375 1031.078125 608.984375 1042.378906 C 642.679688 1084.128906 697.398438 1107.671875 740.964844 1137.699219 C 773.699219 1160.261719 805.769531 1184 837.148438 1208.410156 C 851.433594 1219.53125 864.347656 1233.980469 879.894531 1243.25 C 910.765625 1261.648438 956.503906 1245.011719 989.4375 1240.480469 C 1044.441406 1232.898438 1104.019531 1233.550781 1157.761719 1248.480469 C 1192.121094 1258.039062 1224.808594 1272.960938 1256.621094 1288.851562 C 1296.878906 1308.988281 1335.691406 1331.191406 1370.609375 1359.808594 C 1388.441406 1374.421875 1404.539062 1390.890625 1420.449219 1407.519531 C 1427.339844 1414.71875 1433.210938 1423.859375 1441 1430.070312 C 1445.871094 1433.949219 1451.929688 1433.019531 1456.648438 1436.050781 C 1462.820312 1440 1464.28125 1447.320312 1472.140625 1450.320312 C 1483.890625 1454.789062 1494.570312 1447.941406 1505.089844 1443.398438 C 1524.519531 1435.019531 1544.539062 1427.988281 1564.761719 1421.789062 C 1614.511719 1406.558594 1669.019531 1403.199219 1720.621094 1399.589844 C 1748.371094 1397.648438 1781.820312 1397.179688 1807.890625 1386.640625 C 1852.191406 1368.730469 1834.648438 1305.441406 1820.089844 1273.039062 C 1798.488281 1224.988281 1771.480469 1175.121094 1734.828125 1136.78125 C 1705.039062 1105.628906 1668.378906 1081.769531 1629.769531 1063.101562 C 1597.058594 1047.261719 1559.148438 1039.980469 1522.898438 1042.460938 C 1494.808594 1044.390625 1467.089844 1050.929688 1439.191406 1054.601562 C 1408.378906 1058.648438 1377.628906 1059.671875 1346.570312 1059.300781 C 1280.351562 1058.511719 1214.109375 1043.089844 1148.859375 1032.960938 C 1076.128906 1021.679688 1002.691406 1012.96875 930.660156 997.660156 C 889.480469 988.910156 848.804688 977.789062 810.429688 960.171875 C 778.574219 945.550781 747.550781 929.960938 713.355469 921.371094 C 698.410156 917.621094 681.597656 914.261719 666.152344 916.289062 Z M 666.152344 916.289062 "/>
<path fill-rule="nonzero" fill="rgb(39.598083%, 29.417419%, 30.200195%)" fill-opacity="1" d="M 623.632812 1057.519531 L 645.898438 1075.699219 L 695.769531 1108.109375 L 724.269531 1125.199219 C 730.414062 1110.101562 715.394531 1106.351562 704.675781 1100.269531 C 678.644531 1085.488281 651.101562 1069.359375 623.632812 1057.519531 M 801.753906 1180.421875 C 810.539062 1191.28125 825.414062 1199.191406 836.484375 1207.71875 C 854.644531 1221.710938 872.101562 1244.109375 895.265625 1249.289062 C 925.863281 1256.148438 960.136719 1244.128906 990.558594 1240.339844 C 1039.808594 1234.210938 1093.359375 1232.921875 1141.960938 1244.441406 C 1182.191406 1253.96875 1219.980469 1270.421875 1256.839844 1288.851562 C 1296.449219 1308.660156 1334.511719 1330.480469 1369.058594 1358.359375 C 1387.589844 1373.320312 1404.25 1390.339844 1420.679688 1407.519531 C 1427.558594 1414.71875 1433.441406 1423.859375 1441.230469 1430.070312 C 1446.089844 1433.941406 1452.160156 1433.019531 1456.878906 1436.050781 C 1463.730469 1440.441406 1465 1448.269531 1474.148438 1450.890625 C 1488.800781 1455.078125 1504.558594 1443.210938 1517.789062 1438.179688 C 1548.359375 1426.53125 1578.980469 1416.871094 1611.300781 1411.449219 C 1661.789062 1402.988281 1713.019531 1402.519531 1763.589844 1395.289062 C 1784.660156 1392.28125 1809.839844 1391.730469 1824.878906 1374.570312 C 1838.21875 1359.359375 1837.25 1335.359375 1834.171875 1316.679688 C 1826.289062 1268.941406 1796.371094 1227.929688 1773.390625 1186.660156 C 1754.191406 1191.089844 1735.5 1198.648438 1716.390625 1203.679688 C 1678.730469 1213.589844 1640.101562 1220.519531 1601.5 1225.589844 C 1426.269531 1248.628906 1251.96875 1236.371094 1076.941406 1218.871094 C 1015.921875 1212.761719 955.066406 1204.738281 894.375 1195.800781 C 863.648438 1191.28125 831.933594 1187.859375 801.753906 1180.421875 Z M 801.753906 1180.421875 "/>
<path fill-rule="nonzero" fill="rgb(82.8125%, 77.34375%, 66.992188%)" fill-opacity="1" d="M 2996.75 1400.269531 C 2971.75 1405.140625 2945.910156 1401.25 2925.511719 1420.460938 C 2912.050781 1433.148438 2905.210938 1451.390625 2897.75 1467.671875 C 2884.140625 1497.359375 2874.71875 1528.929688 2862.878906 1559.398438 C 2825.78125 1654.761719 2794.730469 1753.796875 2751.109375 1846.167969 C 2740.839844 1867.917969 2731.261719 1889.699219 2720.519531 1911.179688 C 2716.03125 1920.175781 2706.519531 1931.265625 2705.53125 1941.460938 C 2704.5 1952.09375 2709.988281 1955.730469 2712.949219 1964.617188 C 2714.128906 1968.144531 2712.039062 1973.210938 2712.949219 1977.085938 C 2715.988281 1989.925781 2727.429688 1997.035156 2740.269531 1995.789062 C 2752.28125 1994.621094 2757.660156 1983.675781 2762.679688 1974.414062 C 2768.359375 1963.914062 2775.429688 1953.8125 2782.421875 1944.132812 C 2812.660156 1902.257812 2848.480469 1862.378906 2889.878906 1831.320312 C 2927.46875 1803.136719 2968.589844 1786.125 3011.890625 1769.285156 C 3091.859375 1738.183594 3185.121094 1729.25 3270.171875 1737.515625 C 3303.859375 1740.792969 3337.988281 1739.582031 3371.691406 1742.859375 C 3387.539062 1744.398438 3406.671875 1747.117188 3422.460938 1744.042969 C 3440.570312 1740.527344 3460.121094 1740.417969 3472.039062 1723.265625 C 3482.699219 1707.914062 3479.160156 1686.941406 3472.628906 1670.722656 C 3457.761719 1633.808594 3426.03125 1604.828125 3398.410156 1577.210938 C 3320.320312 1499.121094 3221.328125 1439.800781 3114.308594 1413.050781 C 3084.851562 1405.679688 3056.078125 1403.78125 3026.140625 1400.871094 C 3016.941406 1399.980469 3005.988281 1398.480469 2996.75 1400.28125 Z M 2996.75 1400.269531 "/>
<path fill-rule="nonzero" fill="rgb(68.554688%, 63.867188%, 55.271912%)" fill-opacity="1" d="M 3233.019531 1457.871094 C 3226.558594 1450.820312 3212.398438 1447.609375 3203.628906 1443.46875 C 3177.199219 1431 3148.328125 1421.480469 3119.921875 1414.390625 C 3079.589844 1404.308594 3035.96875 1396.828125 2994.339844 1400.871094 C 2973.730469 1402.878906 2953.109375 1402.628906 2934.679688 1413.640625 C 2918.539062 1423.269531 2910.089844 1441.71875 2902.46875 1457.871094 C 2891.449219 1481.210938 2883.210938 1505.871094 2873.820312 1530.011719 C 2836.460938 1626.070312 2805.851562 1725.828125 2762.941406 1819.453125 C 2750.011719 1847.660156 2739.25 1876.828125 2724.5 1904.0625 C 2717.308594 1917.332031 2702.769531 1935.300781 2706.089844 1951.261719 C 2707.179688 1956.507812 2710.289062 1959.269531 2712.769531 1963.730469 C 2714.339844 1966.5625 2712.601562 1971.984375 2712.921875 1975.308594 C 2713.929688 1985.675781 2723.039062 1994.785156 2733.398438 1995.792969 C 2756.128906 1998 2763.160156 1972.957031 2773.480469 1957.496094 C 2779.089844 1949.082031 2786.21875 1941.261719 2791.289062 1932.558594 C 2798.621094 1919.992188 2803.511719 1904.851562 2809.390625 1891.59375 C 2819.808594 1868.179688 2834.261719 1845.886719 2847.691406 1823.90625 C 2914.410156 1714.722656 3007.96875 1622.03125 3108.339844 1543.96875 C 3147.378906 1513.609375 3188.609375 1480.089844 3233.019531 1457.871094 M 3278.441406 1567.421875 L 3308.71875 1545.441406 L 3337.21875 1524.671875 C 3333.628906 1519.121094 3325.839844 1528.328125 3322.078125 1531.191406 C 3311.25 1539.46875 3300.351562 1547.828125 3290.019531 1556.730469 C 3286.128906 1560.078125 3281.011719 1562.980469 3278.441406 1567.421875 M 3276.660156 1567.421875 L 3275.769531 1569.199219 L 3276.660156 1567.421875 M 3118.140625 1618.179688 L 3067.378906 1662.710938 L 3043.328125 1685.867188 L 3058.46875 1672.507812 L 3101.21875 1634.949219 L 3118.140625 1618.179688 M 3475.269531 1679.632812 L 3477.941406 1694.769531 L 3478.828125 1694.769531 L 3475.269531 1679.632812 M 3420.941406 1729.503906 L 3400.460938 1744.644531 L 3425.390625 1743.753906 Z M 3420.941406 1729.503906 "/>
<path fill-rule="nonzero" fill="rgb(19.993591%, 19.993591%, 23.143005%)" fill-opacity="1" d="M 1026.511719 1713.589844 C 1019.75 1723.109375 1011.738281 1731.953125 1004.539062 1741.199219 C 988.839844 1761.386719 974.359375 1782.90625 960.609375 1804.429688 C 955.292969 1812.75 947.429688 1818.617188 942.949219 1827.585938 C 929.695312 1854.082031 923.398438 1887.753906 930.621094 1916.644531 C 937.167969 1942.8125 953.421875 1965.324219 965.800781 1988.78125 C 978.535156 2012.917969 992.027344 2036.644531 1006.320312 2060.03125 C 1014.230469 2072.960938 1024.160156 2085.136719 1033.039062 2097.433594 C 1040.960938 2108.390625 1048.539062 2119.574219 1056.640625 2130.386719 C 1060.980469 2136.167969 1066.761719 2141.714844 1070 2148.199219 C 1077.449219 2163.109375 1081.121094 2180.152344 1084.691406 2196.292969 C 1088.738281 2214.476562 1092.480469 2232.664062 1097.460938 2250.617188 C 1100.769531 2262.507812 1104.640625 2276.238281 1112.011719 2286.242188 C 1101.960938 2280.691406 1092.75 2272.089844 1083.511719 2265.160156 C 1064.898438 2251.203125 1046.449219 2236.820312 1029.179688 2221.226562 C 1018.269531 2211.378906 1008.039062 2200.796875 997.125 2190.949219 C 990.480469 2184.945312 983.71875 2178.941406 976.640625 2173.429688 C 967.714844 2166.492188 957.546875 2160.203125 949.921875 2151.761719 C 935.539062 2135.828125 925.386719 2116.148438 912.222656 2099.214844 C 880.917969 2058.96875 841.28125 2020.925781 795.847656 1996.949219 C 708.570312 1950.878906 609.761719 1929.050781 514.421875 1905.21875 C 483.492188 1897.480469 452.113281 1891.683594 420.910156 1885.179688 C 392.695312 1879.300781 364.035156 1874.003906 335.414062 1871.226562 C 296.5 1867.441406 257.289062 1861.703125 218.746094 1872.410156 C 205.109375 1876.203125 191.863281 1883.097656 181.339844 1892.597656 C 175.207031 1898.140625 171.257812 1905.699219 165.308594 1911.300781 C 155.613281 1920.441406 144.953125 1928.019531 135.921875 1938.019531 C 121.882812 1953.570312 109.476562 1974.785156 107.421875 1995.910156 C 106.328125 2007.148438 108.425781 2018.929688 111.132812 2029.75 C 113.007812 2037.25 113.625 2046.074219 117.515625 2052.90625 C 128.066406 2071.441406 148.769531 2079.945312 161.449219 2096.546875 C 170.125 2107.898438 173.199219 2122.265625 181.636719 2133.949219 C 185.03125 2138.652344 188.917969 2142.925781 193.808594 2146.125 C 197.132812 2148.289062 201.15625 2149.082031 204.496094 2151.164062 C 209.171875 2154.085938 210.980469 2159.226562 215.183594 2162.15625 C 219.832031 2165.386719 227.609375 2165.261719 232.996094 2166.011719 C 246.382812 2167.871094 259.722656 2170.359375 273.070312 2172.398438 C 305.359375 2177.332031 337.6875 2183.777344 370.144531 2187.386719 C 387.15625 2189.273438 403.902344 2193.511719 420.910156 2195.402344 C 433.453125 2196.789062 445.8125 2199.898438 458.316406 2201.636719 C 495.449219 2206.792969 532.125 2215.464844 568.75 2223.605469 C 626.894531 2236.527344 684.773438 2250.519531 743.304688 2261.902344 C 793.765625 2271.707031 844.644531 2273.273438 895.597656 2278.226562 C 918.421875 2280.445312 940.277344 2286.035156 962.390625 2292.183594 C 983.265625 2297.980469 1003.519531 2304.855469 1022.058594 2315.925781 C 1032.75 2322.308594 1043.988281 2329.550781 1053.230469 2337.894531 C 1064.570312 2348.128906 1072.359375 2360.417969 1087.960938 2364.320312 C 1105.808594 2368.78125 1125.109375 2365.59375 1142.289062 2359.867188 C 1151.710938 2356.722656 1160.789062 2353.144531 1162.769531 2342.347656 C 1171.570312 2346.75 1181.730469 2346.765625 1191.269531 2347.691406 C 1213.449219 2349.847656 1237.671875 2349.847656 1259.851562 2347.691406 C 1273.449219 2346.375 1287.230469 2347.230469 1300.820312 2345.910156 C 1354.558594 2340.683594 1410.121094 2338.867188 1462.011719 2321.570312 C 1481.179688 2315.175781 1499.980469 2308.015625 1518.121094 2299.449219 C 1529.21875 2294.210938 1542.058594 2286.570312 1554.628906 2285.351562 C 1564.25 2284.414062 1572.839844 2291.96875 1580.460938 2296.632812 C 1592.019531 2303.695312 1603.570312 2310.296875 1616.089844 2315.335938 C 1656.171875 2331.484375 1701.808594 2337.324219 1744.328125 2341.457031 C 1757.640625 2342.75 1771.089844 2342.839844 1784.410156 2344.128906 C 1791.761719 2344.84375 1799.320312 2343.417969 1806.671875 2344.128906 C 1823.5 2345.769531 1841.441406 2345.769531 1858.328125 2344.128906 C 1871.921875 2342.8125 1885.71875 2343.667969 1899.289062 2342.347656 C 1910.238281 2341.289062 1921.320312 2341.628906 1932.25 2340.566406 C 1936.5 2340.15625 1940.601562 2341.804688 1944.71875 2341.457031 C 1947.550781 2341.226562 1950.011719 2339.195312 1952.730469 2339.082031 C 1956.21875 2338.9375 1959.929688 2340.230469 1963.421875 2340.566406 C 1971.738281 2341.378906 1980.039062 2342.429688 1988.351562 2343.238281 C 2004.941406 2344.851562 2021.640625 2345.191406 2038.230469 2346.800781 C 2046.648438 2347.621094 2055.578125 2346.800781 2064.058594 2346.800781 C 2081.371094 2346.800781 2098.578125 2346.691406 2115.710938 2345.019531 C 2129.011719 2343.730469 2142.488281 2344.53125 2155.789062 2343.238281 C 2185.710938 2340.328125 2215.808594 2339.027344 2245.730469 2336.113281 C 2321.039062 2328.792969 2401.199219 2335.5625 2471.058594 2300.640625 C 2531.449219 2270.441406 2587.519531 2222.429688 2625.128906 2166.011719 C 2633.238281 2153.847656 2640.359375 2141.15625 2647.679688 2128.605469 C 2650.730469 2123.398438 2655.820312 2116.878906 2656.300781 2110.792969 C 2651.390625 2109.246094 2646.230469 2105.753906 2641.160156 2105.007812 C 2639.808594 2104.808594 2638.820312 2106.324219 2637.589844 2106.492188 C 2634.410156 2106.929688 2631.320312 2104.667969 2627.800781 2105.746094 C 2623.339844 2107.109375 2619.269531 2110.757812 2615.328125 2113.171875 C 2610 2116.433594 2604.671875 2119.753906 2599.300781 2122.96875 C 2579.640625 2134.707031 2559.808594 2146.25 2538.738281 2155.03125 C 2517.550781 2163.855469 2495.128906 2169.664062 2472.839844 2174.625 C 2462.761719 2176.859375 2451.390625 2177.3125 2441.660156 2180.554688 C 2438.660156 2181.5625 2436.648438 2184.582031 2433.648438 2185.453125 C 2430.609375 2186.34375 2427 2186.183594 2423.851562 2186.789062 C 2413.851562 2188.742188 2403.691406 2189.96875 2393.570312 2190.949219 C 2365.070312 2193.71875 2336.589844 2197.085938 2308.070312 2199.855469 C 2270.761719 2203.480469 2233.171875 2204.246094 2195.859375 2207.871094 C 2183.738281 2209.046875 2171.46875 2208.476562 2159.351562 2209.652344 C 2146.339844 2210.917969 2133.171875 2211.058594 2120.160156 2212.324219 C 2112.511719 2213.0625 2104.660156 2211.585938 2097 2212.324219 C 2088.46875 2213.152344 2079.738281 2212.378906 2071.179688 2213.214844 C 2069.050781 2213.417969 2067.140625 2214.292969 2064.949219 2214.105469 C 2026.449219 2210.898438 1987.609375 2211.609375 1949.171875 2207.871094 C 1907.179688 2203.792969 1865.519531 2197.386719 1823.589844 2192.730469 C 1804.5 2190.609375 1785.691406 2185.945312 1766.589844 2183.824219 C 1752.269531 2182.230469 1738.089844 2179.21875 1723.851562 2176.851562 C 1707.25 2174.082031 1690.460938 2171.820312 1673.96875 2168.390625 C 1669.25 2167.402344 1665.25 2164.730469 1660.609375 2163.636719 C 1653.21875 2161.890625 1645 2161.507812 1637.460938 2160.667969 C 1622.078125 2158.960938 1606.359375 2156.207031 1591.148438 2153.25 C 1553.941406 2146.011719 1517.308594 2138.476562 1480.710938 2128.3125 C 1406.570312 2107.714844 1338.808594 2061.699219 1287.460938 2004.816406 C 1272.25 1987.964844 1256.339844 1971.773438 1241.140625 1954.941406 C 1233.96875 1946.988281 1225.949219 1939.019531 1220.070312 1930.003906 C 1218.621094 1927.796875 1218.261719 1925.0625 1216.808594 1922.882812 C 1212.570312 1916.539062 1206.128906 1910.957031 1201.21875 1905.070312 C 1189.21875 1890.675781 1177.261719 1876.242188 1165.738281 1861.429688 C 1147.488281 1837.964844 1130.601562 1813.390625 1113.191406 1789.292969 C 1103.910156 1776.433594 1094.5 1763.359375 1083.511719 1751.886719 C 1076.480469 1744.558594 1069.691406 1737.335938 1062.140625 1730.511719 C 1058.140625 1726.90625 1055.328125 1723.386719 1049.671875 1723.386719 L 1050.558594 1720.714844 Z M 1026.511719 1713.589844 "/>
<path fill-rule="nonzero" fill="rgb(23.143005%, 23.143005%, 27.050781%)" fill-opacity="1" d="M 1023.550781 1713.589844 L 1011.078125 1731.402344 L 1062.730469 1747.726562 L 1082.320312 1754.558594 C 1076.898438 1745.1875 1067.140625 1737.707031 1059.171875 1730.511719 C 1055.171875 1726.902344 1052.371094 1723.386719 1046.699219 1723.386719 L 1047.589844 1720.714844 L 1023.550781 1713.589844 M 1109.039062 1844.507812 L 1109.039062 1845.398438 L 1125.070312 1849.554688 L 1161.589844 1860.539062 L 1150.75 1845.84375 L 1137.539062 1845.398438 L 1109.039062 1844.507812 M 982.578125 2023.515625 C 988.8125 2040.429688 1001.101562 2056.976562 1011.679688 2071.609375 C 1023.589844 2088.121094 1035.070312 2104.96875 1047 2121.480469 C 1053.300781 2130.210938 1062.21875 2138.582031 1067.039062 2148.199219 C 1074.488281 2163.109375 1078.148438 2180.152344 1081.730469 2196.292969 C 1085.769531 2214.476562 1089.511719 2232.664062 1094.5 2250.617188 C 1097.808594 2262.507812 1101.679688 2276.238281 1109.039062 2286.242188 C 1100.25 2281.386719 1092.191406 2273.898438 1084.109375 2267.832031 C 1069.050781 2256.539062 1053.660156 2245.328125 1039.578125 2232.804688 C 1032.789062 2226.777344 1026.160156 2220.382812 1019.089844 2214.699219 C 1017.078125 2213.070312 1015.238281 2210.265625 1012.859375 2209.207031 C 1009.769531 2207.832031 1004.050781 2212.644531 1001.28125 2213.953125 C 994.03125 2217.378906 986.65625 2216.625 979.015625 2215.882812 C 944.480469 2212.527344 909.800781 2204.875 875.707031 2197.777344 C 818.726562 2185.90625 761.914062 2172.976562 704.714844 2161.851562 C 623.304688 2146.027344 541.699219 2131.171875 460.691406 2113.171875 C 378.511719 2094.90625 296.535156 2075.695312 214.886719 2055.285156 C 190.726562 2049.238281 166.753906 2042.351562 142.75 2035.691406 C 131.359375 2032.519531 118.882812 2026.222656 107.125 2025.296875 C 109.066406 2035.832031 110.996094 2048.390625 117.21875 2057.359375 C 128.207031 2073.183594 146.84375 2081.308594 158.484375 2096.546875 C 168.585938 2109.769531 171.363281 2126.59375 182.828125 2139.292969 C 189.246094 2146.402344 197.953125 2148.109375 205.089844 2153.835938 C 208.578125 2156.640625 209.773438 2161.167969 213.996094 2163.046875 C 222.425781 2166.785156 233.503906 2166.339844 242.496094 2168.085938 C 262.695312 2172.015625 283.503906 2175.316406 303.945312 2177.589844 C 358.847656 2183.691406 412.914062 2197.316406 467.816406 2203.417969 C 500.683594 2207.066406 533.546875 2216.4375 565.78125 2223.605469 C 610.632812 2233.570312 655.402344 2243.910156 700.261719 2253.886719 C 733.667969 2261.304688 767.890625 2267.804688 801.789062 2271.101562 C 834.976562 2274.324219 868.34375 2275.894531 901.535156 2279.117188 C 921.199219 2281.03125 940.425781 2286.902344 959.421875 2292.183594 C 980.296875 2297.980469 1000.550781 2304.855469 1019.089844 2315.925781 C 1029.75 2322.285156 1041.058594 2329.585938 1050.269531 2337.894531 C 1061.601562 2348.128906 1069.390625 2360.417969 1085 2364.320312 C 1102.839844 2368.78125 1122.140625 2365.59375 1139.320312 2359.867188 C 1148.75 2356.722656 1157.820312 2353.144531 1159.808594 2342.347656 C 1168.609375 2346.75 1178.761719 2346.765625 1188.308594 2347.691406 C 1210.480469 2349.847656 1234.710938 2349.847656 1256.878906 2347.691406 C 1270.769531 2346.339844 1284.851562 2347.265625 1298.738281 2345.910156 C 1352.160156 2340.71875 1407.460938 2338.757812 1459.050781 2321.570312 C 1478.210938 2315.175781 1497.011719 2308.015625 1515.148438 2299.449219 C 1526.25 2294.210938 1539.089844 2286.570312 1551.671875 2285.351562 C 1561.171875 2284.425781 1569.929688 2292.011719 1577.5 2296.632812 C 1588.578125 2303.402344 1599.621094 2309.21875 1611.339844 2314.589844 C 1623.730469 2320.269531 1637.410156 2323.335938 1650.519531 2326.613281 C 1674.640625 2332.640625 1699.789062 2337.28125 1724.441406 2339.675781 C 1743.398438 2341.519531 1762.480469 2342.285156 1781.441406 2344.128906 C 1788.5 2344.816406 1795.75 2343.445312 1802.808594 2344.128906 C 1819.921875 2345.796875 1838.199219 2345.796875 1855.359375 2344.128906 C 1861.238281 2343.558594 1867.289062 2344.699219 1873.171875 2344.128906 C 1884.980469 2342.980469 1896.96875 2343.496094 1908.789062 2342.347656 C 1919.28125 2341.332031 1929.511719 2340.585938 1939.96875 2341.457031 C 1943.851562 2341.78125 1947 2338.777344 1950.648438 2339.082031 C 1965.199219 2340.292969 1979.738281 2342.714844 1994.289062 2344.128906 C 2007.609375 2345.421875 2021.058594 2345.511719 2034.371094 2346.800781 C 2041.640625 2347.503906 2049.328125 2346.800781 2056.628906 2346.800781 C 2068.851562 2346.800781 2081.070312 2347.085938 2093.148438 2345.910156 C 2098.140625 2345.421875 2103.289062 2346.402344 2108.289062 2345.910156 C 2124.570312 2344.324219 2140.988281 2343.933594 2157.269531 2342.347656 C 2164.660156 2341.628906 2172.140625 2342.179688 2179.539062 2341.457031 C 2235.789062 2335.988281 2292.480469 2334.457031 2348.75 2328.988281 C 2381.96875 2325.757812 2415.089844 2322.292969 2446.710938 2309.992188 C 2479.519531 2297.230469 2508.96875 2278.191406 2536.660156 2256.253906 C 2548.449219 2246.921875 2559.78125 2237.144531 2570.5 2226.570312 C 2574.628906 2222.5 2580.070312 2219.109375 2582.96875 2214.101562 C 2577.140625 2215.179688 2571.550781 2217.90625 2566.050781 2220.042969 C 2558.5 2222.972656 2550.578125 2225.199219 2542.898438 2227.757812 C 2522.820312 2234.453125 2502.058594 2239.503906 2481.449219 2244.089844 C 2440.820312 2253.113281 2399.699219 2256.414062 2358.539062 2260.414062 C 2341.398438 2262.078125 2324.019531 2261.421875 2306.890625 2263.085938 C 2293.230469 2264.414062 2278.769531 2263.085938 2265.03125 2263.085938 C 2245.808594 2263.085938 2226.191406 2264.046875 2207.140625 2262.195312 C 2202.148438 2261.707031 2197 2262.683594 2192 2262.195312 C 2168.339844 2259.898438 2144.429688 2260.039062 2120.761719 2257.742188 L 1984.5 2244.382812 C 1830.328125 2229.394531 1677.519531 2197.34375 1525.839844 2163.632812 C 1457.429688 2148.429688 1389.378906 2131.632812 1321 2116.433594 C 1283.519531 2108.105469 1245.789062 2099.402344 1208.789062 2089.125 L 1060.949219 2048.160156 C 1041.789062 2042.832031 1023.121094 2035.671875 1003.949219 2030.347656 C 996.792969 2028.351562 989.890625 2024.863281 982.578125 2023.515625 M 2381.699219 2191.839844 L 2381.699219 2192.730469 C 2403.75 2192.730469 2426.878906 2188.320312 2448.488281 2184.117188 C 2496.480469 2174.792969 2543.75 2161.648438 2588.320312 2141.226562 C 2604.121094 2133.984375 2619.589844 2126.996094 2634.628906 2118.214844 C 2639.191406 2115.558594 2646.058594 2113.503906 2648.878906 2109.011719 C 2645.410156 2107.917969 2641.761719 2105.53125 2638.191406 2105.007812 C 2636.839844 2104.808594 2635.851562 2106.324219 2634.628906 2106.492188 C 2631.449219 2106.929688 2628.359375 2104.667969 2624.828125 2105.746094 C 2616.5 2108.292969 2608.210938 2115.757812 2600.789062 2120.296875 C 2585.96875 2129.355469 2570.839844 2138.539062 2555.359375 2146.269531 C 2532.28125 2157.808594 2506.71875 2166.332031 2481.449219 2171.953125 C 2471.671875 2174.125 2461.859375 2176.136719 2452.058594 2178.1875 C 2447.78125 2179.078125 2442.789062 2179.195312 2438.699219 2180.554688 C 2435.691406 2181.5625 2433.679688 2184.582031 2430.679688 2185.453125 C 2424.691406 2187.207031 2417.308594 2187.582031 2411.089844 2188.277344 C 2401.300781 2189.363281 2391.589844 2191.839844 2381.699219 2191.839844 M 2373.679688 2192.730469 L 2373.679688 2193.621094 L 2379.03125 2193.621094 L 2373.679688 2192.730469 M 2368.339844 2193.621094 L 2369.230469 2194.511719 Z M 2368.339844 2193.621094 "/>
<path fill-rule="nonzero" fill="rgb(82.03125%, 76.5625%, 66.992188%)" fill-opacity="1" d="M 304.144531 1606.351562 L 308.597656 1606.351562 C 309.644531 1619.660156 321.328125 1617 330.859375 1617.929688 C 337.324219 1618.558594 343.953125 1619.621094 350.453125 1619.710938 C 358.445312 1619.820312 366.550781 1621.609375 374.5 1622.378906 C 386.347656 1623.53125 398.28125 1623.910156 410.125 1625.054688 C 432.152344 1627.191406 454.324219 1622.019531 476.027344 1626.238281 C 488.796875 1628.722656 502.257812 1630.035156 515.214844 1631.289062 C 532.195312 1632.9375 549.015625 1636.527344 565.976562 1638.414062 C 593.296875 1641.449219 620.910156 1647.113281 647.910156 1652.371094 C 698.3125 1662.164062 749.0625 1670.589844 799.3125 1681.757812 C 844.957031 1691.902344 891.382812 1703.738281 933.792969 1723.757812 C 950.660156 1731.730469 967.429688 1739.84375 982.773438 1750.921875 C 1034.089844 1787.988281 1067.679688 1841.664062 1104.191406 1892.234375 C 1117.539062 1910.710938 1132.660156 1927.9375 1146.941406 1945.667969 C 1152.070312 1952.027344 1158.621094 1957.671875 1163.269531 1964.371094 C 1164.988281 1966.855469 1165.769531 1969.855469 1167.421875 1972.386719 C 1171.609375 1978.796875 1177.160156 1984.542969 1182.269531 1990.199219 C 1191 1999.871094 1199.359375 2009.914062 1208.089844 2019.585938 C 1216.390625 2028.777344 1225.621094 2037.113281 1233.921875 2046.304688 C 1268.25 2084.34375 1311.261719 2119.511719 1357.710938 2141.445312 C 1386.859375 2155.214844 1417.308594 2166.464844 1448.558594 2175.148438 C 1476.03125 2182.769531 1504.320312 2187.515625 1532.269531 2192.960938 C 1549.539062 2196.316406 1567.351562 2199.328125 1584.820312 2201.269531 C 1591.96875 2202.0625 1600.128906 2202.257812 1607.078125 2204.089844 C 1609.328125 2204.6875 1611.109375 2206.441406 1613.308594 2207.207031 C 1621.039062 2209.890625 1630.199219 2210.832031 1638.25 2211.957031 C 1648.699219 2213.40625 1658.988281 2215.847656 1669.421875 2217.300781 C 1701.878906 2221.804688 1733.949219 2228.824219 1766.5 2232.4375 C 1797.449219 2235.875 1828.121094 2241.898438 1859.121094 2244.90625 C 1888.449219 2247.757812 1917.941406 2249.183594 1947.289062 2252.03125 C 1960.851562 2253.351562 1974.691406 2251.605469 1988.25 2252.921875 C 2002.070312 2254.269531 2016.148438 2253.8125 2030.109375 2253.8125 C 2043.789062 2253.8125 2057.550781 2254.242188 2071.078125 2252.921875 C 2084.941406 2251.578125 2099.078125 2253.378906 2112.941406 2252.03125 C 2158.828125 2247.570312 2205.089844 2246.699219 2250.980469 2242.234375 C 2277.949219 2239.617188 2305.058594 2238.621094 2332.019531 2236 C 2357.070312 2233.570312 2381.820312 2228.984375 2406.828125 2226.203125 C 2419.390625 2224.804688 2431.878906 2222.125 2444.238281 2219.375 C 2459.46875 2215.988281 2475.019531 2212.898438 2489.660156 2207.207031 C 2527.058594 2192.664062 2562.160156 2172.625 2593.859375 2147.539062 C 2644.308594 2107.597656 2673.878906 2047.757812 2701.769531 1991.980469 C 2723.199219 1949.125 2743.371094 1905.484375 2761.878906 1861.0625 C 2789.589844 1794.550781 2813.160156 1726.253906 2840.839844 1659.789062 C 2863.289062 1605.929688 2887.511719 1552.609375 2914.621094 1501.261719 C 2923.738281 1483.980469 2933.128906 1466.851562 2942.230469 1449.609375 C 2947.539062 1439.539062 2954.460938 1429.878906 2958.710938 1419.328125 C 2960.390625 1415.128906 2959.21875 1411.121094 2960.039062 1406.859375 C 2960.859375 1402.648438 2963.019531 1398.808594 2963.449219 1394.390625 C 2964.390625 1384.769531 2963.488281 1374.5 2962.558594 1365 C 2961.71875 1356.429688 2962.5 1347.738281 2961.671875 1339.179688 C 2960 1321.949219 2958 1304.75 2956.328125 1287.519531 C 2952.71875 1250.449219 2947.359375 1213.199219 2937.328125 1177.089844 C 2915.320312 1097.839844 2879.511719 1021.121094 2831.351562 954.441406 C 2813.320312 929.460938 2793.46875 906.019531 2772.859375 883.191406 C 2756.230469 864.769531 2737.25 848.539062 2718.539062 832.429688 C 2696.390625 813.351562 2672.261719 795.730469 2647.289062 780.480469 C 2629.011719 769.300781 2611.148438 757.210938 2592.070312 747.671875 C 2577.5 740.390625 2559.640625 727.078125 2542.199219 731.191406 C 2527.589844 734.640625 2520.519531 746.050781 2516.078125 759.398438 C 2510.578125 775.910156 2508.039062 793.160156 2504.5 810.160156 C 2498.128906 840.75 2494.640625 870.769531 2497.671875 901.890625 C 2500.410156 930 2511.410156 958.558594 2523.351562 983.828125 C 2533.699219 1005.75 2543.570312 1027.820312 2553.929688 1049.730469 C 2575.390625 1095.191406 2590.128906 1143.46875 2608.398438 1190.441406 C 2613.070312 1202.429688 2617.921875 1214.480469 2623.398438 1226.070312 C 2626.339844 1232.320312 2630.429688 1238.828125 2631.859375 1245.660156 C 2638.75 1278.769531 2639.578125 1312.78125 2642.839844 1346.300781 C 2644.039062 1358.691406 2642.53125 1371.320312 2643.730469 1383.699219 C 2645.21875 1398.980469 2644.621094 1414.589844 2644.621094 1430.019531 C 2644.621094 1445.441406 2645.21875 1461.050781 2643.730469 1476.320312 C 2642.789062 1486.03125 2644.671875 1496.011719 2643.730469 1505.710938 C 2641.339844 1530.269531 2641.660156 1555.089844 2639.28125 1579.628906 C 2631.71875 1657.390625 2616.480469 1735.0625 2587.910156 1808.515625 C 2579.53125 1830.105469 2571.488281 1851.789062 2561.640625 1872.640625 C 2545.488281 1906.855469 2526.28125 1940.394531 2505.390625 1972.386719 C 2497.101562 1985.078125 2488.808594 1997.660156 2479.710938 2009.789062 C 2476.300781 2014.34375 2472.300781 2021.519531 2467.390625 2024.484375 C 2461.800781 2027.871094 2454.058594 2029.722656 2447.800781 2031.460938 C 2433.820312 2035.34375 2419.410156 2037.78125 2405.050781 2039.179688 C 2391.089844 2040.535156 2377.148438 2042.28125 2363.191406 2043.632812 C 2348.988281 2045.011719 2334.640625 2044.925781 2320.449219 2046.304688 C 2305.410156 2047.765625 2290.070312 2045.734375 2275.019531 2047.195312 C 2258.578125 2048.789062 2241.75 2048.085938 2225.148438 2048.085938 C 2193.28125 2048.085938 2161.410156 2047.585938 2129.859375 2044.523438 C 2108.460938 2042.441406 2087.128906 2039.484375 2065.730469 2037.398438 C 2028.589844 2033.792969 1991.121094 2027.914062 1954.410156 2020.773438 C 1913.210938 2012.765625 1871.691406 2006.15625 1830.621094 1997.027344 C 1794.019531 1988.890625 1758.101562 1979.15625 1721.96875 1969.117188 C 1672.558594 1955.394531 1623.578125 1936.621094 1578.578125 1912.867188 C 1551.988281 1898.824219 1526 1880.066406 1512.828125 1852.15625 C 1502.789062 1830.90625 1506.640625 1806.78125 1509.109375 1784.472656 C 1510.988281 1767.53125 1515.839844 1750.992188 1520.398438 1734.597656 C 1529.898438 1700.382812 1542.109375 1667.082031 1548.898438 1632.179688 C 1555.921875 1596.019531 1554.121094 1558.941406 1550.078125 1522.640625 C 1549.460938 1517.03125 1550.941406 1511.300781 1549.789062 1505.710938 C 1545.398438 1484.660156 1535.640625 1464.960938 1526.191406 1446.050781 C 1515.019531 1423.71875 1502.039062 1401.839844 1486.558594 1381.921875 C 1460.628906 1348.601562 1427.460938 1319.578125 1393.339844 1294.941406 C 1356.609375 1268.421875 1317.730469 1247.128906 1275.78125 1230.820312 C 1238.519531 1216.339844 1197.648438 1208.519531 1158.21875 1204.691406 C 1147.25 1203.621094 1136.230469 1203.089844 1125.269531 1202.019531 C 1120.570312 1201.570312 1115.71875 1202.480469 1111.019531 1202.019531 C 1094.578125 1200.429688 1077.75 1201.128906 1061.140625 1201.128906 C 1039.398438 1201.128906 1017.648438 1200.820312 996.132812 1202.910156 C 984.882812 1204.011719 973.53125 1203.601562 962.289062 1204.691406 C 939.375 1206.921875 916.59375 1210.171875 893.714844 1212.710938 C 878.558594 1214.390625 863.273438 1217.519531 848.292969 1220.429688 C 794.9375 1230.808594 743.003906 1244.179688 690.660156 1258.730469 C 642.664062 1272.058594 594.59375 1288.621094 550.835938 1311.71875 C 527.101562 1324.238281 505.90625 1340.761719 484.042969 1356.25 C 480.414062 1358.808594 476.117188 1359.988281 472.464844 1362.621094 C 449.347656 1379.320312 428.300781 1399.980469 409.230469 1421.109375 C 391.613281 1440.621094 373.464844 1459.960938 359.65625 1482.558594 C 351.449219 1495.988281 343.019531 1509.398438 336.351562 1523.53125 C 332.5625 1531.550781 330.855469 1540.378906 327.148438 1548.460938 C 318.625 1567.070312 310.320312 1586.800781 304.140625 1606.351562 Z M 304.144531 1606.351562 "/>
<path fill-rule="nonzero" fill="rgb(71.679688%, 66.992188%, 58.396912%)" fill-opacity="1" d="M 2515.558594 791.421875 L 2516.449219 791.421875 L 2525.199219 774.5 L 2532.628906 758.460938 L 2539.601562 746 C 2534.589844 747.050781 2531.101562 750.910156 2528.171875 754.898438 C 2521.378906 764.128906 2515.859375 779.890625 2515.558594 791.421875 M 2514.660156 792.308594 L 2515.558594 793.199219 L 2514.660156 792.308594 M 2750.671875 1906.441406 C 2745.578125 1911.125 2739.628906 1914.722656 2733.75 1918.3125 C 2723.828125 1924.375 2714.300781 1931.082031 2704.359375 1937.015625 C 2690.621094 1945.226562 2677.480469 1954.371094 2663.390625 1961.808594 C 2656.378906 1965.511719 2649.921875 1970.277344 2642.910156 1973.972656 C 2620 1986.066406 2597.449219 1998.929688 2574.328125 2010.488281 C 2541.558594 2026.882812 2507.800781 2040.839844 2473.699219 2054.574219 C 2421.558594 2075.574219 2367.808594 2090.25 2313.390625 2103.859375 C 2297.230469 2107.890625 2280.640625 2109.976562 2264.410156 2113.351562 C 2234.699219 2119.542969 2204.589844 2124.378906 2174.460938 2127.308594 C 2158.390625 2128.867188 2142.441406 2131.984375 2126.359375 2133.542969 C 2108.859375 2135.242188 2091.308594 2136.292969 2073.820312 2137.996094 C 2068.820312 2138.484375 2063.679688 2137.503906 2058.679688 2137.996094 C 2035.941406 2140.203125 2012.851562 2139.347656 1990.101562 2141.554688 C 1984.929688 2142.054688 1980.019531 2140.667969 1974.96875 2140.667969 C 1965.648438 2140.667969 1956.738281 2141.574219 1947.359375 2140.667969 C 1938.53125 2139.808594 1929.46875 2141.523438 1920.640625 2140.667969 C 1898.738281 2138.539062 1876.609375 2138.339844 1854.730469 2136.214844 C 1841.691406 2134.949219 1828.589844 2134.804688 1815.550781 2133.542969 C 1753.800781 2127.539062 1691.738281 2116.96875 1631.191406 2102.664062 C 1606.570312 2096.859375 1581.691406 2091.933594 1557.269531 2085.15625 C 1446.410156 2054.351562 1339.128906 2012.734375 1232.210938 1971.160156 C 1197.148438 1957.523438 1163.21875 1940.789062 1128.011719 1927.8125 C 1137.980469 1945.847656 1156.101562 1959.074219 1167.789062 1975.90625 C 1169.511719 1978.390625 1170.300781 1981.390625 1171.941406 1983.921875 C 1185.441406 2004.601562 1205.058594 2021.789062 1221.519531 2040.027344 C 1278.988281 2103.6875 1348.058594 2157.214844 1431.699219 2180.449219 C 1470.230469 2191.144531 1508.949219 2199.855469 1548.371094 2206.417969 C 1561.949219 2208.691406 1575.660156 2211.28125 1589.339844 2212.804688 C 1596.421875 2213.589844 1604.769531 2213.6875 1611.601562 2215.769531 C 1613.808594 2216.445312 1615.648438 2217.988281 1617.839844 2218.746094 C 1626.289062 2221.675781 1635.839844 2222.09375 1644.558594 2223.785156 C 1661.308594 2227.042969 1678.359375 2230.507812 1695.320312 2232.398438 C 1722.761719 2235.441406 1749.769531 2242.195312 1777.25 2244.867188 C 1789.480469 2246.050781 1801.539062 2249.023438 1813.769531 2250.207031 C 1839.339844 2252.695312 1864.78125 2256.628906 1890.359375 2259.113281 C 1917 2261.707031 1943.871094 2261.867188 1970.511719 2264.457031 C 1979.070312 2265.289062 1987.800781 2264.515625 1996.339844 2265.347656 C 2006.511719 2266.335938 2017.289062 2265.347656 2027.511719 2265.347656 C 2043.519531 2265.347656 2059.75 2266 2075.601562 2264.457031 C 2082.960938 2263.746094 2090.511719 2265.171875 2097.859375 2264.457031 C 2115.609375 2262.730469 2133.550781 2262.625 2151.300781 2260.894531 C 2176.449219 2258.445312 2201.851562 2258.890625 2227 2256.441406 C 2271.78125 2252.089844 2316.710938 2249.21875 2361.480469 2244.867188 C 2390.601562 2242.035156 2420.109375 2237.277344 2448.761719 2230.910156 C 2464.019531 2227.527344 2479.519531 2224.445312 2494.179688 2218.746094 C 2523.839844 2207.203125 2551.910156 2192.675781 2577.890625 2173.910156 C 2593.5 2162.644531 2609.429688 2151.496094 2622.429688 2137.105469 C 2655.058594 2100.945312 2678.589844 2058.902344 2700.058594 2015.984375 C 2713.300781 1989.488281 2725.671875 1962.671875 2738.351562 1935.828125 C 2741.691406 1928.757812 2744.789062 1921.554688 2748.148438 1914.457031 C 2749.320312 1911.972656 2751.679688 1908.890625 2750.671875 1906.441406 Z M 2750.671875 1906.441406 "/>
<path fill-rule="nonzero" fill="rgb(82.03125%, 76.5625%, 66.992188%)" fill-opacity="1" d="M 2445.21875 378.078125 C 2439.710938 379.160156 2433.890625 379.019531 2428.289062 379.570312 C 2414.609375 380.890625 2400.578125 384.199219 2387.320312 387.871094 C 2346.058594 399.351562 2308.019531 418.480469 2270.660156 438.191406 C 2245.359375 451.558594 2219.148438 467.761719 2201.480469 490.890625 C 2174.949219 525.640625 2159.101562 569.511719 2154.878906 612.898438 C 2153.148438 630.640625 2153.101562 648.390625 2153.101562 666.339844 C 2153.101562 685.289062 2157.609375 704.011719 2161.710938 722.441406 C 2167.398438 748.058594 2176.238281 773.660156 2185.761719 798.140625 C 2197.878906 829.320312 2204.121094 862.121094 2212.171875 894.328125 C 2214.269531 902.671875 2216.398438 910.96875 2218.710938 919.269531 C 2220.058594 924.128906 2220.800781 929.269531 2223.75 933.519531 C 2226.789062 937.878906 2231.339844 939.191406 2234.878906 942.570312 C 2241.421875 948.78125 2247.261719 954.980469 2257.300781 954 C 2268.671875 952.890625 2278.699219 944.171875 2288.46875 939.011719 L 2349.03125 906.949219 C 2379.929688 890.640625 2411.820312 875.558594 2443.429688 860.640625 C 2463.289062 851.261719 2483.800781 842 2501.320312 828.128906 C 2511.519531 820.058594 2520.148438 810.441406 2527.75 799.929688 C 2536.5 787.800781 2543.519531 774.441406 2554.761719 764.300781 C 2571.949219 748.78125 2594.859375 741.871094 2613.539062 728.378906 C 2637 711.441406 2651.878906 688.460938 2662.21875 661.878906 C 2673.21875 633.578125 2674.328125 600.039062 2671.421875 570.148438 C 2668.421875 539.269531 2665.210938 507.070312 2651.679688 478.421875 C 2636.550781 446.378906 2610.421875 417.769531 2578.800781 401.089844 C 2555.5 388.78125 2528.308594 382.109375 2502.210938 379.570312 C 2489.109375 378.289062 2476.320312 377.78125 2463.019531 377.78125 C 2457.28125 377.78125 2450.851562 376.980469 2445.21875 378.078125 Z M 2445.21875 378.078125 "/>
<path fill-rule="nonzero" fill="rgb(72.459412%, 67.771912%, 59.179688%)" fill-opacity="1" d="M 2604.75 419.671875 C 2601.308594 431.589844 2599.789062 444.160156 2596.449219 456.191406 C 2588.890625 483.359375 2579.21875 510.910156 2567.199219 536.339844 C 2543.261719 587.050781 2514.039062 634.421875 2478.890625 678.839844 C 2458.121094 705.058594 2434.269531 729.089844 2410.609375 752.75 C 2397.390625 765.96875 2384.371094 779.441406 2370.53125 791.941406 C 2365.609375 796.378906 2361.449219 801.730469 2356.28125 805.890625 C 2343.871094 815.898438 2332.5 827.558594 2320.660156 838.25 C 2298.691406 858.089844 2275.460938 876.769531 2252.078125 894.960938 C 2244.210938 901.070312 2236.019531 906.78125 2228.039062 912.769531 C 2225.691406 914.519531 2220.921875 916.640625 2219.570312 919.300781 C 2218.691406 921.03125 2219.828125 923.789062 2220.308594 925.53125 C 2222.660156 933.960938 2227.878906 936.941406 2234.269531 941.859375 C 2236.339844 943.460938 2237.660156 946 2239.609375 947.789062 C 2244.601562 952.359375 2252.449219 955.140625 2259.210938 953.730469 C 2273.148438 950.820312 2285.941406 940.261719 2298.390625 933.691406 C 2325.878906 919.191406 2353.460938 904.820312 2381.21875 890.949219 C 2400.058594 881.519531 2419.179688 872.320312 2438.21875 863.339844 C 2462.519531 851.859375 2488.210938 840.589844 2508.570312 822.21875 C 2526.859375 805.699219 2535.851562 781.601562 2553.988281 765.21875 C 2563.308594 756.820312 2574.289062 751.21875 2585.160156 745.480469 C 2600.140625 737.578125 2615.21875 728.578125 2627.910156 717.128906 C 2667.769531 681.148438 2676.480469 619.910156 2671.550781 569.289062 C 2667.300781 525.609375 2660.410156 479.25 2630.578125 444.609375 C 2624.929688 438.03125 2619.558594 431.070312 2612.769531 425.609375 C 2610.039062 423.398438 2608.160156 420.660156 2604.75 419.671875 Z M 2604.75 419.671875 "/>
<path fill-rule="nonzero" fill="rgb(89.0625%, 89.0625%, 89.0625%)" fill-opacity="1" d="M 2518.78125 377.5 C 2520.679688 386.550781 2525.808594 395.558594 2529.171875 404.21875 C 2536.488281 423.050781 2542.480469 442.691406 2547.878906 462.109375 C 2556.058594 491.578125 2562.140625 522.609375 2565.089844 552.949219 C 2566.441406 566.859375 2566.410156 580.890625 2567.761719 594.808594 C 2570.210938 620.019531 2571.109375 646.980469 2568.648438 672.289062 C 2568.199219 676.988281 2569.109375 681.839844 2568.648438 686.539062 C 2567.121094 702.320312 2565.058594 717.980469 2563.308594 733.738281 C 2562.519531 740.859375 2561.75 748.199219 2559.75 755.109375 C 2563.828125 753.929688 2567.601562 750.511719 2571.320312 748.28125 C 2577.75 744.441406 2584.308594 740.941406 2590.921875 737.449219 C 2604.128906 730.46875 2617.121094 722.480469 2628.320312 712.359375 C 2671.621094 673.28125 2676.320312 608.71875 2671.070312 554.730469 C 2668.160156 524.738281 2662.558594 494.660156 2648.960938 467.449219 C 2630.570312 430.671875 2597.679688 402.640625 2559.75 387.890625 C 2547.339844 383.070312 2532.199219 377.5 2518.78125 377.5 Z M 2518.78125 377.5 "/>
<path fill-rule="nonzero" fill="rgb(25.87738%, 22.75238%, 25.488281%)" fill-opacity="1" d="M 2210.339844 278.851562 C 2227.820312 294.949219 2246.800781 309.308594 2263.769531 326.050781 C 2269.441406 331.628906 2278.25 336.308594 2281.289062 343.859375 C 2285.75 354.910156 2287.328125 367.039062 2289.890625 378.589844 C 2293.890625 396.589844 2297.121094 414.769531 2300.140625 432.921875 C 2301.429688 440.648438 2302.839844 448.398438 2304.449219 456.078125 C 2305.25 459.949219 2305.371094 464.320312 2307.710938 467.648438 C 2309.640625 470.398438 2312.058594 470.761719 2314.539062 472.550781 C 2318.191406 475.179688 2316.289062 484.320312 2315.71875 488.140625 C 2314.910156 493.789062 2315.429688 500.109375 2315.429688 505.949219 C 2315.429688 511.390625 2315.019531 517.628906 2316.621094 522.871094 C 2318.089844 527.679688 2322.828125 531.019531 2327.898438 530.730469 C 2342.96875 529.898438 2338.589844 508.160156 2338.589844 497.929688 L 2338.589844 391.058594 C 2338.589844 380.53125 2339.480469 370.351562 2339.480469 359.890625 C 2339.480469 343.289062 2338.769531 326.460938 2340.371094 310.019531 C 2341.171875 301.78125 2339.570312 293.320312 2340.371094 285.078125 C 2341.308594 275.371094 2340.308594 265.421875 2341.261719 255.691406 C 2342.089844 247.210938 2342.089844 239.300781 2341.261719 230.761719 C 2340.71875 225.171875 2341.488281 220.101562 2339.179688 214.730469 C 2336.820312 209.25 2331.820312 204.820312 2327.898438 200.480469 C 2323.949219 196.109375 2320.28125 191.5 2316.320312 187.121094 C 2299.828125 168.839844 2284.730469 149.289062 2268.230469 131.011719 C 2263.71875 126.011719 2259.269531 120.980469 2254.871094 115.871094 C 2253.089844 113.800781 2249.230469 111.210938 2248.191406 108.75 C 2247.089844 106.109375 2249.46875 101.519531 2250.128906 98.949219 C 2251.550781 93.25 2252.519531 86.960938 2253.089844 81.140625 C 2254.871094 62.828125 2255.699219 44.761719 2250.710938 26.808594 C 2248.660156 19.378906 2245.429688 11.859375 2239.441406 6.621094 C 2221.71875 -8.839844 2201.550781 8.53125 2192.230469 24.140625 C 2179.199219 45.96875 2172.699219 71.160156 2170.269531 96.28125 C 2169.019531 109.089844 2167.910156 123.628906 2170.558594 136.351562 C 2171.921875 142.890625 2173.398438 150.121094 2176.789062 155.941406 C 2178.378906 158.660156 2180.019531 161.339844 2182.140625 163.660156 C 2183.171875 164.800781 2184.980469 165.859375 2185.109375 167.519531 C 2185.289062 169.921875 2183.039062 173.320312 2182.140625 175.539062 C 2179.230469 182.761719 2176.21875 190.289062 2174.121094 197.808594 C 2168 219.859375 2161.21875 241.851562 2158.691406 264.601562 C 2157.628906 274.160156 2156.871094 283.589844 2157.800781 293.101562 C 2158.429688 299.640625 2158.570312 306.148438 2162.539062 311.800781 C 2168.46875 320.210938 2179.449219 320.140625 2187.179688 314.769531 C 2194.589844 309.628906 2199.191406 301.699219 2203.371094 293.988281 C 2205.980469 289.171875 2209.199219 284.25 2210.339844 278.851562 M 2239.730469 133.679688 L 2292.269531 194.238281 L 2308.308594 212.941406 L 2317.808594 224.519531 L 2318.988281 245 L 2317.210938 290.429688 L 2317.210938 319.820312 L 2316.320312 388.390625 L 2315.429688 388.390625 C 2311.070312 364.710938 2308.339844 334.949219 2289.609375 318.03125 C 2273.070312 303.101562 2256.621094 288.050781 2239.730469 273.5 C 2235.058594 269.488281 2230.28125 265.640625 2225.480469 261.78125 C 2223.730469 260.371094 2220.910156 258.851562 2220.289062 256.578125 C 2219.71875 254.53125 2221.019531 251.429688 2221.628906 249.460938 C 2223.269531 244.078125 2225.46875 238.839844 2226.96875 233.429688 C 2231.378906 217.53125 2234.511719 201.488281 2237.660156 185.339844 C 2240.089844 172.820312 2240.070312 159.671875 2238.839844 147.039062 C 2238.371094 142.191406 2234.910156 137.210938 2239.730469 133.679688 M 2193.421875 514.261719 C 2180.628906 516.75 2169.339844 522.070312 2159.578125 530.890625 C 2153.019531 536.800781 2148.371094 544.300781 2140.878906 549.289062 C 2132.699219 554.75 2123.058594 557.5 2114.160156 561.460938 C 2102.210938 566.78125 2092.070312 577.050781 2086.699219 588.769531 C 2079.199219 605.121094 2083.191406 627.410156 2095.460938 640.429688 C 2103.03125 648.46875 2115.109375 654.390625 2125.730469 657.058594 C 2130.738281 658.308594 2133.980469 657.640625 2138.800781 657.058594 C 2145.828125 656.199219 2153.371094 657.550781 2160.46875 656.160156 C 2171.660156 653.980469 2181.191406 648.359375 2191.640625 644.289062 C 2203.789062 639.570312 2217.039062 636.339844 2229.929688 635.089844 C 2240.179688 634.089844 2252.519531 634.539062 2258.429688 624.398438 C 2262.179688 617.980469 2263.859375 609.398438 2264.671875 602.128906 C 2265.378906 595.679688 2267.089844 589.109375 2266.449219 582.539062 C 2262.980469 546.859375 2233.519531 506.460938 2193.421875 514.261719 Z M 2193.421875 514.261719 "/>
<path fill-rule="nonzero" fill="rgb(100%, 100%, 100%)" fill-opacity="1" d="M 2448.480469 394.960938 C 2430.808594 398.390625 2414.03125 402.640625 2396.820312 408.621094 C 2392.800781 410.019531 2387.238281 411.160156 2383.609375 413.371094 C 2381.980469 414.359375 2381.550781 416.28125 2383.460938 417.371094 C 2385.140625 418.328125 2387.878906 417.03125 2389.699219 416.929688 C 2396.859375 416.53125 2403.941406 414.949219 2411.070312 414.261719 C 2429.289062 412.480469 2454.359375 408.320312 2470.738281 419 C 2481.261719 425.878906 2488.570312 437.148438 2494.050781 448.101562 C 2501.53125 463.070312 2507.03125 478.980469 2511.109375 495.300781 C 2512.808594 502.101562 2514.261719 508.871094 2515.421875 515.789062 C 2515.730469 517.691406 2515.890625 522.441406 2518.828125 521.871094 C 2522.148438 521.230469 2521.339844 513.730469 2521.800781 511.328125 C 2524.019531 499.921875 2522.140625 487.148438 2521.5 475.710938 C 2519.628906 441.820312 2499.949219 399.691406 2462.71875 395.558594 C 2457.980469 395.03125 2453.308594 394.019531 2448.480469 394.960938 M 2652.421875 644.03125 L 2655.980469 644.03125 C 2658.558594 630.050781 2663.511719 616.410156 2664.890625 602.171875 C 2666.300781 587.71875 2668.980469 572.289062 2667.558594 557.640625 C 2665.109375 532.480469 2660.410156 508.308594 2649.011719 485.5 C 2642.769531 473.019531 2636.070312 460.910156 2627.191406 449.878906 C 2625.539062 447.839844 2619.449219 438.839844 2616.199219 441.421875 C 2613.71875 443.390625 2618.820312 451.171875 2619.761719 453.441406 C 2624.699219 465.289062 2629.078125 477.539062 2632.539062 489.960938 C 2646.640625 540.75 2652.421875 591.339844 2652.421875 644.03125 M 2657.769531 864.011719 C 2657.890625 868.5 2661.539062 869.808594 2664.890625 872.320312 C 2672.140625 877.761719 2679.300781 883.289062 2686.261719 889.089844 C 2712.71875 911.140625 2737.390625 936.050781 2759 962.859375 C 2821.398438 1040.328125 2861.308594 1129.210938 2887.828125 1224.691406 C 2896.121094 1254.519531 2903.679688 1284.429688 2910.398438 1314.648438 C 2911.828125 1321.121094 2913.019531 1327.71875 2914.101562 1334.238281 C 2914.710938 1337.871094 2914.441406 1340.898438 2918.710938 1341.359375 C 2920.679688 1332.011719 2916.949219 1320.5 2916.039062 1311.089844 C 2913.660156 1286.640625 2909.449219 1262.21875 2904.75 1238.058594 C 2897.019531 1198.300781 2888.648438 1157.589844 2873.878906 1119.609375 C 2848.519531 1054.410156 2814.808594 993.441406 2764.640625 943.269531 C 2741.511719 920.140625 2717.070312 899.089844 2689.820312 880.929688 C 2684.019531 877.058594 2678 873.519531 2672.011719 869.941406 C 2667.378906 867.179688 2663.308594 864.011719 2657.769531 864.011719 M 1139.308594 1061.71875 C 1139.320312 1062.519531 1139.058594 1064.308594 1139.75 1064.988281 C 1141.351562 1066.539062 1144.371094 1066.96875 1146.429688 1067.660156 C 1151.21875 1069.25 1155.878906 1071.109375 1160.679688 1072.699219 C 1183.550781 1080.320312 1206.289062 1088.21875 1229.25 1095.558594 C 1272.371094 1109.328125 1316.109375 1121.46875 1361.058594 1125.839844 C 1375.289062 1127.21875 1390.390625 1128.121094 1404.699219 1126.730469 C 1431.398438 1124.128906 1457.210938 1117.589844 1483.070312 1110.410156 C 1504.578125 1104.429688 1525.78125 1096.839844 1548.089844 1094.671875 C 1575.660156 1091.988281 1603.941406 1094.320312 1630.910156 1100.308594 C 1637.910156 1101.871094 1644.808594 1104.160156 1651.390625 1106.988281 C 1653.070312 1107.710938 1656.570312 1110.179688 1658.070312 1107.878906 C 1660.019531 1104.910156 1654.949219 1102.949219 1653.179688 1101.941406 C 1646.679688 1098.238281 1639.820312 1095.269531 1632.691406 1092.890625 C 1611.289062 1085.75 1589.898438 1082.589844 1567.679688 1080.421875 C 1559.300781 1079.609375 1550.359375 1078.699219 1541.851562 1079.53125 C 1506.410156 1082.980469 1472.578125 1093.820312 1437.648438 1100.609375 C 1410.96875 1105.789062 1382.910156 1108 1355.71875 1105.359375 C 1307.851562 1100.699219 1260.289062 1089.691406 1213.21875 1079.238281 C 1199.539062 1076.191406 1185.859375 1072.828125 1172.25 1069.441406 C 1161.679688 1066.789062 1150.261719 1061.71875 1139.308594 1061.71875 M 327.972656 1377.878906 C 334.394531 1380.421875 341.636719 1367.78125 345.785156 1363.628906 C 362.238281 1347.179688 378.445312 1329.53125 396.550781 1314.941406 C 413.828125 1301.019531 430.152344 1286.121094 448.203125 1273.078125 C 475.632812 1253.28125 505.425781 1236.738281 528.355469 1211.339844 C 546.136719 1191.648438 557.203125 1167.851562 566.949219 1143.648438 C 572.875 1128.941406 577.800781 1113.828125 583.722656 1099.121094 C 585.074219 1095.769531 586.605469 1092.550781 588.175781 1089.328125 C 588.804688 1088.03125 590.117188 1086.441406 589.363281 1084.871094 C 588.03125 1082.121094 585.507812 1084.351562 584.316406 1085.769531 C 580.992188 1089.699219 578.152344 1094.609375 575.707031 1099.121094 C 564.75 1119.351562 554.734375 1139.871094 542.902344 1159.679688 C 534.558594 1173.660156 524.460938 1187.910156 512.324219 1198.871094 C 488.988281 1219.941406 462.261719 1236.019531 437.515625 1255.269531 C 410.851562 1276.011719 387.117188 1300.859375 365.972656 1327.109375 C 356.945312 1338.320312 347.894531 1349.429688 339.253906 1360.960938 C 335.496094 1365.960938 329.570312 1371.808594 327.972656 1377.878906 M 833.828125 1274.859375 C 824.066406 1276.761719 813.46875 1276.28125 803.550781 1277.238281 C 783.898438 1279.160156 764.113281 1283.039062 744.769531 1287.328125 C 683.085938 1301.039062 625.027344 1327.859375 570.214844 1357.550781 C 549.371094 1368.828125 528.671875 1382.171875 509.652344 1396.429688 C 505.089844 1399.859375 500.574219 1403.339844 496.292969 1407.121094 C 495.035156 1408.230469 492.125 1410.511719 494.664062 1412.171875 C 496.609375 1413.441406 499.246094 1410.941406 500.746094 1409.941406 C 505.414062 1406.828125 510.160156 1403.941406 514.996094 1401.191406 C 535.132812 1389.710938 555.953125 1379.070312 577.339844 1370.160156 C 649.921875 1339.921875 723.523438 1311.800781 799.988281 1292.679688 C 817.960938 1288.191406 836.804688 1283.738281 855.203125 1281.691406 C 859.960938 1281.171875 864.695312 1280.441406 869.453125 1279.910156 C 870.992188 1279.738281 873.34375 1280.269531 873.753906 1278.128906 C 874.449219 1274.570312 867.136719 1275.28125 865 1274.859375 C 859.90625 1273.871094 854.152344 1274.570312 848.96875 1274.570312 C 844.0625 1274.570312 838.648438 1273.929688 833.828125 1274.859375 M 1369.960938 1317.320312 C 1370.359375 1321.058594 1372.601562 1322.109375 1375.308594 1324.441406 C 1379.628906 1328.160156 1383.730469 1331.980469 1387.78125 1336.019531 C 1403.589844 1351.828125 1420.601562 1367.519531 1434.679688 1385 C 1447.679688 1401.128906 1461.550781 1416.46875 1474.019531 1433.089844 C 1486.941406 1450.339844 1500.011719 1468.171875 1509.640625 1487.421875 C 1511.96875 1492.089844 1514.539062 1496.730469 1516.320312 1501.671875 C 1516.890625 1503.25 1517.441406 1505.828125 1519.589844 1505.828125 C 1521.441406 1505.828125 1522.03125 1504.089844 1521.960938 1502.558594 C 1521.808594 1498.78125 1520.960938 1494.710938 1520.179688 1490.980469 C 1517.019531 1475.808594 1511.789062 1460.441406 1505.179688 1446.449219 C 1484.289062 1402.199219 1449.320312 1368.550781 1410.039062 1340.179688 C 1400.890625 1333.570312 1391.441406 1326.980469 1381.539062 1321.621094 C 1377.671875 1319.53125 1374.558594 1316.351562 1369.960938 1317.320312 M 3193.011719 1475.839844 C 3190.828125 1481.03125 3197.25 1484.679688 3201.019531 1487.710938 C 3210.640625 1495.460938 3219.019531 1505.410156 3227.738281 1514.140625 C 3266.070312 1552.46875 3305.5 1589.570312 3343.519531 1628.136719 C 3353.871094 1638.636719 3363.460938 1650.410156 3372.609375 1661.976562 C 3374.511719 1664.375 3378.769531 1672.859375 3382.558594 1671.621094 C 3384.589844 1670.964844 3384.089844 1668.871094 3383.441406 1667.320312 C 3381.851562 1663.484375 3379.898438 1659.546875 3378.101562 1655.742188 C 3370.570312 1639.773438 3360.78125 1623.878906 3350.351562 1609.429688 C 3320.609375 1568.261719 3280.199219 1536.230469 3239.320312 1506.71875 C 3229.070312 1499.320312 3218.679688 1492.070312 3208.148438 1485.039062 C 3203.511719 1481.949219 3198.378906 1477.261719 3193.011719 1475.839844 M 3243.769531 1808.035156 C 3245.21875 1812.914062 3252.71875 1814.507812 3257.128906 1816.34375 C 3266.390625 1820.210938 3275.25 1826.238281 3283.851562 1831.484375 C 3314.460938 1850.195312 3340.980469 1875.953125 3364.890625 1902.4375 C 3405.859375 1947.824219 3430.480469 2002.601562 3452.910156 2058.292969 C 3458.640625 2072.523438 3462.808594 2087.914062 3466.128906 2102.820312 C 3466.910156 2106.375 3467.300781 2109.964844 3468.050781 2113.507812 C 3468.339844 2114.84375 3468.261719 2116.589844 3469.980469 2116.917969 C 3472.570312 2117.417969 3472.808594 2114.398438 3472.660156 2112.617188 C 3472.160156 2106.703125 3471.199219 2100.738281 3470.878906 2094.804688 C 3469.601562 2071.835938 3462.730469 2047.222656 3455.730469 2025.339844 C 3447.449219 1999.40625 3437.890625 1974.390625 3425.300781 1950.53125 C 3400.96875 1904.421875 3362.441406 1863.855469 3317.691406 1837.128906 C 3300.578125 1826.914062 3283.261719 1818.230469 3264.261719 1811.890625 C 3258.308594 1809.914062 3249.789062 1805.496094 3243.769531 1808.035156 M 1001.261719 1835.644531 C 999.292969 1840.308594 1002.859375 1846.257812 1004.671875 1850.785156 C 1009.679688 1863.207031 1014.761719 1875.410156 1020.699219 1887.296875 C 1035.78125 1917.445312 1052.261719 1946.949219 1072.210938 1974.574219 C 1085.210938 1992.566406 1097.71875 2010.476562 1113.480469 2026.230469 C 1126 2038.75 1139.769531 2049.101562 1154.441406 2058.886719 C 1157.589844 2060.988281 1160.871094 2062.992188 1164.238281 2064.675781 C 1165.660156 2065.382812 1167.789062 2066.964844 1169.429688 2065.859375 C 1170.96875 2064.820312 1170.269531 2063.0625 1169.429688 2061.851562 C 1167.289062 2058.734375 1163.359375 2056.519531 1160.679688 2053.835938 C 1148.679688 2041.839844 1137.160156 2029.125 1126.980469 2015.542969 C 1114.628906 1999.074219 1103.859375 1981.476562 1091.808594 1964.777344 L 1031.839844 1881.953125 C 1024.5 1871.78125 1017.171875 1860.898438 1011.210938 1849.890625 C 1008.808594 1845.464844 1006.261719 1837.128906 1001.261719 1835.640625 M 188.148438 1995.949219 C 188.609375 2000.207031 191.671875 2000.1875 195.273438 2001.292969 C 202.375 2003.464844 209.5625 2005.265625 216.648438 2007.527344 C 248.070312 2017.5625 279.691406 2027.058594 311.050781 2037.511719 C 378.511719 2060 446.644531 2080.566406 514.996094 2099.550781 C 564.027344 2113.179688 614.128906 2126.980469 664.617188 2133.992188 C 692.875 2137.917969 720.84375 2143.699219 749.222656 2146.460938 C 755.433594 2147.066406 761.765625 2148.25 767.925781 2149.28125 C 769.777344 2149.585938 773.226562 2151.097656 774.605469 2148.980469 C 776.753906 2145.691406 769.804688 2144.605469 767.925781 2144.082031 C 759.402344 2141.710938 750.707031 2139.886719 742.097656 2137.847656 C 706.375 2129.414062 670.832031 2120.480469 635.226562 2111.574219 C 591.535156 2100.65625 548.609375 2086.671875 505.199219 2074.613281 C 444.808594 2057.84375 384.300781 2041.574219 323.519531 2026.378906 C 295.683594 2019.417969 267.820312 2012.566406 239.804688 2006.34375 C 229.121094 2003.964844 218.472656 2001.453125 207.742188 1999.21875 C 201.1875 1997.847656 194.898438 1995.949219 188.148438 1995.949219 Z M 188.148438 1995.949219 "/>
</svg>
